<svg xmlns="http://www.w3.org/2000/svg">
<defs>
<font id="Benoa-Thin" horiz-adv-x="0" >
  <font-face 
    font-family="Benoa Thin"
    font-weight="100"
    font-stretch="normal"
    units-per-em="2048"
    panose-1="2 2 10 3 6 3 3 6 4 3"
    ascent="1638"
    descent="-410"
    x-height="1184"
    cap-height="1669"
    bbox="-1032.23 -829 2773 2253"
    underline-thickness="40"
    underline-position="-245"
    unicode-range="U+0020-E045"
  />
<missing-glyph horiz-adv-x="1153" 
d="M829 680l-6 -8q-51 -2 -103.5 5.5t-100 23t-77.5 44.5t-30 66q0 45 45.5 73.5t101.5 28.5q63 0 107.5 -31t44.5 -77q0 -31 -26 -52.5t-74 -21.5q-46 0 -73.5 21.5t-29.5 48.5q-3 30 18 45.5t48 15.5q49 0 49 -26v-5q0 -16 -16 -16q4 0 4 6q0 4 -5 8.5t-12 4.5
q-16 0 -16 -19q0 -20 31 -20q17 0 30.5 9.5t12.5 26.5q-1 24 -25.5 38t-56.5 14q-35 0 -59.5 -18.5t-24.5 -51.5q0 -45 37 -76.5t90.5 -44.5t115.5 -12zM504 145q-46 0 -87.5 11.5t-71.5 38.5t-30 65q0 71 85 111.5t202 40.5h37q-8 13 -8 34q0 36 23.5 88t42 84.5t12.5 32.5
q-5 0 -26.5 -29t-48.5 -83.5t-40 -108.5q-2 0 -12 1t-17 1q-39 0 -57 -6q20 44 51.5 99.5t49.5 86.5t16 31q-5 0 -26 -24t-57.5 -78t-70.5 -117q-64 -12 -115.5 -39.5t-74.5 -52.5l-5 6q160 135 250 289q-66 -90 -176 -186.5t-172 -96.5q-55 0 -55 78q0 73 39 143
q44 81 113 143t120 62q58 0 92.5 -16.5t36.5 -40.5q2 -18 -15.5 -37.5t-49.5 -30.5l-62 10q66 66 66 90q0 9 -10 9q-36 0 -94.5 -68t-102 -150.5t-43.5 -121.5q0 -25 20 -25q41 0 135.5 81.5t153.5 166.5q17 25 45 25q12 0 19 -5.5t4 -11.5q-4 -8 -18 -32.5t-21 -39.5
q67 82 82 82q32 0 32 -7q0 -1 -1 -3l-21 -41q44 55 66 55q17 0 48 -8.5t25 -21.5q-66 -124 -77 -173q-7 -30 -3 -50q109 -19 109 -52q0 -10 -5.5 -19t-12.5 -9q-79 0 -129 53q4 -2 15.5 -4.5t18.5 -5.5q11 -12 37 -22t44.5 -12t21.5 3q0 6 -28.5 19t-78.5 25.5t-96 12.5
q-96 0 -145.5 -40.5t-49.5 -94.5q0 -42 34.5 -69t82.5 -27q40 0 64.5 15t23.5 46q-4 37 -53 37q-33 0 -33 -20q0 -8 7.5 -13.5t17.5 -5.5q8 0 8 6q0 11 -12 11q3 6 12 6q10 0 18.5 -6.5t8.5 -16.5q0 -12 -14 -20t-38 -8q-39 0 -64.5 19t-25.5 52q0 32 28 57t77 25

<glyph glyph-name=".notdef" horiz-adv-x="1153" 
d="M829 680l-6 -8q-51 -2 -103.5 5.5t-100 23t-77.5 44.5t-30 66q0 45 45.5 73.5t101.5 28.5q63 0 107.5 -31t44.5 -77q0 -31 -26 -52.5t-74 -21.5q-46 0 -73.5 21.5t-29.5 48.5q-3 30 18 45.5t48 15.5q49 0 49 -26v-5q0 -16 -16 -16q4 0 4 6q0 4 -5 8.5t-12 4.5
q-16 0 -16 -19q0 -20 31 -20q17 0 30.5 9.5t12.5 26.5q-1 24 -25.5 38t-56.5 14q-35 0 -59.5 -18.5t-24.5 -51.5q0 -45 37 -76.5t90.5 -44.5t115.5 -12zM504 145q-46 0 -87.5 11.5t-71.5 38.5t-30 65q0 71 85 111.5t202 40.5h37q-8 13 -8 34q0 36 23.5 88t42 84.5t12.5 32.5
q-5 0 -26.5 -29t-48.5 -83.5t-40 -108.5q-2 0 -12 1t-17 1q-39 0 -57 -6q20 44 51.5 99.5t49.5 86.5t16 31q-5 0 -26 -24t-57.5 -78t-70.5 -117q-64 -12 -115.5 -39.5t-74.5 -52.5l-5 6q160 135 250 289q-66 -90 -176 -186.5t-172 -96.5q-55 0 -55 78q0 73 39 143
q44 81 113 143t120 62q58 0 92.5 -16.5t36.5 -40.5q2 -18 -15.5 -37.5t-49.5 -30.5l-62 10q66 66 66 90q0 9 -10 9q-36 0 -94.5 -68t-102 -150.5t-43.5 -121.5q0 -25 20 -25q41 0 135.5 81.5t153.5 166.5q17 25 45 25q12 0 19 -5.5t4 -11.5q-4 -8 -18 -32.5t-21 -39.5
q67 82 82 82q32 0 32 -7q0 -1 -1 -3l-21 -41q44 55 66 55q17 0 48 -8.5t25 -21.5q-66 -124 -77 -173q-7 -30 -3 -50q109 -19 109 -52q0 -10 -5.5 -19t-12.5 -9q-79 0 -129 53q4 -2 15.5 -4.5t18.5 -5.5q11 -12 37 -22t44.5 -12t21.5 3q0 6 -28.5 19t-78.5 25.5t-96 12.5
q-96 0 -145.5 -40.5t-49.5 -94.5q0 -42 34.5 -69t82.5 -27q40 0 64.5 15t23.5 46q-4 37 -53 37q-33 0 -33 -20q0 -8 7.5 -13.5t17.5 -5.5q8 0 8 6q0 11 -12 11q3 6 12 6q10 0 18.5 -6.5t8.5 -16.5q0 -12 -14 -20t-38 -8q-39 0 -64.5 19t-25.5 52q0 32 28 57t77 25
q47 0 84.5 -23.5t40.5 -64.5q4 -55 -45 -85t-121 -30zM811 408q-35 0 -55.5 17.5t-14.5 49.5q14 55 47.5 117t86 111t104.5 49q20 0 35.5 -7t15.5 -14q0 -21 -35.5 -40.5t-74.5 -26.5q-39 -55 -69 -120t-30 -98q0 -20 15 -20q28 0 57.5 21.5t40.5 46.5h35
q-16 -29 -65.5 -57.5t-92.5 -28.5zM934 680q60 10 84 40q11 16 -4 17q-36 0 -80 -57z" />
    <glyph glyph-name=".null" 
 />
    <glyph glyph-name="nonmarkingreturn" horiz-adv-x="682" 
 />
    <glyph glyph-name="space" unicode=" " horiz-adv-x="450" 
 />
    <glyph glyph-name="exclam" unicode="!" horiz-adv-x="473" 
d="M256 410h-41q11 96 -10 564.5t-21 553.5q0 176 62 176q61 0 61 -176q0 -103 -31 -564t-20 -554zM236 -33q-47 0 -80 33t-33 80q0 49 32.5 82t80.5 33q49 0 81.5 -32.5t32.5 -82.5q0 -48 -32.5 -80.5t-81.5 -32.5z" />
    <glyph glyph-name="quotedbl" unicode="&#x22;" horiz-adv-x="643" 
d="M158 1120h-35q13 71 20 164t3 202.5t-23 182.5h151zM403 1120h-32q62 275 0 549h149z" />
    <glyph glyph-name="numbersign" unicode="#" horiz-adv-x="1515" 
d="M1393 874l-41 -81h-303l-103 -265h328l-41 -82h-318l-127 -331h-81l127 331h-265l-127 -331h-82l127 331h-364l41 82h354l103 265h-379l41 81h368l119 310h82l-119 -310h266l119 310h80l-119 -310h314zM600 528h266l101 265h-265z" />
    <glyph glyph-name="dollar" unicode="$" horiz-adv-x="1609" 
d="M866 -135h-123v145q-162 6 -315 61t-276 156l18 123q105 -86 257 -137.5t316 -60.5v690q-66 11 -116 21t-111 25t-105.5 32.5t-92.5 41.5t-81 54.5t-60 68t-40.5 86t-13.5 105.5q0 102 49 183.5t135.5 134t196 83t239.5 39.5v107h123v-103q283 -3 529 -94l-19 -123
q-92 47 -228.5 76.5t-281.5 34.5v-658q78 -11 133 -21t125 -27.5t118 -38t97.5 -52.5t79.5 -71t49 -93.5t19 -120.5q0 -114 -50 -209.5t-135.5 -160t-197 -104t-238.5 -48.5v-145zM743 975v637q-103 -6 -190.5 -28.5t-157.5 -62t-109.5 -102.5t-39.5 -143q0 -45 14.5 -82
t37.5 -64t61.5 -49.5t76.5 -37.5t94 -28.5t102 -21.5t111 -18zM866 821v-669q103 5 191 30.5t158 71t109.5 117t39.5 161.5q0 41 -14.5 75.5t-37 60t-62 47.5t-77 36.5t-94 28t-102 22t-111.5 19.5z" />
    <glyph glyph-name="percent" unicode="%" horiz-adv-x="1918" 
d="M578 -35h-123l788 1583q-176 -23 -407 19q79 -110 79 -301q0 -125 -43 -221t-134 -153.5t-220 -57.5q-192 0 -293.5 119.5t-101.5 312.5q0 213 99 324.5t296 111.5q69 0 186.5 -17.5t218 -33.5t239 -14.5t263.5 32.5zM514 956q30 0 62.5 7t72.5 28t71 53.5t52 89.5
t21 130q0 155 -67.5 229.5t-207.5 85.5q-132 0 -202 -81.5t-70 -233.5q0 -308 268 -308zM1399 -37q-192 0 -293.5 119.5t-101.5 312.5q0 213 99 324.5t296 111.5q198 0 297.5 -111.5t99.5 -324.5q0 -125 -43 -221t-134 -153.5t-220 -57.5zM1395 86q30 0 62.5 7t72 28
t70.5 53t52 89t21 130q0 89 -23.5 153.5t-65 98.5t-88 49t-101.5 15q-52 0 -96.5 -15t-85 -49t-64 -98.5t-23.5 -153.5q0 -307 269 -307z" />
    <glyph glyph-name="ampersand" unicode="&#x26;" horiz-adv-x="1671" 
d="M524 -35q-125 0 -218 64t-138 165.5t-45 225.5q0 118 40.5 231.5t131 217t219.5 165.5v4q-141 160 -141 330q0 144 104 239t279 95q91 0 162 -24.5t113 -65t63.5 -89t21.5 -100.5q0 -63 -29.5 -117.5t-82.5 -84.5q14 55 14 108q0 130 -78 207.5t-180 77.5q-60 0 -108 -16
t-78.5 -42t-50.5 -61.5t-28 -71.5t-8 -75q0 -97 39 -150l400 -543q85 138 199 227t231 89q94 0 192 -60v-65q-341 123 -549 -295l390 -551h-193q-5 45 -20 83t-27.5 55.5t-36.5 47.5l-145 213q-27 -57 -45.5 -94.5t-47.5 -87.5t-53.5 -82.5t-58.5 -67.5t-68.5 -55.5
t-78 -33.5t-91.5 -13zM516 84q38 0 76.5 23t68 53t68.5 89.5t63 101.5t67 119q15 27 22 40l-314 434q-97 -45 -167 -131.5t-102 -184.5t-32 -200q0 -146 66 -245t184 -99z" />
    <glyph glyph-name="quotesingle" unicode="'" horiz-adv-x="382" 
d="M164 1120h-41q13 71 20 164t3 202.5t-23 182.5h137z" />
    <glyph glyph-name="parenleft" unicode="(" horiz-adv-x="942" 
d="M819 -45v-82q-174 0 -300 51.5t-216.5 166t-135 305t-44.5 460.5q0 211 29.5 372t84.5 271.5t139.5 180.5t189 101t237.5 31v-81h-32q-47 1 -72.5 0.5t-74.5 -8t-79.5 -21.5t-75 -44t-72 -72.5t-59.5 -109.5t-50 -152.5t-30 -205t-12 -262.5q0 -187 21 -334.5t49.5 -241
t80.5 -159.5t91.5 -97.5t106.5 -48.5t101 -18.5t98 -1.5h25z" />
    <glyph glyph-name="parenright" unicode=")" horiz-adv-x="942" 
d="M123 -127v82q123 0 168 7q191 29 288 212q117 221 117 682q0 143 -11.5 262.5t-31.5 204.5t-48 153t-61.5 109t-70.5 73t-76 44t-78 22t-76.5 7.5t-71.5 -0.5h-32v81q133 0 237.5 -31t189 -101t139.5 -180.5t84.5 -271.5t29.5 -372q0 -270 -44.5 -460.5t-135 -305
t-216.5 -166t-300 -51.5z" />
    <glyph glyph-name="asterisk" unicode="*" horiz-adv-x="747" 
d="M442 1219h183v-56h-185l131 -131l-39 -39l-131 131v-184h-55v182l-129 -129l-39 39l131 131h-186v56h184l-129 129l39 38l129 -129v185h55v-187l131 131l39 -38z" />
    <glyph glyph-name="plus" unicode="+" horiz-adv-x="997" 
d="M541 258h-82v336h-336v82h336v334h82v-334h333v-82h-333v-336z" />
    <glyph glyph-name="comma" unicode="," horiz-adv-x="446" 
d="M141 -285h-59l119 453h123z" />
    <glyph glyph-name="hyphen" unicode="-" horiz-adv-x="901" 
d="M778 594h-655v82h655v-82z" />
    <glyph glyph-name="period" unicode="." horiz-adv-x="380" 
d="M190 -14q-29 0 -48 20t-19 49q0 27 19.5 47.5t47.5 20.5q27 0 47.5 -20.5t20.5 -47.5q0 -29 -20 -49t-48 -20z" />
    <glyph glyph-name="slash" unicode="/" horiz-adv-x="796" 
d="M205 -195h-82l469 1864h82z" />
    <glyph glyph-name="zero" unicode="0" horiz-adv-x="1337" 
d="M670 -35q-135 0 -240.5 66t-172 183t-100.5 273t-34 342q0 426 136.5 649.5t410.5 223.5t410.5 -223.5t136.5 -649.5q0 -186 -34 -342t-100.5 -273t-172 -183t-240.5 -66zM670 88q19 0 36 1t49.5 8.5t60 20.5t63.5 39.5t64.5 62.5t58 93t48.5 128t31.5 170.5t12.5 217.5
q0 147 -14.5 264t-43 198t-65.5 138t-86.5 89.5t-101 46.5t-113.5 14q-74 0 -133.5 -19.5t-115 -71.5t-93 -134.5t-60 -215.5t-22.5 -309q0 -118 11.5 -217.5t30 -170.5t47 -128t56 -93t63 -62.5t62.5 -39.5t61 -20.5t52 -8.5t41 -1z" />
    <glyph glyph-name="one" unicode="1" horiz-adv-x="518" 
d="M395 0h-213q21 38 31.5 78t12 67t1.5 82v897q0 190 -9 262q-19 146 -81 211l213 72v-1442q0 -55 1.5 -82t12 -67t31.5 -78z" />
    <glyph glyph-name="two" unicode="2" horiz-adv-x="1310" 
d="M1192 0h-1055q0 102 32.5 196t87.5 170t126 147t150 133t158 122t150 121.5t126 123t87.5 133.5t32.5 148q0 72 -33 131.5t-90 99t-139 56t-174.5 7t-202.5 -53t-217 -119.5l-30 137q85 55 181.5 92t193 51.5t189 10t172 -36t140 -83t95 -134t34.5 -186.5
q0 -102 -46 -197.5t-120.5 -173t-165 -151.5t-184 -146.5t-173.5 -144.5t-137 -158.5t-71 -175.5q181 0 264 1t238 5t251 16.5t150 32.5z" />
    <glyph glyph-name="three" unicode="3" horiz-adv-x="1366" 
d="M670 -23q-184 0 -398 70v123q220 -90 398 -90q107 0 194 32t141 85t82.5 119t28.5 137q0 144 -128.5 275t-317.5 155v59q180 34 289.5 147t109.5 236q0 112 -97 189t-284 77q-154 0 -342 -55v123q192 49 340 49q127 0 226.5 -32t159.5 -86.5t91 -121.5t31 -141
q0 -69 -26.5 -134.5t-75.5 -120.5t-125.5 -93t-169.5 -49v-21q138 -13 239.5 -81.5t150 -165.5t48.5 -207q0 -92 -35.5 -175.5t-102.5 -152t-178 -109.5t-249 -41z" />
    <glyph glyph-name="four" unicode="4" horiz-adv-x="1433" 
d="M1153 0h-213q21 38 31.5 78t12 67t1.5 82v193h-801v94l848 1155h76v-1165h203v-84h-203v-193q0 -55 1.5 -82t12 -67t31.5 -78zM985 1462l-700 -958h700v958z" />
    <glyph glyph-name="five" unicode="5" horiz-adv-x="1396" 
d="M514 -20q-167 0 -358 57v92q171 -55 333 -55q150 0 273.5 51.5t202 136.5t121 191.5t42.5 220.5q0 201 -128.5 324.5t-335.5 123.5q-192 0 -402 -110l-57 114l71 543h859l20 -170q-31 31 -96 46t-109.5 16.5t-134.5 1.5l-444 -2l-58 -410q199 74 373 74q172 0 299 -72.5
t191.5 -197.5t64.5 -287q0 -105 -29.5 -204.5t-90.5 -187t-146 -153.5t-204 -104.5t-257 -38.5z" />
    <glyph glyph-name="six" unicode="6" horiz-adv-x="1329" 
d="M692 -45q-87 0 -168 30t-154.5 97t-128 165t-86.5 243.5t-32 322.5q0 143 23.5 272.5t73.5 242t123 194.5t177 129t230 47q192 0 387 -144l-41 -98q-154 139 -344 139q-101 0 -191.5 -44t-163 -128.5t-115 -221.5t-42.5 -308h34q69 112 188.5 172.5t258.5 60.5
q100 0 189 -34t163 -102.5t116 -184.5t38 -266q-3 -131 -50 -243t-122 -185.5t-169.5 -114.5t-193.5 -41zM709 61q74 0 141 29.5t122.5 86t90.5 150t41 212.5q6 118 -26 212t-90.5 150.5t-132 85.5t-155.5 29t-159 -28.5t-139.5 -81t-100 -135t-37.5 -181.5
q0 -121 39 -223.5t102.5 -168t142.5 -101.5t161 -36z" />
    <glyph glyph-name="seven" unicode="7" horiz-adv-x="1032" 
d="M453 0h-123l491 1444v102h-473q-101 0 -209 -33v156h791v-225z" />
    <glyph glyph-name="eight" unicode="8" horiz-adv-x="1267" 
d="M629 -41q-104 0 -197.5 34t-167.5 98t-118 166.5t-44 229.5q0 185 86.5 310.5t208.5 175.5q-95 46 -151 133.5t-56 210.5q0 188 109 288.5t305 100.5t305 -100.5t109 -288.5q0 -118 -52 -204t-141 -134q320 -105 320 -492q0 -103 -28 -190.5t-76.5 -149t-114 -104.5
t-141 -63.5t-156.5 -20.5zM604 1014q81 0 150 32.5t115 103t46 167.5q0 144 -89.5 222.5t-221.5 78.5t-221.5 -78.5t-89.5 -222.5q0 -97 46 -167.5t115 -103t150 -32.5zM625 53q80 0 150.5 27.5t126 80.5t88 137t32.5 189q0 100 -32.5 181t-88 131.5t-126 77t-150.5 26.5
q-168 0 -284 -109.5t-116 -306.5q0 -105 32.5 -189t88.5 -137t127.5 -80.5t151.5 -27.5z" />
    <glyph glyph-name="nine" unicode="9" horiz-adv-x="1312" 
d="M537 -20q-177 0 -334 83l33 125q140 -94 292 -94q105 0 201.5 45t169.5 124.5t116.5 197.5t43.5 256h-8q-41 -135 -155 -210t-249 -75q-97 0 -188.5 40t-167.5 115.5t-122 199t-46 276.5t44 277.5t117 202.5t165 119.5t192 41.5q86 0 165 -30t149.5 -95.5t122.5 -160.5
t82 -234t30 -307q0 -189 -36 -342t-97.5 -255t-145.5 -170.5t-177.5 -99t-196.5 -30.5zM662 543q74 0 141 30.5t120.5 87.5t85 147.5t31.5 201.5q0 140 -33.5 251.5t-90.5 178t-126 101t-145 34.5q-74 0 -143 -33t-124.5 -93t-88.5 -154.5t-33 -207.5q0 -133 35 -239.5
t93 -171.5t129.5 -99t148.5 -34z" />
    <glyph glyph-name="colon" unicode=":" horiz-adv-x="380" 
d="M190 733q-29 0 -48 20t-19 50q0 27 19 47t48 20q28 0 48 -20t20 -47q0 -29 -20 -49.5t-48 -20.5zM190 -14q-29 0 -48 20t-19 49q0 27 19.5 47.5t47.5 20.5q27 0 47.5 -20.5t20.5 -47.5q0 -29 -20 -49t-48 -20z" />
    <glyph glyph-name="semicolon" unicode=";" horiz-adv-x="487" 
d="M287 455q-29 0 -48.5 20t-19.5 49q0 27 19.5 47.5t48.5 20.5q27 0 47 -20.5t20 -47.5q0 -29 -19.5 -49t-47.5 -20zM141 -285h-59l119 453h123z" />
    <glyph glyph-name="less" unicode="&#x3c;" horiz-adv-x="921" 
d="M799 328v-82l-676 409v9l676 401v-82l-545 -324v-2z" />
    <glyph glyph-name="equal" unicode="=" horiz-adv-x="997" 
d="M874 735h-751v82h751v-82zM874 446h-751v82h751v-82z" />
    <glyph glyph-name="greater" unicode="&#x3e;" horiz-adv-x="921" 
d="M799 655l-676 -409v82l545 329v2l-545 324v82l676 -401v-9z" />
    <glyph glyph-name="question" unicode="?" horiz-adv-x="946" 
d="M313 229h-61q-10 55 -10 95q0 77 25.5 154.5t65.5 145t89 134.5t98 133.5t89 132t65.5 139.5t25.5 146q0 136 -83 216.5t-214 80.5q-123 0 -260 -76l-20 110q141 62 280 62q184 0 302 -106.5t118 -272.5q0 -63 -15.5 -125t-35 -107.5t-59.5 -105.5t-65.5 -92.5
t-76.5 -95.5q-53 -64 -80.5 -100t-69 -99.5t-62 -113.5t-35 -118t-11.5 -137zM295 -14q-29 0 -48.5 20t-19.5 49q0 27 19.5 47.5t48.5 20.5q27 0 47 -20.5t20 -47.5q0 -29 -19.5 -49t-47.5 -20z" />
    <glyph glyph-name="at" unicode="@" horiz-adv-x="1871" 
d="M1077 -102q-147 0 -282 26t-258.5 85t-214.5 145t-145 215.5t-54 287.5q0 128 44.5 242.5t123.5 200.5t184 148.5t228 95t253 32.5q134 0 250 -27t201 -75t151.5 -110.5t107.5 -135.5t62 -149t21 -152q0 -115 -43.5 -210t-131.5 -154.5t-206 -59.5q-120 0 -197 73
t-77 214h-11q-10 -123 -80 -188.5t-165 -65.5q-106 0 -185.5 77t-79.5 208q0 146 115.5 232.5t278.5 86.5q87 0 157 -30t148 -95q-68 -151 -68 -237q0 -73 47.5 -118.5t112.5 -45.5q119 0 190.5 89t71.5 218q0 106 -36 195t-98.5 151.5t-146 106.5t-178 65t-196.5 21
q-108 0 -212 -24t-197 -74t-163.5 -120t-111.5 -169.5t-41 -215.5q0 -132 45 -241t121.5 -182.5t181 -124t220.5 -73t243 -22.5q190 0 371 50.5t311 140.5v-152q-130 -73 -304.5 -114t-357.5 -41zM823 475q75 0 166 75t174 226q-58 35 -140 39t-153.5 -17.5t-122.5 -67.5
t-51 -103q0 -70 35 -111t92 -41z" />
    <glyph glyph-name="A" unicode="A" horiz-adv-x="1486" 
d="M330 0h-228q21 33 37 65.5t23 50.5t20 56.5t19 54.5l467 1295q14 37 14 68.5t-14 78.5h168q-22 -86 0 -147l467 -1295q5 -15 17 -50t19.5 -56t24 -55t37.5 -66h-227q24 63 26 111.5t-20 115.5l-131 375h-594l-131 -375q-22 -67 -20 -115.5t26 -111.5zM752 1442l-271 -766
h541z" />
    <glyph glyph-name="B" unicode="B" horiz-adv-x="1212" 
d="M565 0h-442q21 38 31.5 78t12 67t1.5 82v1215q0 55 -1.5 82t-12 67t-31.5 78h397q113 0 203 -33t145.5 -88t85 -123t29.5 -143q0 -86 -39 -162.5t-122.5 -132.5t-196.5 -69v-11q146 0 253 -57t159.5 -149.5t52.5 -206.5q0 -92 -32.5 -178t-94.5 -157.5t-165 -115
t-233 -43.5zM291 1589v-647q120 -14 213 -1.5t160.5 42t111 76.5t64 102.5t20.5 120.5q0 180 -149 256t-420 51zM291 860v-778q84 -12 166.5 -8.5t157.5 15.5t139.5 44.5t111.5 79t74 118.5t27 163q0 76 -25 136t-65.5 99t-99 67t-117.5 42t-129 20t-125.5 6t-114.5 -4z" />
    <glyph glyph-name="C" unicode="C" horiz-adv-x="1202" 
d="M741 -31q-128 0 -240 58t-196.5 165.5t-133 274t-48.5 371.5q0 178 30.5 323t84 245t128.5 168t162 99t185 31q176 0 360 -96l-16 -123q-172 119 -340 119q-99 0 -183 -45.5t-149 -136t-102 -240t-37 -344.5q0 -366 137.5 -564t361.5 -198q144 0 308 86l20 -101
q-170 -92 -332 -92z" />
    <glyph glyph-name="D" unicode="D" horiz-adv-x="1306" 
d="M543 0h-420q21 38 31.5 78t12 67t1.5 82v1215q0 55 -1.5 82t-12 67t-31.5 78h416q311 0 479 -195t168 -569q0 -439 -167 -672t-476 -233zM291 1577v-1497q398 -40 585 173t187 665q0 106 -14.5 194t-40 153.5t-64.5 117t-82 86t-98.5 58.5t-109 36t-118.5 17t-121.5 3.5
t-123.5 -6.5z" />
    <glyph glyph-name="E" unicode="E" horiz-adv-x="1144" 
d="M1006 0h-883q21 38 31.5 78t12 67t1.5 82v1215q0 55 -1.5 82t-12 67t-31.5 78h883l16 -164q-219 58 -731 58v-553h530l8 -82h-538v-822q512 0 731 58z" />
    <glyph glyph-name="F" unicode="F" horiz-adv-x="1144" 
d="M336 0h-213q21 38 31.5 78t12 67t1.5 82v1215q0 55 -1.5 82t-12 67t-31.5 78h883l16 -174q-256 68 -731 68v-564h530l8 -81h-538v-691q0 -55 1.5 -82t12 -67t31.5 -78z" />
    <glyph glyph-name="G" unicode="G" horiz-adv-x="1314" 
d="M1192 0h-412q-657 0 -657 803q0 231 47 405.5t133.5 281.5t201 159.5t255.5 52.5q182 0 391 -84l-18 -133q-193 108 -369 108q-88 0 -165 -28.5t-142.5 -90t-112 -152.5t-72.5 -223.5t-26 -295.5q0 -157 30.5 -284t80.5 -208.5t117 -137t136 -78.5t142 -23h266v434
q0 95 -13.5 161.5t-56.5 153.5h244q-31 -64 -41 -129t-10 -166v-317q0 -148 51 -209z" />
    <glyph glyph-name="H" unicode="H" horiz-adv-x="1323" 
d="M336 0h-213q21 38 31.5 78t12 67t1.5 82v1215q0 55 -1.5 82t-12 67t-31.5 78h213q-21 -38 -31.5 -78t-12 -67t-1.5 -82v-481h741v481q0 55 -1.5 82t-12 67t-31.5 78h213q-21 -38 -31.5 -78t-12 -67t-1.5 -82v-1215q0 -55 1.5 -82t12 -67t31.5 -78h-213q21 38 31.5 78
t12 67t1.5 82v654h-741v-654q0 -55 1.5 -82t12 -67t31.5 -78z" />
    <glyph glyph-name="I" unicode="I" horiz-adv-x="458" 
d="M336 0h-213q21 38 31.5 78t12 67t1.5 82v1215q0 55 -1.5 82t-12 67t-31.5 78h213q-21 -38 -31.5 -78t-12 -67t-1.5 -82v-1215q0 -55 1.5 -82t12 -67t31.5 -78z" />
    <glyph glyph-name="J" unicode="J" horiz-adv-x="1050" 
d="M492 -39q-97 0 -195 33.5t-174 91.5l39 90q162 -115 323 -115q123 0 199 80t76 242v1059q0 55 -1.5 82t-12 67t-31.5 78h213q-21 -38 -31.5 -78t-12 -67t-1.5 -82v-1030q0 -119 -32 -209t-88 -141t-124 -76t-147 -25z" />
    <glyph glyph-name="K" unicode="K" horiz-adv-x="1179" 
d="M336 0h-213q21 38 31.5 78t12 67t1.5 82v1215q0 55 -1.5 82t-12 67t-31.5 78h213q-21 -38 -31.5 -78t-12 -67t-1.5 -82v-549q113 0 201.5 49.5t157.5 141t143 243.5q67 138 122 342h123q-61 -198 -127.5 -340.5t-142 -234t-155.5 -142t-177 -71.5v-15q96 0 171 -11.5
t141.5 -39t110 -79.5t61.5 -126l90 -383q24 -104 84 -227h-213q30 69 14 158l-66 377q-10 57 -35 102.5t-55 75.5t-78 53t-86 35t-97 21t-93.5 12t-93.5 6v-613q0 -55 1.5 -82t12 -67t31.5 -78z" />
    <glyph glyph-name="L" unicode="L" horiz-adv-x="1136" 
d="M973 0h-846q15 37 20.5 53t13 63.5t7.5 110.5v1215q0 55 -1.5 82t-12 67t-31.5 78h213q-21 -38 -31.5 -78t-12 -67t-1.5 -82v-1336h172q105 0 170 2t173 15.5t208 40.5z" />
    <glyph glyph-name="M" unicode="M" horiz-adv-x="1572" 
d="M336 0h-213q21 38 31.5 78t12 67t1.5 82l2 1215q0 103 -10 145q-11 45 -35 82h123q57 0 78.5 -19t46.5 -73l409 -924l426 920q21 45 56 70.5t79 25.5h107q-7 -11 -13 -23t-10.5 -22t-8 -24t-5.5 -21.5t-3.5 -23.5t-2.5 -21.5t-1.5 -24t-0.5 -21.5v-23.5v-22.5l-2 -1215
q0 -55 1.5 -82t12 -67t31.5 -78h-213q21 38 31.5 78t12 67t1.5 82v1291l-477 -1043h-41l-471 1043v-1291q0 -55 1.5 -82t12 -67t31.5 -78z" />
    <glyph glyph-name="N" unicode="N" horiz-adv-x="1388" 
d="M336 0h-213q21 38 31.5 78t12 67t1.5 82v1166q0 195 -41 276h98q86 0 127.5 -34.5t85.5 -133.5l639 -1413v1354q0 55 -1.5 82t-12 67t-31.5 78h213q-21 -38 -31.5 -78t-12 -67t-1.5 -82v-1215q0 -55 1.5 -82t12 -67t31.5 -78h-88q-52 0 -87 9.5t-70.5 38t-67 79.5
t-68.5 135l-573 1307v-1342q0 -55 1.5 -82t12 -67t31.5 -78z" />
    <glyph glyph-name="O" unicode="O" horiz-adv-x="1337" 
d="M670 -35q-135 0 -240.5 66t-172 183t-100.5 273t-34 342q0 426 136.5 649.5t410.5 223.5t410.5 -223.5t136.5 -649.5q0 -186 -34 -342t-100.5 -273t-172 -183t-240.5 -66zM670 88q19 0 36 1t49.5 8.5t60 20.5t63.5 39.5t64.5 62.5t58 93t48.5 128t31.5 170.5t12.5 217.5
q0 147 -14.5 264t-43 198t-65.5 138t-86.5 89.5t-101 46.5t-113.5 14q-74 0 -133.5 -19.5t-115 -71.5t-93 -134.5t-60 -215.5t-22.5 -309q0 -118 11.5 -217.5t30 -170.5t47 -128t56 -93t63 -62.5t62.5 -39.5t61 -20.5t52 -8.5t41 -1z" />
    <glyph glyph-name="P" unicode="P" horiz-adv-x="1212" 
d="M336 0h-213q21 38 31.5 78t12 67t1.5 82v1215q0 153 -41 227h453q271 0 401.5 -135.5t130.5 -380.5q0 -135 -41.5 -242.5t-111 -173t-153.5 -99.5t-175 -34q-97 0 -185 39t-147 111h-8v-527q0 -55 1.5 -82t12 -67t31.5 -78zM604 678q75 0 142.5 30t122.5 87t87.5 152
t32.5 214q0 71 -14 129.5t-34.5 101.5t-60 76t-72 54.5t-90.5 36.5t-96.5 22t-108 11t-107 4.5t-111.5 0.5h-4v-757q57 -78 140 -120t173 -42z" />
    <glyph glyph-name="Q" unicode="Q" horiz-adv-x="1331" 
d="M1227 51l-41 -172q-118 47 -216.5 66t-258.5 22q-12 -2 -41 -2q-135 0 -240.5 66t-172 183t-100.5 273t-34 342q0 426 136.5 649.5t410.5 223.5t410.5 -223.5t136.5 -649.5q0 -269 -70.5 -473.5t-206.5 -304.5h287zM670 88q19 0 36 1t49.5 8.5t60 20.5t63.5 39.5
t64.5 62.5t58 93t48.5 128t31.5 170.5t12.5 217.5q0 147 -14.5 264t-43 198t-65.5 138t-86.5 89.5t-101 46.5t-113.5 14q-74 0 -133.5 -19.5t-115 -71.5t-93 -134.5t-60 -215.5t-22.5 -309q0 -118 11.5 -217.5t30 -170.5t47 -128t56 -93t63 -62.5t62.5 -39.5t61 -20.5
t52 -8.5t41 -1z" />
    <glyph glyph-name="R" unicode="R" horiz-adv-x="1153" 
d="M336 0h-213q21 38 31.5 78t12 67t1.5 82v1215q0 153 -41 227h440q111 0 200 -34t144 -91.5t84 -128.5t29 -149t-31 -152.5t-87 -135t-144.5 -99.5t-194.5 -45v-7q99 -14 172 -48.5t116.5 -87t71 -112.5t44 -136t28 -145t30 -152t42.5 -146h-199q19 103 -4 375
q-36 418 -465 418h-112v-566q0 -55 1.5 -82t12 -67t31.5 -78zM291 1604v-723h84q141 0 248.5 33t169 88.5t92 121.5t30.5 140q0 66 -24.5 126.5t-70.5 108.5t-119 76.5t-164 28.5h-246z" />
    <glyph glyph-name="S" unicode="S" horiz-adv-x="1228" 
d="M608 -27q-150 0 -289.5 63t-236.5 185l41 115q96 -128 225 -192t262 -64q173 0 293.5 99t120.5 263q0 75 -30 140.5t-81.5 115t-117.5 94.5t-139.5 84t-146.5 78t-139 82t-117.5 89.5t-81.5 107.5t-30 131q0 85 39.5 151t108.5 106t158 60.5t192 20.5q204 0 405 -72
l-8 -137q-70 48 -175.5 75t-213.5 27q-104 0 -188 -23.5t-139.5 -77t-55.5 -130.5q0 -53 30 -101t81.5 -87t117.5 -76.5t139.5 -75.5t146.5 -78.5t139 -90.5t117.5 -106t81.5 -131t30 -161q0 -114 -45 -207t-120.5 -153t-171.5 -92t-202 -32z" />
    <glyph glyph-name="T" unicode="T" horiz-adv-x="1302" 
d="M758 0h-213q21 38 31.5 78t12 67t1.5 82v1354q-265 -4 -467 -57l10 145h1036l11 -145q-202 53 -467 57v-1354q0 -55 1.5 -82t12 -67t31.5 -78z" />
    <glyph glyph-name="U" unicode="U" horiz-adv-x="1286" 
d="M641 -35q-131 0 -225 37t-147 105t-77 152t-24 190v993q0 55 -1.5 82t-12 67t-31.5 78h213q-21 -38 -31.5 -78t-12 -67t-1.5 -82v-1059q0 -102 52 -177t131 -110t171 -35q91 0 169.5 35t130.5 110t52 177l-2 1059q0 55 -1.5 82t-12 67t-31.5 78h213q-21 -38 -31.5 -78
t-12 -67t-1.5 -82v-993q0 -83 -15 -153t-49.5 -132t-88.5 -105.5t-136.5 -68.5t-187.5 -25z" />
    <glyph glyph-name="V" unicode="V" horiz-adv-x="1347" 
d="M799 0h-252q10 64 6.5 114t-27.5 140l-293 1096q-31 120 -56.5 178.5t-74.5 140.5h187l389 -1532l401 1532h166q-57 -94 -78.5 -147.5t-54.5 -175.5l-291 -1092q-25 -96 -30 -140t8 -114z" />
    <glyph glyph-name="W" unicode="W" horiz-adv-x="2156" 
d="M819 0h-272q6 35 5.5 74t-3.5 69t-13 74.5t-15.5 66.5t-19.5 71l-18 63l-268 979q-41 151 -113 272h203q-3 -35 2 -100t17 -111l372 -1337l242 1153q3 12 12 54t12.5 59.5t10 55t7.5 60.5t2 54.5t-3.5 58.5t-13.5 53h256q-10 -37 -12 -81.5t5 -100.5t15.5 -99.5
t23.5 -113.5l246 -1153l354 1337q11 47 16.5 112.5t2.5 98.5h182q-35 -61 -56 -117t-48 -155l-260 -979q-4 -15 -17.5 -63.5t-18.5 -68.5t-13.5 -63t-10.5 -72.5t-1.5 -70t7.5 -80.5h-278q2 86 -8.5 206t-30.5 212l-225 1040l-220 -1040q-55 -267 -55 -418z" />
    <glyph glyph-name="X" unicode="X" horiz-adv-x="1456" 
d="M311 0h-219q125 134 215 274l371 572l-385 596q-117 180 -164 227h209q-3 -13 0 -31.5t15 -46t22 -49t33.5 -62t36.5 -62t43 -71.5t42 -69l213 -352l236 366q71 110 123.5 221.5t46.5 155.5h215q-24 -17 -59.5 -60t-57.5 -77l-438 -688l438 -682q5 -8 21.5 -33t27 -40.5
t29.5 -40.5t39 -48h-215q-8 65 -42.5 142.5t-131.5 242.5l-232 395l-247 -395q-73 -117 -121.5 -225t-63.5 -160z" />
    <glyph glyph-name="Y" unicode="Y" horiz-adv-x="1372" 
d="M793 0h-213q21 38 31.5 78t12 67t1.5 82v443l-404 776q-60 114 -131 223h176q0 -17 5 -38.5t10.5 -39t16.5 -42.5l16.5 -37.5t17 -35t12.5 -24.5l342 -666l342 666q2 5 14 28t15 29t12.5 26t13 28.5t9.5 25.5t8 28t3.5 25t0.5 27h178q-56 -80 -131 -223l-403 -776v-443
q0 -55 1.5 -82t12 -67t31.5 -78z" />
    <glyph glyph-name="Z" unicode="Z" horiz-adv-x="1271" 
d="M1137 0h-1043l901 1585h-403q-300 0 -500 -84l23 168h1044l-899 -1581h412q169 0 278.5 22.5t210.5 88.5z" />
    <glyph glyph-name="bracketleft" unicode="[" horiz-adv-x="851" 
d="M729 -125h-606v1907h606v-82h-483v-1743h483v-82z" />
    <glyph glyph-name="backslash" unicode="\" horiz-adv-x="796" 
d="M205 1669l469 -1864h-82l-469 1864h82z" />
    <glyph glyph-name="bracketright" unicode="]" horiz-adv-x="851" 
d="M729 1782v-1907h-606v82h483v1743h-483v82h606z" />
    <glyph glyph-name="asciicircum" unicode="^" horiz-adv-x="1146" 
d="M246 707h-123l450 675h9l442 -675h-123l-313 477h-23z" />
    <glyph glyph-name="underscore" unicode="_" horiz-adv-x="1024" 
d="M901 -102h-778v82h778v-82z" />
    <glyph glyph-name="a" unicode="a" horiz-adv-x="1214" 
d="M481 -31q-146 0 -252 96t-106 254q0 91 39 165.5t104.5 121t146 71.5t167.5 25q104 0 198.5 -36t159.5 -103q-125 88 -303 88q-76 0 -143.5 -19.5t-123.5 -58.5t-89 -104.5t-33 -149.5q0 -126 72 -197t180 -71q137 0 264.5 132.5t175.5 351.5v331q0 119 -87 195t-220 76
q-167 0 -346 -131l-29 92q180 123 389 123q114 0 206.5 -40.5t151 -127t58.5 -205.5v-731q0 -84 61 -117h-100q-41 0 -62.5 23.5t-21.5 62.5v301h-4q-25 -105 -73.5 -187.5t-110 -131.5t-130 -74t-139.5 -25z" />
    <glyph glyph-name="b" unicode="b" horiz-adv-x="1241" 
d="M655 -35q-109 0 -201.5 67t-142.5 191h-4q0 -36 -1.5 -62.5t-8 -60t-18.5 -54.5t-34 -35.5t-52 -14.5h-70q38 51 49.5 93.5t11.5 107.5v1280q0 64 -9.5 95.5t-35.5 59.5q59 0 104 21.5t64 50.5v-733q67 122 167 185t210 63q87 0 168 -39.5t145.5 -112t103 -187
t38.5 -253.5q0 -156 -43 -285.5t-113 -209.5t-155 -123.5t-173 -43.5zM649 70q71 0 137.5 37.5t118.5 106.5t83.5 176.5t31.5 236.5q0 228 -99 363.5t-241 135.5q-103 0 -200.5 -76t-172.5 -239v-438q56 -149 147.5 -226t194.5 -77z" />
    <glyph glyph-name="c" unicode="c" horiz-adv-x="1042" 
d="M608 -31q-221 0 -363.5 172t-142.5 467q0 143 40 260.5t108.5 195t160.5 119.5t197 42q201 0 396 -146l-35 -131q-175 172 -363 172q-164 0 -272.5 -137t-108.5 -375q0 -259 106 -400.5t281 -141.5q203 0 430 184v-121q-220 -160 -434 -160z" />
    <glyph glyph-name="d" unicode="d" horiz-adv-x="1226" 
d="M592 -33q-92 0 -177.5 37.5t-156.5 110.5t-113.5 196t-42.5 279q0 128 29.5 233t78 175t114 118t135 69t143.5 21q115 0 210.5 -50t137.5 -138h11v459q0 63 -9.5 95t-36.5 60q59 0 104 21.5t64 50.5v-1503q0 -68 17.5 -117t64.5 -84h-63q-64 0 -102.5 55.5t-38.5 110.5
h-11q-53 -94 -150 -146.5t-208 -52.5zM610 43q107 0 204 60t147 161v656q-43 83 -145.5 138.5t-215.5 55.5q-74 0 -138.5 -28t-119 -86.5t-86 -163.5t-31.5 -246t32.5 -249.5t88 -171.5t122.5 -94.5t142 -31.5z" />
    <glyph glyph-name="e" unicode="e" horiz-adv-x="1277" 
d="M748 -41q-128 0 -245 46t-206 128.5t-142 207t-53 271.5q0 266 157 436.5t413 170.5q116 0 213 -30.5t159.5 -81.5t97 -115t34.5 -132q0 -72 -38 -137t-112 -118.5t-198.5 -85.5t-282.5 -32q-162 0 -316 60q102 -10 183 -10q162 0 288.5 28.5t200.5 76t111 104t37 118.5
q0 106 -100 183t-263 77q-65 0 -129 -18.5t-124.5 -59t-106 -99t-73.5 -145t-28 -190.5q0 -124 44 -229t118 -174.5t171 -108.5t204 -39q218 0 409 154l29 -100q-210 -156 -452 -156z" />
    <glyph glyph-name="f" unicode="f" horiz-adv-x="710" 
d="M449 0h-213q21 38 31.5 78t12 67t1.5 82l2 729q0 42 -5.5 70t-13 44.5t-26.5 29.5t-34 19t-48 18t-56 22v25q140 -35 248 -35q64 0 119 12v13h-21q-163 0 -267.5 80t-104.5 192q0 70 32 122.5t86 81.5t116.5 42.5t133.5 13.5q129 0 217 -37v-123q-122 47 -229 47
q-118 0 -187 -55t-69 -131q0 -36 16.5 -70t52 -64t86.5 -52t125.5 -32t163.5 -5v-25q-108 0 -159 -42t-51 -161l-5 -729q0 -53 2 -81.5t12.5 -68t31.5 -77.5z" />
    <glyph glyph-name="g" unicode="g" horiz-adv-x="1267" 
d="M582 -377q-154 0 -295 34.5t-232 96.5l11 121q94 -72 238 -110.5t298 -38.5q135 0 248.5 29t189 93t80.5 152q6 106 -68 186.5t-195.5 121t-268.5 40.5q-200 0 -377 -76v93q124 50 278 59q-193 34 -294 138.5t-101 236.5q0 76 34 148t96 129.5t159.5 93t214.5 36.5
q170 42 291 89.5t229 119.5l23 -166q-57 -12 -177 -31t-192 -34q166 -42 255 -145.5t89 -227.5q0 -133 -100.5 -241t-284.5 -142q235 -29 370 -140t122 -294q-7 -94 -63.5 -167t-147.5 -116.5t-200.5 -65.5t-229.5 -22zM606 500q184 0 285.5 92.5t101.5 220.5
q0 130 -103 226t-284 96q-95 0 -171.5 -27.5t-124 -73t-72.5 -102t-25 -117.5t25 -116.5t72 -100t124 -71.5t172 -27z" />
    <glyph glyph-name="h" unicode="h" horiz-adv-x="1286" 
d="M336 0h-213q21 38 31.5 78t12 67t1.5 82v1248q0 64 -9.5 95.5t-35.5 59.5q59 0 104 21.5t64 50.5v-830h8q53 170 176 259.5t266 89.5q75 0 142.5 -25t120 -71t83.5 -118t31 -161v-619q0 -55 1.5 -82t12 -67t31.5 -78h-213q21 38 31.5 78t12 67t1.5 82v629q0 135 -78 212
t-192 77q-140 0 -264.5 -109.5t-169.5 -312.5v-496q0 -55 1.5 -82t12 -67t31.5 -78z" />
    <glyph glyph-name="i" unicode="i" horiz-adv-x="458" 
d="M219 1415q-38 0 -66 28t-28 66q0 37 28 65t66 28q37 0 64.5 -28t27.5 -65q0 -38 -27.5 -66t-64.5 -28zM336 0h-213q21 38 31.5 78t12 67t1.5 82v791q0 64 -9.5 96t-35.5 60q59 0 104 21t64 50v-1018q0 -55 1.5 -82t12 -67t31.5 -78z" />
    <glyph glyph-name="j" unicode="j" horiz-adv-x="495" 
d="M258 1458q-36 0 -62 24.5t-26 59.5t26 59.5t62 24.5t62 -24.5t26 -59.5t-26 -59.5t-62 -24.5zM-346 -319l14 122q53 -60 114.5 -96.5t120 -47t113 3.5t95.5 49.5t65.5 97t24.5 141.5v1040q0 64 -9.5 96t-35.5 60q59 0 104 21.5t64 50.5v-1219q0 -114 -31 -202.5
t-82.5 -141t-119.5 -79t-142 -22t-151 36t-144 89.5z" />
    <glyph glyph-name="k" unicode="k" horiz-adv-x="1159" 
d="M336 0h-213q21 38 31.5 78t12 67t1.5 82v1250q0 64 -9.5 95.5t-35.5 59.5q59 0 104 21.5t64 50.5v-1006q81 37 198.5 118t229.5 185.5t149 182.5h158q-68 -83 -144.5 -155.5t-160 -133t-145 -100t-146.5 -88.5v-7q66 16 120 11t104 -35t89.5 -71t78 -96.5t69 -112
t61.5 -117t57 -112t54.5 -97t54.5 -70.5h-178q-130 288 -167 359q-107 205 -208 270q-117 75 -274 6v-408q0 -55 1.5 -82t12 -67t31.5 -78z" />
    <glyph glyph-name="l" unicode="l" horiz-adv-x="458" 
d="M336 0h-213q21 38 31.5 78t12 67t1.5 82v1243q0 64 -9.5 96t-35.5 60q59 0 104 21.5t64 50.5v-1471q0 -55 1.5 -82t12 -67t31.5 -78z" />
    <glyph glyph-name="m" unicode="m" horiz-adv-x="2113" 
d="M336 0h-213q21 38 31.5 78t12 67t1.5 82v764q0 64 -9.5 96t-35.5 60q59 0 104 21.5t64 50.5v-347h8q30 157 155.5 252t288.5 95q80 0 147 -23t118.5 -68t80.5 -117t29 -165v26h8q30 157 156 252t289 95q80 0 147 -23t118.5 -68t80.5 -117t29 -165v-619q0 -55 1.5 -82
t12 -67t31.5 -78h-213q21 38 31.5 78t12 67t1.5 82v619q0 156 -110 235q-97 69 -230 47q-145 -24 -244 -144q-121 -148 -121 -384v-373q0 -55 1.5 -82t12 -67t31.5 -78h-213q21 38 31.5 78t12 67t1.5 82v662q0 138 -106 207q-97 64 -230 39q-148 -28 -248 -151
q-120 -149 -120 -384v-373q0 -55 1.5 -82t12 -67t31.5 -78z" />
    <glyph glyph-name="n" unicode="n" horiz-adv-x="1286" 
d="M336 0h-213q21 38 31.5 78t12 67t1.5 82v764q0 64 -9.5 96t-35.5 60q59 0 104 21.5t64 50.5v-347h8q53 170 176 259.5t266 89.5q75 0 142.5 -25t120 -71t83.5 -118t31 -161v-619q0 -55 1.5 -82t12 -67t31.5 -78h-213q21 38 31.5 78t12 67t1.5 82v629q0 135 -78 212
t-192 77q-140 0 -264.5 -109.5t-169.5 -312.5v-496q0 -55 1.5 -82t12 -67t31.5 -78z" />
    <glyph glyph-name="o" unicode="o" horiz-adv-x="1247" 
d="M625 -27q-69 0 -139 20.5t-140 68.5t-123.5 118t-87 178t-33.5 240q0 131 33.5 238.5t87 176.5t123.5 116.5t139.5 67.5t139.5 20q69 0 138.5 -20t139 -67.5t122.5 -116.5t86.5 -176.5t33.5 -238.5q0 -132 -33.5 -240t-86.5 -178t-122.5 -118t-139 -68.5t-138.5 -20.5z
M625 55q41 0 84.5 12.5t88.5 38.5t85 70.5t71 102t49.5 140t18.5 179.5q0 117 -26.5 211.5t-67.5 153.5t-95 99t-106 56.5t-102 16.5q-42 0 -85.5 -12t-89 -36.5t-85.5 -68t-71.5 -100.5t-50 -139.5t-18.5 -180.5q0 -115 26.5 -210t68 -155t95.5 -101.5t106.5 -59
t103.5 -17.5z" />
    <glyph glyph-name="p" unicode="p" horiz-adv-x="1224" 
d="M336 -449h-213q21 38 31.5 78t12 67.5t1.5 82.5v1212q0 64 -9.5 96t-35.5 60q59 0 104 21.5t64 50.5v-228q67 107 166.5 164t206.5 57q88 0 169 -38t146 -109.5t104 -186.5t39 -257q0 -183 -68.5 -329.5t-189 -229t-270.5 -82.5q-146 0 -291 77h-12v-278q0 -55 1.5 -82.5
t12 -67.5t31.5 -78zM596 41q102 0 186 51t136.5 135.5t81 188t28.5 213.5q0 117 -32.5 213t-87.5 157.5t-125 95t-146 33.5q-98 0 -189.5 -55.5t-156.5 -165.5v-768q161 -98 305 -98z" />
    <glyph glyph-name="q" unicode="q" horiz-adv-x="1257" 
d="M967 -518v725h-11q-66 -119 -164 -180.5t-208 -61.5q-91 0 -176.5 42.5t-154 120.5t-110 203t-41.5 277q0 294 136 452.5t424 158.5q74 0 157.5 -15t142 -14.5t130.5 31.5l-2 -1512q0 -64 9.5 -95.5t35.5 -59.5q-59 0 -104 -21.5t-64 -50.5zM621 31q116 0 212.5 74
t135.5 204v787q-91 31 -201 41q-75 6 -143.5 -1t-144 -39.5t-130 -89t-90 -159t-35.5 -240.5q0 -117 22.5 -214.5t60.5 -163.5t89.5 -111.5t107.5 -66.5t116 -21z" />
    <glyph glyph-name="r" unicode="r" horiz-adv-x="868" 
d="M336 0h-213q21 38 31.5 78t12 67t1.5 82v764q0 64 -9.5 96t-35.5 60q59 0 104 21.5t64 50.5v-424h14q70 264 213.5 370t341.5 11l-41 -123q-95 49 -173 43t-138 -47t-104.5 -116t-72 -164t-40.5 -191v-351q0 -55 1.5 -82t12 -67t31.5 -78z" />
    <glyph glyph-name="s" unicode="s" horiz-adv-x="1204" 
d="M139 84l25 123q161 -82 314.5 -109.5t265 -3t180 94t69.5 171.5q1 59 -29 100t-81 63t-117.5 35t-140 21.5t-147 18.5t-139.5 29t-117 49t-80.5 84t-28.5 129q1 89 52 155.5t131 102t181.5 52t203.5 10t197 -29.5t162 -61l-16 -123q-100 57 -236.5 81t-258 12.5t-208 -70
t-88.5 -154.5q-1 -59 30 -98.5t83.5 -59.5t121 -32t143.5 -19.5t150 -17t141.5 -31t116.5 -55t76.5 -94t20.5 -144.5q-7 -99 -73 -175.5t-170 -115.5t-227.5 -49.5t-257.5 18.5t-249 93z" />
    <glyph glyph-name="t" unicode="t" horiz-adv-x="839" 
d="M541 -35q-64 0 -119.5 20t-101.5 60t-72.5 109t-26.5 159v686q0 148 -139 185q60 20 106 66t71.5 99t41 117t20.5 111.5t5 91.5h18l-2 -485h401v-129q-72 29 -161.5 41t-239.5 12l2 -778q0 -140 56 -203.5t143 -63.5q64 0 130.5 27.5t114.5 67.5l21 -99q-52 -44 -123 -69
t-145 -25z" />
    <glyph glyph-name="u" unicode="u" horiz-adv-x="1302" 
d="M555 -35q-106 0 -192.5 42t-140.5 128.5t-54 204.5v651q0 64 -9.5 96t-35.5 60q59 0 104 21.5t64 50.5v-889q0 -147 73.5 -221t204.5 -74q69 0 136.5 30t126.5 85t103 142.5t60 194.5v504q0 64 -9.5 96t-35.5 60q59 0 104 21.5t64 50.5v-1069q0 -62 16 -92.5t66 -57.5
h-98q-52 0 -79.5 34t-27.5 91v242h-8q-35 -182 -152.5 -292t-279.5 -110z" />
    <glyph glyph-name="v" unicode="v" horiz-adv-x="1085" 
d="M657 0h-233q5 27 -4 84.5t-21 97.5l-256 822q-28 94 -82 180h166q-9 -57 21 -154l295 -975l309 975q29 92 29 154h143q-57 -98 -82 -180l-248 -793q-19 -58 -31 -120t-6 -91z" />
    <glyph glyph-name="w" unicode="w" horiz-adv-x="1757" 
d="M618 0h-188q2 7 2 15.5t-1.5 20t-3.5 22t-6 25t-7 25t-8 27t-8 26t-9 26.5t-8 24l-254 793q-2 7 -13.5 51.5t-23 73t-29.5 55.5h160q-4 -94 15 -154l292 -917l279 858q16 57 15 114.5t-15 98.5h162q-39 -117 -6 -213l278 -826l279 885q18 57 14 154h162q-39 -65 -74 -180
l-254 -793q-2 -7 -8 -24t-9 -26.5t-8 -26t-8 -27t-7 -25t-6 -25t-3.5 -22t-1.5 -20t2 -15.5h-162q2 7 2 18.5t-1 22t-5 27t-7 27.5t-9.5 30.5t-9.5 29t-10 30t-9 26.5l-221 674l-219 -674q-1 -4 -8 -23.5t-9 -26.5t-8 -25.5t-8.5 -27.5t-7 -25t-6 -25.5t-3.5 -21.5t-2 -20.5
t2 -15.5z" />
    <glyph glyph-name="x" unicode="x" horiz-adv-x="1243" 
d="M276 0h-186q45 34 77 65.5t47.5 51.5t39.5 57l276 416l-276 411q-28 41 -45.5 65t-52 60.5t-66.5 57.5h186l326 -506l332 506h176q-25 -16 -47.5 -37t-47 -51.5t-34.5 -45t-35 -49.5l-291 -411l312 -416q3 -4 16 -21.5t18 -24t17.5 -22.5t20 -24t20 -21.5t22.5 -22.5
t23 -19.5t26 -18.5h-196l-332 502z" />
    <glyph glyph-name="y" unicode="y" horiz-adv-x="1144" 
d="M53 -346l-12 123q123 -29 210.5 -35.5t145 5t96 48.5t59.5 83.5t38 121.5l14 61h-117l-333 943q-41 120 -82 180h182q-9 -87 16 -154l340 -946l230 946q21 88 10 154h180q-36 -52 -67 -180l-250 -1004q-23 -92 -58 -159t-89 -116t-126 -71.5t-169 -24.5t-218 25z" />
    <glyph glyph-name="z" unicode="z" horiz-adv-x="1218" 
d="M1085 0h-987l797 1112q-634 11 -780 -51l10 123h971l-793 -1118q94 -4 195 -4.5t224.5 3.5t224.5 18.5t149 39.5z" />
    <glyph glyph-name="braceleft" unicode="{" horiz-adv-x="925" 
d="M803 -57v-82q-177 0 -291 33.5t-187.5 116.5t-104 215t-30.5 337q0 226 -67 260q41 21 54 76t13 184q0 205 30.5 337t104 215.5t187.5 117t291 33.5v-82q-76 0 -139.5 -10t-110.5 -26t-84.5 -42.5t-62.5 -53.5t-42.5 -66t-27 -72.5t-15 -80t-7 -82t-1.5 -85.5
q0 -48 9 -100.5t18 -85t11.5 -65.5t-8.5 -52.5t-44 -35t-94 -24.5q60 -8 94 -26.5t44.5 -41.5t8.5 -56.5t-11.5 -65t-18.5 -75t-9 -77.5q0 -50 1.5 -86t7 -84t15 -83t27.5 -75.5t42.5 -69t62 -57t84.5 -45.5t110.5 -27.5t139.5 -10.5z" />
    <glyph glyph-name="bar" unicode="|" horiz-adv-x="327" 
d="M205 0h-82v1669h82v-1669z" />
    <glyph glyph-name="braceright" unicode="}" horiz-adv-x="925" 
d="M123 -139v82q97 0 174 17.5t127.5 44t87 71t55.5 86t29.5 102.5t13 106.5t2.5 110.5q0 34 -9 77.5t-18 75t-11 65t8.5 56.5t44.5 41.5t94 26.5q-52 7 -84 19t-46 30t-17 38.5t2.5 51.5t13.5 61t15 75.5t7 87.5q0 50 -1.5 85t-6.5 82t-15 80.5t-27.5 72.5t-42.5 66
t-62 53.5t-84 42.5t-110.5 26t-139.5 10v82q177 0 291 -33.5t187.5 -117t103.5 -215.5t30 -337q0 -128 13.5 -183.5t54.5 -76.5q-68 -35 -68 -260q0 -205 -30 -337t-103.5 -215t-187.5 -116.5t-291 -33.5z" />
    <glyph glyph-name="asciitilde" unicode="~" horiz-adv-x="1306" 
d="M954 387q-64 0 -130.5 40.5t-121 97.5t-106.5 114.5t-105.5 98t-99.5 40.5q-44 0 -74.5 -11.5t-56 -42t-37.5 -89.5t-12 -148l-88 -2q0 66 7 118.5t26 101.5t49.5 81.5t80.5 52t117 19.5q53 0 118 -40.5t124.5 -98t117 -114.5t111.5 -97.5t91 -40.5q49 0 85.5 87.5
t36.5 240.5l97 -19q0 -71 -11.5 -136t-37 -124t-72 -94t-109.5 -35z" />
    <glyph glyph-name="exclamdown" unicode="&#xa1;" horiz-adv-x="473" 
d="M236 1307q49 0 81.5 -32.5t32.5 -80.5q0 -50 -32.5 -82.5t-81.5 -32.5q-48 0 -80.5 33t-32.5 82q0 47 33 80t80 33zM215 864h41q-11 -93 20 -554t31 -564q0 -176 -61 -176q-62 0 -62 176q0 85 21 553.5t10 564.5z" />
    <glyph glyph-name="cent" unicode="&#xa2;" horiz-adv-x="1185" 
d="M453 -143h-82l39 163q-133 69 -210 221.5t-77 366.5q0 143 40 260.5t108.5 195t160.5 119.5t197 42q21 0 71 -4l33 133h82l-37 -150q130 -36 246 -125l-35 -131q-112 110 -235 152l-246 -1014q123 -45 270 4t285 160v-121q-297 -216 -578 -139zM436 125l240 991
q-132 17 -231 -48t-149 -185.5t-50 -274.5q0 -177 49.5 -299.5t140.5 -183.5z" />
    <glyph glyph-name="sterling" unicode="&#xa3;" horiz-adv-x="1341" 
d="M1219 0h-1004q135 366 135 778h-227v82h225q0 47 -8 141q-21 210 12.5 355t101 218t177.5 103t218 24.5t247 -32.5v-123q-120 37 -215 48t-160.5 -2.5t-113.5 -47.5t-74.5 -86t-43.5 -117.5t-20.5 -143.5t-5.5 -162.5t2 -174.5h366v-82h-366q2 -219 -20 -385t-93 -295
q26 -5 146 -1.5t253.5 10t262.5 29.5t174 57z" />
    <glyph glyph-name="currency" unicode="&#xa4;" horiz-adv-x="1128" 
d="M303 297l-123 -123l-57 57l123 123q-94 113 -94 260q0 150 94 263l-123 122l57 58l123 -123q111 96 260 96q151 0 262 -96l123 123l58 -58l-123 -122q96 -111 96 -263q0 -149 -94 -262l121 -121l-58 -57l-121 121q-113 -90 -260 -90q-146 0 -264 92zM565 295
q135 0 227.5 92.5t92.5 226.5q0 135 -93 227.5t-227 92.5q-135 0 -227 -93t-92 -227q0 -135 92.5 -227t226.5 -92z" />
    <glyph glyph-name="yen" unicode="&#xa5;" horiz-adv-x="1277" 
d="M705 0h-123v514h-430v82h430v188h-430v82h383l-412 803h164l354 -762h25l348 762h141l-407 -803h360v-82h-403v-188h403v-82h-403v-514z" />
    <glyph glyph-name="brokenbar" unicode="&#xa6;" horiz-adv-x="327" 
d="M205 967h-82v702h82v-702zM205 0h-82v700h82v-700z" />
    <glyph glyph-name="section" unicode="&#xa7;" horiz-adv-x="1310" 
d="M684 20q-274 0 -534 148l14 156q130 -102 273.5 -149.5t279.5 -47.5q150 0 253 48.5t103 111.5q0 66 -48.5 111t-126 68.5t-171 40.5t-187 36t-171 47t-126 81.5t-48.5 131.5q0 63 32.5 119.5t83.5 91.5q-188 77 -188 227q0 105 74.5 183.5t197 117.5t273.5 39
q277 0 520 -123l-37 -153q-72 73 -218 117t-298 44q-108 0 -193 -22.5t-140.5 -74.5t-55.5 -128q0 -30 15 -54t44.5 -41.5t66 -31t85.5 -24.5t96.5 -19.5t106.5 -17.5q9 -1 14 -2q69 -10 108.5 -16.5t101.5 -19t98.5 -25t80.5 -32t68 -42t40.5 -54t16.5 -69.5
q0 -85 -47.5 -153.5t-128.5 -115.5q174 -70 174 -217q0 -116 -144.5 -201.5t-357.5 -85.5zM905 557q67 23 112.5 73t45.5 113q0 55 -47 93.5t-128 59.5t-163 34t-181 27.5t-153 29.5q-102 -68 -102 -147q0 -54 28.5 -94t71.5 -63.5t111 -43t128 -29.5t142 -25t135 -28z" />
    <glyph glyph-name="copyright" unicode="&#xa9;" horiz-adv-x="1966" 
d="M983 -35q-184 0 -345.5 68.5t-273.5 186t-176.5 277t-64.5 337.5q0 177 64.5 336t176.5 276t273.5 185.5t345.5 68.5t345.5 -68.5t273.5 -185.5t176.5 -276t64.5 -336q0 -178 -64.5 -337.5t-176.5 -277t-273.5 -186t-345.5 -68.5zM983 72q216 0 384.5 103t258.5 276
t90 383q0 156 -53 295t-147 241.5t-232.5 162.5t-300.5 60t-300.5 -60t-232.5 -162.5t-147 -241.5t-53 -295q0 -210 90 -383t258.5 -276t384.5 -103zM1020 315q-161 0 -261 146.5t-100 380.5q0 233 95 370.5t254 137.5q103 0 217 -60l-11 -123q-110 64 -194 64
q-114 0 -176 -103.5t-62 -285.5q0 -178 74.5 -287t194.5 -109q75 0 161 50l13 -123q-107 -58 -205 -58z" />
    <glyph glyph-name="ordfeminine" unicode="&#xaa;" horiz-adv-x="782" 
d="M313 770q-82 0 -141 54t-59 143q0 100 76.5 157.5t179.5 57.5q126 0 200 -80q-66 51 -170 51q-90 0 -154.5 -47t-64.5 -139q0 -71 41 -111.5t101 -40.5q77 0 148.5 74t98.5 198v187q0 66 -49 108.5t-123 42.5q-90 0 -194 -73l-17 51q103 70 220 70q99 0 166 -55.5
t67 -155.5v-410q0 -48 35 -66h-58q-47 0 -47 50v168h-2q-26 -115 -98 -174.5t-156 -59.5z" />
    <glyph glyph-name="guillemotleft" unicode="&#xab;" horiz-adv-x="1579" 
d="M799 328v-82l-676 409v9l676 401v-82l-545 -324v-2zM1456 328v-82l-676 409v9l676 401v-82l-545 -324v-2z" />
    <glyph glyph-name="uni00AD" unicode="&#xad;" horiz-adv-x="696" 
d="M573 600h-450v82h450v-82z" />
    <glyph glyph-name="registered" unicode="&#xae;" horiz-adv-x="1173" 
d="M586 770q-111 0 -201 40t-146 106.5t-86 149t-30 171.5q0 88 30 170t86 148.5t146 106.5t201 40q112 0 202.5 -40t146.5 -106.5t86 -148.5t30 -170q0 -89 -30 -171.5t-86 -149t-146.5 -106.5t-202.5 -40zM586 850q90 0 163.5 33t118.5 88.5t69 123.5t24 142
q0 73 -24 140.5t-69 123t-118.5 88.5t-163.5 33q-89 0 -161 -33t-117 -88.5t-69 -123t-24 -140.5q0 -74 24 -142t69 -123.5t117 -88.5t161 -33zM553 1047h-104q10 20 10 57v301q0 41 -10 55h151q54 0 83.5 -29t29.5 -69q0 -38 -24 -70.5t-68 -38.5v-2q34 -5 53 -19
t25.5 -36.5t8.5 -45.5t5.5 -52.5t11.5 -50.5h-111q3 23 -2 92q-4 55 -15.5 74.5t-37.5 19.5h-18v-129q0 -37 12 -57zM545 1403v-107h10q37 0 55.5 16.5t18.5 39.5q0 21 -13 36t-34 15h-37z" />
    <glyph glyph-name="degree" unicode="&#xb0;" horiz-adv-x="753" 
d="M377 1202q-103 0 -178.5 66t-75.5 184t75.5 184t178.5 66t178.5 -66t75.5 -184t-75.5 -184t-178.5 -66zM373 1282q53 0 88 44t35 126q0 80 -35 124t-84 44t-84 -44t-35 -126q0 -80 34 -124t81 -44z" />
    <glyph glyph-name="plusminus" unicode="&#xb1;" horiz-adv-x="997" 
d="M541 258h-82v336h-336v82h336v334h82v-334h333v-82h-333v-336zM874 88h-751v82h751v-82z" />
    <glyph glyph-name="uni00B2" unicode="&#xb2;" horiz-adv-x="782" 
d="M649 922h-526q0 65 26 123.5t68 103t92.5 86.5t101.5 80.5t93 76.5t68 83.5t26 93.5q0 54 -36.5 92t-94 51.5t-138 -6.5t-159.5 -76l-16 68q75 48 163.5 66t163.5 4.5t125.5 -69t50.5 -145.5q0 -51 -23 -98.5t-60 -86t-82.5 -76t-92.5 -73.5t-87 -72t-68 -79t-35 -88
q374 0 450 29z" />
    <glyph glyph-name="uni00B3" unicode="&#xb3;" horiz-adv-x="724" 
d="M322 913q-95 0 -199 35v62q104 -45 199 -45q105 0 164 55t59 131q0 72 -64 137.5t-159 77.5v29q90 18 144 74t54 118q0 56 -48 94.5t-142 38.5q-78 0 -170 -28v61q98 25 170 25q123 0 188.5 -56t65.5 -135q0 -71 -54 -128.5t-145 -69.5v-11q102 -9 160.5 -74.5
t58.5 -152.5q0 -97 -74 -167.5t-208 -70.5z" />
    <glyph glyph-name="paragraph" unicode="&#xb6;" horiz-adv-x="1173" 
d="M797 -184h-123v934h-21q-27 -47 -77 -78.5t-108.5 -42.5t-120 4.5t-111.5 53t-81.5 111.5t-31.5 173q0 206 138.5 337.5t363.5 131.5h426v-1624h-123v1521h-131v-1521z" />
    <glyph glyph-name="periodcentered" unicode="&#xb7;" horiz-adv-x="380" 
d="M190 342q-29 0 -48 20t-19 50q0 27 19 47t48 20q28 0 48 -20.5t20 -46.5q0 -29 -20 -49.5t-48 -20.5z" />
    <glyph glyph-name="uni00B9" unicode="&#xb9;" horiz-adv-x="372" 
d="M252 922h-107q11 19 16 39.5t6 34t1 40.5v449q0 123 -12 169q-11 43 -33 66l106 37v-721q0 -27 1 -40.5t6 -34t16 -39.5z" />
    <glyph glyph-name="ordmasculine" unicode="&#xba;" horiz-adv-x="808" 
d="M381 772q-50 0 -99.5 19.5t-94.5 59t-73 110.5t-28 163q0 91 28 161.5t73 109.5t94.5 58.5t99.5 19.5q49 0 98 -19.5t94 -58.5t73 -109.5t28 -161.5q0 -92 -28 -163t-73 -110.5t-94 -59t-98 -19.5zM381 817q36 0 72.5 17t71.5 51t57 96t22 143t-22 142.5t-57 94
t-71.5 48.5t-72.5 16q-37 0 -74 -16t-72 -49t-57 -94t-22 -142t22 -143t57 -96t72.5 -51t73.5 -17z" />
    <glyph glyph-name="guillemotright" unicode="&#xbb;" horiz-adv-x="1579" 
d="M799 655l-676 -409v82l545 329v2l-545 324v82l676 -401v-9zM1456 655l-676 -409v82l545 329v2l-545 324v82l676 -401v-9z" />
    <glyph glyph-name="onequarter" unicode="&#xbc;" horiz-adv-x="1488" 
d="M252 922h-107q11 19 16 39.5t6 34t1 40.5v449q0 123 -12 169q-11 43 -33 66l106 37v-721q0 -27 1 -40.5t6 -34t16 -39.5zM186 0h-61l985 1669h61zM1044 -29q-97 0 -198 37v62q104 -45 198 -45q105 0 164.5 55t59.5 131q0 72 -64.5 137.5t-159.5 77.5v29q90 18 144.5 74
t54.5 118q0 56 -48 94.5t-142 38.5q-78 0 -170 -28v61q98 25 170 25q123 0 188.5 -56t65.5 -135q0 -71 -54 -128.5t-145 -69.5v-11q102 -9 160.5 -74.5t58.5 -152.5q0 -97 -74.5 -168.5t-208.5 -71.5z" />
    <glyph glyph-name="onehalf" unicode="&#xbd;" horiz-adv-x="1517" 
d="M252 922h-107q11 19 16 39.5t6 34t1 40.5v449q0 123 -12 169q-11 43 -33 66l106 37v-721q0 -27 1 -40.5t6 -34t16 -39.5zM180 0h-61l985 1669h61zM1384 0h-526q0 65 26 123.5t68 103t92.5 86.5t101.5 80.5t93 76.5t68 83.5t26 93.5q0 54 -36.5 92.5t-94 52t-138 -6.5
t-159.5 -76l-16 67q75 48 163.5 66.5t164 5t126 -69t50.5 -145.5q0 -51 -23 -98.5t-60.5 -86.5t-83 -76t-92 -73.5t-86.5 -72.5t-68.5 -79t-35.5 -88q375 0 451 29z" />
    <glyph glyph-name="threequarters" unicode="&#xbe;" horiz-adv-x="1581" 
d="M293 913q-95 0 -199 35v62q104 -45 199 -45q105 0 164 55t59 131q0 72 -64 137.5t-159 77.5v29q90 18 144.5 74t54.5 118q0 56 -48.5 94.5t-142.5 38.5q-78 0 -170 -28v61q98 25 170 25q123 0 188.5 -56t65.5 -135q0 -71 -54 -128.5t-145 -69.5v-11q102 -9 160.5 -74.5
t58.5 -152.5q0 -97 -74 -167.5t-208 -70.5zM406 0h-62l985 1669h62zM1378 0h-106q11 19 16 40t5.5 33.5t0.5 41.5v96h-401v47l424 578h39v-584h100v-41h-100v-96q0 -29 0.5 -41.5t5.5 -33.5t16 -40zM1294 731l-350 -479h350v479z" />
    <glyph glyph-name="questiondown" unicode="&#xbf;" horiz-adv-x="946" 
d="M651 1393q29 0 48.5 -20.5t19.5 -49.5q0 -27 -19.5 -47.5t-48.5 -20.5q-27 0 -47 20.5t-20 47.5q0 29 19.5 49.5t47.5 20.5zM633 1149h61q11 -61 11 -94q0 -104 -47.5 -211.5t-115 -198.5t-134.5 -181.5t-114.5 -193t-47.5 -200.5q0 -136 83 -216.5t214 -80.5
q125 0 260 75l20 -110q-141 -62 -280 -62q-184 0 -302 106.5t-118 272.5q0 63 15.5 125t35 108t59.5 105.5t66 93t76 95.5q53 65 80.5 100t69 98.5t62 113.5t35 118t11.5 137z" />
    <glyph glyph-name="Agrave" unicode="&#xc0;" horiz-adv-x="1486" 
d="M967 1898q-103 0 -207 48.5t-166 124.5l72 81q46 -58 128.5 -106.5t176.5 -75.5q89 -26 162 -26q-73 -46 -166 -46zM330 0h-228q21 33 37 65.5t23 50.5t20 56.5t19 54.5l467 1295q14 37 14 68.5t-14 78.5h168q-22 -86 0 -147l467 -1295q5 -15 17 -50t19.5 -56t24 -55
t37.5 -66h-227q24 63 26 111.5t-20 115.5l-131 375h-594l-131 -375q-22 -67 -20 -115.5t26 -111.5zM752 1442l-271 -766h541z" />
    <glyph glyph-name="Aacute" unicode="&#xc1;" horiz-adv-x="1486" 
d="M627 1901q-95 0 -166 45q73 0 162 26q94 27 176.5 75.5t128.5 106.5l71 -81q-62 -76 -165.5 -124t-206.5 -48zM330 0h-228q21 33 37 65.5t23 50.5t20 56.5t19 54.5l467 1295q14 37 14 68.5t-14 78.5h168q-22 -86 0 -147l467 -1295q5 -15 17 -50t19.5 -56t24 -55t37.5 -66
h-227q24 63 26 111.5t-20 115.5l-131 375h-594l-131 -375q-22 -67 -20 -115.5t26 -111.5zM752 1442l-271 -766h541z" />
    <glyph glyph-name="Acircumflex" unicode="&#xc2;" horiz-adv-x="1486" 
d="M453 1823l-52 90q177 124 349 305q35 -32 91 -86.5t89 -85.5t81 -69.5t95 -67.5l-80 -86q-144 137 -276 323q-135 -177 -297 -323zM330 0h-228q21 33 37 65.5t23 50.5t20 56.5t19 54.5l467 1295q14 37 14 68.5t-14 78.5h168q-22 -86 0 -147l467 -1295q5 -15 17 -50
t19.5 -56t24 -55t37.5 -66h-227q24 63 26 111.5t-20 115.5l-131 375h-594l-131 -375q-22 -67 -20 -115.5t26 -111.5zM752 1442l-271 -766h541z" />
    <glyph glyph-name="Atilde" unicode="&#xc3;" horiz-adv-x="1486" 
d="M948 1829q-44 0 -82.5 15.5t-66 41t-52.5 56t-49 60.5t-49.5 55.5t-59 41t-71.5 15.5q-179 0 -178 -249v-5h-51q-10 46 -12 91.5t13.5 88t42 75.5t74.5 52.5t111 19.5q52 0 94 -20.5t67.5 -51t52.5 -66.5t50.5 -66.5t61.5 -51t84 -20.5t85 25t61 79t-1 139h72
q32 -91 9.5 -163.5t-81 -117t-125.5 -44.5zM330 0h-228q21 33 37 65.5t23 50.5t20 56.5t19 54.5l467 1295q14 37 14 68.5t-14 78.5h168q-22 -86 0 -147l467 -1295q5 -15 17 -50t19.5 -56t24 -55t37.5 -66h-227q24 63 26 111.5t-20 115.5l-131 375h-594l-131 -375
q-22 -67 -20 -115.5t26 -111.5zM752 1442l-271 -766h541z" />
    <glyph glyph-name="Adieresis" unicode="&#xc4;" horiz-adv-x="1486" 
d="M623 1862q-43 0 -72 28.5t-29 69.5q0 42 29 70t72 28q40 0 68 -28t28 -70q0 -41 -28 -69.5t-68 -28.5zM887 1862q-43 0 -71 28t-28 70q0 43 28 70.5t71 27.5q40 0 69 -28t29 -70q0 -41 -29 -69.5t-69 -28.5zM330 0h-228q21 33 37 65.5t23 50.5t20 56.5t19 54.5l467 1295
q14 37 14 68.5t-14 78.5h168q-22 -86 0 -147l467 -1295q5 -15 17 -50t19.5 -56t24 -55t37.5 -66h-227q24 63 26 111.5t-20 115.5l-131 375h-594l-131 -375q-22 -67 -20 -115.5t26 -111.5zM752 1442l-271 -766h541z" />
    <glyph glyph-name="Aring" unicode="&#xc5;" horiz-adv-x="1486" 
d="M752 1790q-97 0 -164.5 67t-67.5 164t67.5 164.5t164.5 67.5t164 -67.5t67 -164.5t-67 -164t-164 -67zM752 1841q23 0 44 7t44 24t37 55.5t14 93.5t-14 93.5t-37 56t-44 24.5t-44 7t-44 -7t-44.5 -24.5t-37.5 -56t-14 -93.5t14 -93.5t37.5 -55.5t44.5 -24t44 -7zM330 0
h-228q21 33 37 65.5t23 50.5t20 56.5t19 54.5l467 1295q14 37 14 68.5t-14 78.5h168q-22 -86 0 -147l467 -1295q5 -15 17 -50t19.5 -56t24 -55t37.5 -66h-227q24 63 26 111.5t-20 115.5l-131 375h-594l-131 -375q-22 -67 -20 -115.5t26 -111.5zM752 1442l-271 -766h541z" />
    <glyph glyph-name="AE" unicode="&#xc6;" horiz-adv-x="1810" 
d="M340 0h-238q40 63 59 109.5t40 117.5l356 1215q23 80 23 137q0 29 -11 90h1102l17 -164q-219 58 -732 58v-553h531l8 -82h-539v-822q513 0 732 58l-17 -164h-883q21 38 31.5 77.5t12.5 68t2 81.5v344h-404l-96 -344q-19 -65 -19 -110q0 -50 25 -117zM713 1563l-256 -895
h377v895h-121z" />
    <glyph glyph-name="Ccedilla" unicode="&#xc7;" horiz-adv-x="1202" 
d="M1053 162l20 -101q-150 -83 -299 -92l-24 -39q110 -4 170.5 -57t60.5 -125q0 -73 -59 -132t-180 -86t-304 15v43q202 -42 328.5 19t126.5 157q0 56 -51.5 96.5t-149.5 47.5l27 61q-125 5 -232.5 64.5t-189 167.5t-128 272t-46.5 365q0 178 30.5 323t84 245t128.5 168
t162 99t185 31q176 0 360 -96l-16 -123q-172 119 -340 119q-99 0 -183 -45.5t-149 -136t-102 -240t-37 -344.5q0 -366 137.5 -564t361.5 -198q144 0 308 86z" />
    <glyph glyph-name="Egrave" unicode="&#xc8;" horiz-adv-x="1144" 
d="M780 1898q-103 0 -206.5 48.5t-165.5 124.5l71 81q46 -58 128.5 -106.5t176.5 -75.5q89 -26 162 -26q-73 -46 -166 -46zM1006 0h-883q21 38 31.5 78t12 67t1.5 82v1215q0 55 -1.5 82t-12 67t-31.5 78h883l16 -164q-219 58 -731 58v-553h530l8 -82h-538v-822q512 0 731 58
z" />
    <glyph glyph-name="Eacute" unicode="&#xc9;" horiz-adv-x="1144" 
d="M440 1901q-95 0 -166 45q73 0 162 26q94 27 176.5 75.5t128.5 106.5l72 -81q-62 -76 -165.5 -124t-207.5 -48zM1006 0h-883q21 38 31.5 78t12 67t1.5 82v1215q0 55 -1.5 82t-12 67t-31.5 78h883l16 -164q-219 58 -731 58v-553h530l8 -82h-538v-822q512 0 731 58z" />
    <glyph glyph-name="Ecircumflex" unicode="&#xca;" horiz-adv-x="1144" 
d="M266 1823l-51 90q174 122 348 305q34 -32 91 -87t89.5 -85t81 -69t95.5 -68l-80 -86q-147 140 -277 323q-135 -177 -297 -323zM1006 0h-883q21 38 31.5 78t12 67t1.5 82v1215q0 55 -1.5 82t-12 67t-31.5 78h883l16 -164q-219 58 -731 58v-553h530l8 -82h-538v-822
q512 0 731 58z" />
    <glyph glyph-name="Edieresis" unicode="&#xcb;" horiz-adv-x="1144" 
d="M436 1862q-43 0 -71.5 28.5t-28.5 69.5q0 43 28.5 70.5t71.5 27.5q40 0 68 -28t28 -70q0 -41 -28 -69.5t-68 -28.5zM700 1862q-42 0 -70 28t-28 70q0 43 27.5 70.5t70.5 27.5q41 0 70 -28t29 -70q0 -41 -29.5 -69.5t-69.5 -28.5zM1006 0h-883q21 38 31.5 78t12 67t1.5 82
v1215q0 55 -1.5 82t-12 67t-31.5 78h883l16 -164q-219 58 -731 58v-553h530l8 -82h-538v-822q512 0 731 58z" />
    <glyph glyph-name="Igrave" unicode="&#xcc;" horiz-adv-x="622" 
d="M393 1901q-104 0 -207.5 48t-165.5 124l72 81q46 -58 128.5 -106.5t176.5 -75.5q89 -26 162 -26q-71 -45 -166 -45zM408 0h-213q21 38 31.5 78t12 67t1.5 82v1215q0 55 -1.5 82t-12 67t-31.5 78h213q-21 -38 -31.5 -77.5t-12.5 -68t-2 -81.5v-1215q0 -53 2 -81.5
t12.5 -68t31.5 -77.5z" />
    <glyph glyph-name="Iacute" unicode="&#xcd;" horiz-adv-x="741" 
d="M289 1901q-95 0 -166 45q73 0 162 26q94 27 176.5 75.5t128.5 106.5l72 -81q-62 -76 -165.5 -124t-207.5 -48zM520 0h-213q21 38 31.5 78t12 67t1.5 82v1215q0 55 -1.5 82t-12 67t-31.5 78h213q-21 -38 -31.5 -78t-12 -67t-1.5 -82v-1215q0 -55 1.5 -82t12 -67t31.5 -78z
" />
    <glyph glyph-name="Icircumflex" unicode="&#xce;" horiz-adv-x="614" 
d="M18 1784l-51 90q174 122 348 305q34 -32 91 -87t89.5 -85t81 -69t95.5 -68l-80 -86q-147 140 -277 323q-135 -177 -297 -323zM393 0h-213q21 38 31.5 78t12 67t1.5 82v1215q0 55 -1.5 82t-12 67t-31.5 78h213q-21 -38 -31.5 -78t-12 -67t-1.5 -82v-1215q0 -55 1.5 -82
t12 -67t31.5 -78z" />
    <glyph glyph-name="Idieresis" unicode="&#xcf;" horiz-adv-x="456" 
d="M96 1862q-43 0 -71.5 28.5t-28.5 69.5q0 43 28.5 70.5t71.5 27.5q40 0 68.5 -28t28.5 -70q0 -41 -28.5 -69.5t-68.5 -28.5zM360 1862q-42 0 -70 28t-28 70q0 43 27.5 70.5t70.5 27.5q41 0 70 -28t29 -70q0 -41 -29.5 -69.5t-69.5 -28.5zM332 0h-213q21 38 31.5 78t12 67
t1.5 82v1215q0 55 -1.5 82t-12 67t-31.5 78h213q-21 -38 -31.5 -78t-12 -67t-1.5 -82v-1215q0 -55 1.5 -82t12 -67t31.5 -78z" />
    <glyph glyph-name="Eth" unicode="&#xd0;" horiz-adv-x="1390" 
d="M205 1669h416q311 0 479 -195t168 -569q0 -439 -167 -672t-476 -233h-420q21 38 31.5 78t12 67t1.5 82v588h-178v82h178v545q0 55 -1.5 82t-12 67t-31.5 78zM373 815v-735q398 -40 585 173t187 665q0 106 -14.5 194t-40 153.5t-64.5 117t-82 86t-98.5 58.5t-109 36
t-118.5 17t-121.5 3.5t-123.5 -6.5v-680h358v-82h-358z" />
    <glyph glyph-name="Ntilde" unicode="&#xd1;" horiz-adv-x="1388" 
d="M881 1829q-44 0 -82.5 15.5t-66 41t-52.5 56t-49 60.5t-49.5 55.5t-59 41t-71.5 15.5q-179 0 -179 -254h-51q-10 46 -12 91.5t13.5 88t42.5 75.5t75 52.5t111 19.5q61 0 107.5 -28.5t76.5 -69t58.5 -81t70 -69t96.5 -28.5q33 0 64.5 14t57 43t32.5 75.5t-8 110.5h71
q32 -91 9.5 -163.5t-80.5 -117t-125 -44.5zM336 0h-213q21 38 31.5 78t12 67t1.5 82v1166q0 195 -41 276h98q86 0 127.5 -34.5t85.5 -133.5l639 -1413v1354q0 55 -1.5 82t-12 67t-31.5 78h213q-21 -38 -31.5 -78t-12 -67t-1.5 -82v-1215q0 -55 1.5 -82t12 -67t31.5 -78h-88
q-52 0 -87 9.5t-70.5 38t-67 79.5t-68.5 135l-573 1307v-1342q0 -55 1.5 -82t12 -67t31.5 -78z" />
    <glyph glyph-name="Ograve" unicode="&#xd2;" horiz-adv-x="1337" 
d="M885 1931q-104 0 -207.5 48t-165.5 124l72 82q46 -58 128.5 -106.5t176.5 -75.5q93 -27 162 -27q-71 -45 -166 -45zM670 -35q-135 0 -240.5 66t-172 183t-100.5 273t-34 342q0 426 136.5 649.5t410.5 223.5t410.5 -223.5t136.5 -649.5q0 -186 -34 -342t-100.5 -273
t-172 -183t-240.5 -66zM670 88q19 0 36 1t49.5 8.5t60 20.5t63.5 39.5t64.5 62.5t58 93t48.5 128t31.5 170.5t12.5 217.5q0 147 -14.5 264t-43 198t-65.5 138t-86.5 89.5t-101 46.5t-113.5 14q-74 0 -133.5 -19.5t-115 -71.5t-93 -134.5t-60 -215.5t-22.5 -309
q0 -118 11.5 -217.5t30 -170.5t47 -128t56 -93t63 -62.5t62.5 -39.5t61 -20.5t52 -8.5t41 -1z" />
    <glyph glyph-name="Oacute" unicode="&#xd3;" horiz-adv-x="1337" 
d="M545 1933q-95 0 -166 45q69 0 162 27q94 27 176.5 75.5t128.5 106.5l72 -82q-62 -76 -165.5 -124t-207.5 -48zM670 -35q-135 0 -240.5 66t-172 183t-100.5 273t-34 342q0 426 136.5 649.5t410.5 223.5t410.5 -223.5t136.5 -649.5q0 -186 -34 -342t-100.5 -273t-172 -183
t-240.5 -66zM670 88q19 0 36 1t49.5 8.5t60 20.5t63.5 39.5t64.5 62.5t58 93t48.5 128t31.5 170.5t12.5 217.5q0 147 -14.5 264t-43 198t-65.5 138t-86.5 89.5t-101 46.5t-113.5 14q-74 0 -133.5 -19.5t-115 -71.5t-93 -134.5t-60 -215.5t-22.5 -309q0 -118 11.5 -217.5
t30 -170.5t47 -128t56 -93t63 -62.5t62.5 -39.5t61 -20.5t52 -8.5t41 -1z" />
    <glyph glyph-name="Ocircumflex" unicode="&#xd4;" horiz-adv-x="1337" 
d="M371 1855l-52 91q177 124 349 305q35 -32 91 -86.5t89 -85.5t81 -69.5t95 -67.5l-80 -87q-141 135 -276 324q-137 -180 -297 -324zM670 -35q-135 0 -240.5 66t-172 183t-100.5 273t-34 342q0 426 136.5 649.5t410.5 223.5t410.5 -223.5t136.5 -649.5q0 -186 -34 -342
t-100.5 -273t-172 -183t-240.5 -66zM670 88q19 0 36 1t49.5 8.5t60 20.5t63.5 39.5t64.5 62.5t58 93t48.5 128t31.5 170.5t12.5 217.5q0 147 -14.5 264t-43 198t-65.5 138t-86.5 89.5t-101 46.5t-113.5 14q-74 0 -133.5 -19.5t-115 -71.5t-93 -134.5t-60 -215.5t-22.5 -309
q0 -118 11.5 -217.5t30 -170.5t47 -128t56 -93t63 -62.5t62.5 -39.5t61 -20.5t52 -8.5t41 -1z" />
    <glyph glyph-name="Otilde" unicode="&#xd5;" horiz-adv-x="1337" 
d="M866 1862q-60 0 -109.5 29.5t-83 71t-66 83t-76 71t-95.5 29.5q-179 0 -178 -249v-5h-51q-10 46 -12 92t13.5 88.5t42 75.5t74.5 52.5t111 19.5q52 0 94 -20.5t67.5 -51t52.5 -66.5t50.5 -66.5t61.5 -51t84 -20.5t85 25t61 79t-1 139h72q32 -91 9.5 -163.5t-81 -117
t-125.5 -44.5zM670 -35q-135 0 -240.5 66t-172 183t-100.5 273t-34 342q0 426 136.5 649.5t410.5 223.5t410.5 -223.5t136.5 -649.5q0 -186 -34 -342t-100.5 -273t-172 -183t-240.5 -66zM670 88q19 0 36 1t49.5 8.5t60 20.5t63.5 39.5t64.5 62.5t58 93t48.5 128t31.5 170.5
t12.5 217.5q0 147 -14.5 264t-43 198t-65.5 138t-86.5 89.5t-101 46.5t-113.5 14q-74 0 -133.5 -19.5t-115 -71.5t-93 -134.5t-60 -215.5t-22.5 -309q0 -118 11.5 -217.5t30 -170.5t47 -128t56 -93t63 -62.5t62.5 -39.5t61 -20.5t52 -8.5t41 -1z" />
    <glyph glyph-name="Odieresis" unicode="&#xd6;" horiz-adv-x="1337" 
d="M541 1894q-43 0 -72 29t-29 70q0 42 29 70t72 28q40 0 68 -28t28 -70q0 -41 -28 -70t-68 -29zM805 1894q-42 0 -70 28.5t-28 70.5q0 43 27.5 70.5t70.5 27.5q40 0 69 -28t29 -70q0 -41 -29 -70t-69 -29zM670 -35q-135 0 -240.5 66t-172 183t-100.5 273t-34 342
q0 426 136.5 649.5t410.5 223.5t410.5 -223.5t136.5 -649.5q0 -186 -34 -342t-100.5 -273t-172 -183t-240.5 -66zM670 88q19 0 36 1t49.5 8.5t60 20.5t63.5 39.5t64.5 62.5t58 93t48.5 128t31.5 170.5t12.5 217.5q0 147 -14.5 264t-43 198t-65.5 138t-86.5 89.5t-101 46.5
t-113.5 14q-74 0 -133.5 -19.5t-115 -71.5t-93 -134.5t-60 -215.5t-22.5 -309q0 -118 11.5 -217.5t30 -170.5t47 -128t56 -93t63 -62.5t62.5 -39.5t61 -20.5t52 -8.5t41 -1z" />
    <glyph glyph-name="multiply" unicode="&#xd7;" horiz-adv-x="837" 
d="M418 578l-238 -238l-57 59l237 238l-235 235l57 58l236 -236l237 236l58 -58l-236 -235l238 -238l-60 -59z" />
    <glyph glyph-name="Oslash" unicode="&#xd8;" horiz-adv-x="1337" 
d="M969 1767l-39 -135q287 -180 287 -803q0 -186 -34 -342t-100.5 -273t-172 -183t-240.5 -66q-109 0 -201 45l-31 -106h-76l41 145q-138 99 -209 304t-71 476q0 426 136.5 649.5t410.5 223.5q107 0 194 -35l29 100h76zM246 829q0 -490 192 -659l393 1378q-69 31 -161 31
q-74 0 -133.5 -19.5t-115 -71.5t-93 -134.5t-60 -215.5t-22.5 -309zM670 88q19 0 36 1t49.5 8.5t60 20.5t63.5 39.5t64.5 62.5t58 93t48.5 128t31.5 170.5t12.5 217.5q0 529 -199 680l-393 -1384q72 -37 168 -37z" />
    <glyph glyph-name="Ugrave" unicode="&#xd9;" horiz-adv-x="1286" 
d="M858 1898q-103 0 -207 48.5t-166 124.5l72 81q46 -58 128.5 -106.5t176.5 -75.5q89 -26 162 -26q-73 -46 -166 -46zM641 -35q-131 0 -225 37t-147 105t-77 152t-24 190v993q0 55 -1.5 82t-12 67t-31.5 78h213q-21 -38 -31.5 -78t-12 -67t-1.5 -82v-1059q0 -102 52 -177
t131 -110t171 -35q91 0 169.5 35t130.5 110t52 177l-2 1059q0 55 -1.5 82t-12 67t-31.5 78h213q-21 -38 -31.5 -78t-12 -67t-1.5 -82v-993q0 -83 -15 -153t-49.5 -132t-88.5 -105.5t-136.5 -68.5t-187.5 -25z" />
    <glyph glyph-name="Uacute" unicode="&#xda;" horiz-adv-x="1286" 
d="M518 1901q-95 0 -166 45q73 0 162 26q94 27 176.5 75.5t128.5 106.5l72 -81q-62 -76 -165.5 -124t-207.5 -48zM641 -35q-131 0 -225 37t-147 105t-77 152t-24 190v993q0 55 -1.5 82t-12 67t-31.5 78h213q-21 -38 -31.5 -78t-12 -67t-1.5 -82v-1059q0 -102 52 -177
t131 -110t171 -35q91 0 169.5 35t130.5 110t52 177l-2 1059q0 55 -1.5 82t-12 67t-31.5 78h213q-21 -38 -31.5 -78t-12 -67t-1.5 -82v-993q0 -83 -15 -153t-49.5 -132t-88.5 -105.5t-136.5 -68.5t-187.5 -25z" />
    <glyph glyph-name="Ucircumflex" unicode="&#xdb;" horiz-adv-x="1286" 
d="M344 1823l-51 90q174 122 348 305q35 -32 91 -86.5t89 -85.5t81 -69.5t95 -67.5l-79 -86q-147 140 -277 323q-135 -177 -297 -323zM641 -35q-131 0 -225 37t-147 105t-77 152t-24 190v993q0 55 -1.5 82t-12 67t-31.5 78h213q-21 -38 -31.5 -78t-12 -67t-1.5 -82v-1059
q0 -102 52 -177t131 -110t171 -35q91 0 169.5 35t130.5 110t52 177l-2 1059q0 55 -1.5 82t-12 67t-31.5 78h213q-21 -38 -31.5 -78t-12 -67t-1.5 -82v-993q0 -83 -15 -153t-49.5 -132t-88.5 -105.5t-136.5 -68.5t-187.5 -25z" />
    <glyph glyph-name="Udieresis" unicode="&#xdc;" horiz-adv-x="1286" 
d="M514 1862q-43 0 -71.5 28.5t-28.5 69.5q0 43 28.5 70.5t71.5 27.5q40 0 68 -28t28 -70q0 -41 -28 -69.5t-68 -28.5zM778 1862q-42 0 -70 28t-28 70q0 43 27.5 70.5t70.5 27.5q41 0 70 -28t29 -70q0 -41 -29.5 -69.5t-69.5 -28.5zM641 -35q-131 0 -225 37t-147 105
t-77 152t-24 190v993q0 55 -1.5 82t-12 67t-31.5 78h213q-21 -38 -31.5 -78t-12 -67t-1.5 -82v-1059q0 -102 52 -177t131 -110t171 -35q91 0 169.5 35t130.5 110t52 177l-2 1059q0 55 -1.5 82t-12 67t-31.5 78h213q-21 -38 -31.5 -78t-12 -67t-1.5 -82v-993q0 -83 -15 -153
t-49.5 -132t-88.5 -105.5t-136.5 -68.5t-187.5 -25z" />
    <glyph glyph-name="Yacute" unicode="&#xdd;" horiz-adv-x="1372" 
d="M561 1901q-95 0 -166 45q73 0 162 26q94 27 176.5 75.5t128.5 106.5l72 -81q-62 -76 -165.5 -124t-207.5 -48zM793 0h-213q21 38 31.5 78t12 67t1.5 82v443l-404 776q-60 114 -131 223h176q0 -17 5 -38.5t10.5 -39t16.5 -42.5l16.5 -37.5t17 -35t12.5 -24.5l342 -666
l342 666q2 5 14 28t15 29t12.5 26t13 28.5t9.5 25.5t8 28t3.5 25t0.5 27h178q-56 -80 -131 -223l-403 -776v-443q0 -55 1.5 -82t12 -67t31.5 -78z" />
    <glyph glyph-name="Thorn" unicode="&#xde;" horiz-adv-x="1214" 
d="M336 0h-213q21 38 31.5 78t12 67t1.5 82v1215q0 55 -1.5 82t-12 67t-31.5 78h213q-21 -38 -31.5 -78t-12 -67t-1.5 -82v-211h10q112 155 324 155q74 0 143 -17.5t132 -57t110 -97t74.5 -142t27.5 -187.5q0 -112 -30.5 -205t-80.5 -155t-116.5 -105t-136.5 -62.5
t-142 -19.5q-103 0 -187 40t-120 109h-8v-260q0 -55 1.5 -82t12 -67t31.5 -78zM606 416q74 0 140.5 27t122 80.5t88 144.5t32.5 209q0 104 -34.5 187t-92 133.5t-127.5 76.5t-145 26q-91 0 -172 -38t-127 -107v-582q50 -74 135 -115.5t180 -41.5z" />
    <glyph glyph-name="germandbls" unicode="&#xdf;" horiz-adv-x="1374" 
d="M809 -39q-73 0 -138.5 24.5t-118 71.5t-84.5 123t-34 172q21 -147 116 -226t220 -79q71 0 138 27t121 77t87 130t33 178q0 81 -33.5 154.5t-97.5 135.5t-168 104.5t-236 55.5v72q121 70 184.5 173.5t63.5 205.5q0 111 -70.5 183.5t-197.5 72.5q-69 0 -124.5 -24.5
t-88.5 -61.5t-55 -85t-30.5 -90.5t-8.5 -82.5v-1084q0 -67 12.5 -105.5t56.5 -86.5h-254q38 51 50 94t12 107v1054q0 112 37.5 201t99.5 142t136.5 80.5t154.5 27.5q147 0 253.5 -83.5t106.5 -225.5q0 -84 -24 -157.5t-64.5 -125t-74 -82.5t-70.5 -55q140 -13 248 -59
t173.5 -116t98.5 -155.5t33 -183.5q0 -95 -26.5 -176.5t-72 -140t-105 -100t-125.5 -61.5t-134 -20z" />
    <glyph glyph-name="agrave" unicode="&#xe0;" horiz-adv-x="1214" 
d="M860 1413q-104 0 -207.5 48t-165.5 124l72 82q46 -58 128.5 -106.5t176.5 -75.5q93 -27 162 -27q-71 -45 -166 -45zM481 -31q-146 0 -252 96t-106 254q0 91 39 165.5t104.5 121t146 71.5t167.5 25q104 0 198.5 -36t159.5 -103q-125 88 -303 88q-76 0 -143.5 -19.5
t-123.5 -58.5t-89 -104.5t-33 -149.5q0 -126 72 -197t180 -71q137 0 264.5 132.5t175.5 351.5v331q0 119 -87 195t-220 76q-167 0 -346 -131l-29 92q180 123 389 123q114 0 206.5 -40.5t151 -127t58.5 -205.5v-731q0 -84 61 -117h-100q-41 0 -62.5 23.5t-21.5 62.5v301h-4
q-25 -105 -73.5 -187.5t-110 -131.5t-130 -74t-139.5 -25z" />
    <glyph glyph-name="aacute" unicode="&#xe1;" horiz-adv-x="1214" 
d="M520 1415q-95 0 -166 45q69 0 162 27q94 27 176.5 75.5t128.5 106.5l72 -82q-62 -76 -165.5 -124t-207.5 -48zM481 -31q-146 0 -252 96t-106 254q0 91 39 165.5t104.5 121t146 71.5t167.5 25q104 0 198.5 -36t159.5 -103q-125 88 -303 88q-76 0 -143.5 -19.5
t-123.5 -58.5t-89 -104.5t-33 -149.5q0 -126 72 -197t180 -71q137 0 264.5 132.5t175.5 351.5v331q0 119 -87 195t-220 76q-167 0 -346 -131l-29 92q180 123 389 123q114 0 206.5 -40.5t151 -127t58.5 -205.5v-731q0 -84 61 -117h-100q-41 0 -62.5 23.5t-21.5 62.5v301h-4
q-25 -105 -73.5 -187.5t-110 -131.5t-130 -74t-139.5 -25z" />
    <glyph glyph-name="acircumflex" unicode="&#xe2;" horiz-adv-x="1214" 
d="M346 1337l-51 90q171 120 348 306q35 -33 91 -87t89 -85.5t81 -70t95 -67.5l-79 -86q-145 138 -277 324q-137 -180 -297 -324zM481 -31q-146 0 -252 96t-106 254q0 91 39 165.5t104.5 121t146 71.5t167.5 25q104 0 198.5 -36t159.5 -103q-125 88 -303 88
q-76 0 -143.5 -19.5t-123.5 -58.5t-89 -104.5t-33 -149.5q0 -126 72 -197t180 -71q137 0 264.5 132.5t175.5 351.5v331q0 119 -87 195t-220 76q-167 0 -346 -131l-29 92q180 123 389 123q114 0 206.5 -40.5t151 -127t58.5 -205.5v-731q0 -84 61 -117h-100q-41 0 -62.5 23.5
t-21.5 62.5v301h-4q-25 -105 -73.5 -187.5t-110 -131.5t-130 -74t-139.5 -25z" />
    <glyph glyph-name="atilde" unicode="&#xe3;" horiz-adv-x="1214" 
d="M842 1343q-44 0 -82.5 15.5t-66 41t-52.5 56t-49 60.5t-49.5 55.5t-59 41t-71.5 15.5q-179 0 -179 -254h-51q-10 46 -12 92t13.5 88.5t42.5 75.5t75 52.5t111 19.5q45 0 82 -15.5t62 -39.5t47.5 -53.5t43.5 -59.5t44.5 -54t56.5 -39.5t73 -15.5q33 0 64.5 14t57 43.5
t32.5 75.5t-8 111h71q32 -91 10 -163.5t-80.5 -117.5t-125.5 -45zM481 -31q-146 0 -252 96t-106 254q0 91 39 165.5t104.5 121t146 71.5t167.5 25q104 0 198.5 -36t159.5 -103q-125 88 -303 88q-76 0 -143.5 -19.5t-123.5 -58.5t-89 -104.5t-33 -149.5q0 -126 72 -197
t180 -71q137 0 264.5 132.5t175.5 351.5v331q0 119 -87 195t-220 76q-167 0 -346 -131l-29 92q180 123 389 123q114 0 206.5 -40.5t151 -127t58.5 -205.5v-731q0 -84 61 -117h-100q-41 0 -62.5 23.5t-21.5 62.5v301h-4q-25 -105 -73.5 -187.5t-110 -131.5t-130 -74
t-139.5 -25z" />
    <glyph glyph-name="adieresis" unicode="&#xe4;" horiz-adv-x="1214" 
d="M516 1376q-42 0 -71 29t-29 70q0 43 28.5 70.5t71.5 27.5q40 0 68 -28t28 -70q0 -41 -28 -70t-68 -29zM780 1376q-42 0 -70 28.5t-28 70.5q0 43 27.5 70.5t70.5 27.5q41 0 70 -28t29 -70q0 -41 -29.5 -70t-69.5 -29zM481 -31q-146 0 -252 96t-106 254q0 91 39 165.5
t104.5 121t146 71.5t167.5 25q104 0 198.5 -36t159.5 -103q-125 88 -303 88q-76 0 -143.5 -19.5t-123.5 -58.5t-89 -104.5t-33 -149.5q0 -126 72 -197t180 -71q137 0 264.5 132.5t175.5 351.5v331q0 119 -87 195t-220 76q-167 0 -346 -131l-29 92q180 123 389 123
q114 0 206.5 -40.5t151 -127t58.5 -205.5v-731q0 -84 61 -117h-100q-41 0 -62.5 23.5t-21.5 62.5v301h-4q-25 -105 -73.5 -187.5t-110 -131.5t-130 -74t-139.5 -25z" />
    <glyph glyph-name="aring" unicode="&#xe5;" horiz-adv-x="1214" 
d="M645 1305q-97 0 -164 67t-67 164t67 164t164 67t164.5 -67t67.5 -164t-67.5 -164t-164.5 -67zM645 1356q23 0 44 7t44 24t37 55.5t14 93.5t-14 93.5t-37 55.5t-44 24t-44 7t-44 -7t-44 -24t-37 -55.5t-14 -93.5t14 -93.5t37 -55.5t44 -24t44 -7zM481 -31q-146 0 -252 96
t-106 254q0 91 39 165.5t104.5 121t146 71.5t167.5 25q104 0 198.5 -36t159.5 -103q-125 88 -303 88q-76 0 -143.5 -19.5t-123.5 -58.5t-89 -104.5t-33 -149.5q0 -126 72 -197t180 -71q137 0 264.5 132.5t175.5 351.5v331q0 119 -87 195t-220 76q-167 0 -346 -131l-29 92
q180 123 389 123q114 0 206.5 -40.5t151 -127t58.5 -205.5v-731q0 -84 61 -117h-100q-41 0 -62.5 23.5t-21.5 62.5v301h-4q-25 -105 -73.5 -187.5t-110 -131.5t-130 -74t-139.5 -25z" />
    <glyph glyph-name="ae" unicode="&#xe6;" horiz-adv-x="2154" 
d="M481 -31q-94 0 -175 41.5t-132 123.5t-51 190q0 173 128.5 275.5t313.5 102.5q180 0 336 -100q-68 27 -152.5 38t-173 -0.5t-162 -46t-120.5 -107t-47 -173.5q0 -121 65 -185.5t166 -64.5q62 0 126 23.5t124 73t107 118.5t75.5 167t28.5 210v146q0 163 -84.5 249.5
t-222.5 86.5q-180 0 -359 -131l-16 92q183 125 387 125q145 0 254.5 -71t146.5 -208q82 126 211 196t269 70q102 0 181 -26t126 -70.5t70.5 -100t23.5 -118.5q0 -98 -45.5 -177t-121 -128.5t-169 -76t-194.5 -26.5q-135 0 -256 48v8q88 -22 179 -21.5t178 29.5t155 73
t109.5 109t41.5 137q0 121 -78 188.5t-194 67.5q-63 0 -127.5 -20.5t-126.5 -65.5t-110 -109t-77 -157.5t-28 -204.5q1 -94 29 -175t76.5 -140t113 -101t137.5 -62.5t150 -20.5q130 0 253.5 61.5t217.5 181.5l39 -108q-102 -116 -236 -175t-276 -59q-122 0 -242 51
t-213 150.5t-125 224.5h-8q-18 -90 -59.5 -164t-93 -122t-113 -81t-119 -47t-111.5 -14z" />
    <glyph glyph-name="ccedilla" unicode="&#xe7;" horiz-adv-x="1042" 
d="M608 -31q-33 0 -49 2l-24 -41q110 -4 170.5 -57t60.5 -125q0 -73 -59 -132t-180 -86t-304 15v43q202 -42 328.5 19t126.5 157q0 56 -51.5 96.5t-149.5 47.5l31 72q-183 38 -294.5 203t-111.5 425q0 143 40 260.5t108.5 195t160.5 119.5t197 42q201 0 396 -146l-35 -131
q-175 172 -363 172q-164 0 -272.5 -137t-108.5 -375q0 -259 106 -400.5t281 -141.5q203 0 430 184v-121q-220 -160 -434 -160z" />
    <glyph glyph-name="egrave" unicode="&#xe8;" horiz-adv-x="1277" 
d="M864 1413q-103 0 -206.5 48t-165.5 124l71 82q46 -58 128.5 -106.5t176.5 -75.5q93 -27 162 -27q-71 -45 -166 -45zM748 -41q-128 0 -245 46t-206 128.5t-142 207t-53 271.5q0 266 157 436.5t413 170.5q116 0 213 -30.5t159.5 -81.5t97 -115t34.5 -132q0 -72 -38 -137
t-112 -118.5t-198.5 -85.5t-282.5 -32q-162 0 -316 60q102 -10 183 -10q162 0 288.5 28.5t200.5 76t111 104t37 118.5q0 106 -100 183t-263 77q-65 0 -129 -18.5t-124.5 -59t-106 -99t-73.5 -145t-28 -190.5q0 -124 44 -229t118 -174.5t171 -108.5t204 -39q218 0 409 154
l29 -100q-210 -156 -452 -156z" />
    <glyph glyph-name="eacute" unicode="&#xe9;" horiz-adv-x="1277" 
d="M524 1415q-95 0 -166 45q69 0 162 27q94 27 176.5 75.5t128.5 106.5l72 -82q-62 -76 -165.5 -124t-207.5 -48zM748 -41q-128 0 -245 46t-206 128.5t-142 207t-53 271.5q0 266 157 436.5t413 170.5q116 0 213 -30.5t159.5 -81.5t97 -115t34.5 -132q0 -72 -38 -137
t-112 -118.5t-198.5 -85.5t-282.5 -32q-162 0 -316 60q102 -10 183 -10q162 0 288.5 28.5t200.5 76t111 104t37 118.5q0 106 -100 183t-263 77q-65 0 -129 -18.5t-124.5 -59t-106 -99t-73.5 -145t-28 -190.5q0 -124 44 -229t118 -174.5t171 -108.5t204 -39q218 0 409 154
l29 -100q-210 -156 -452 -156z" />
    <glyph glyph-name="ecircumflex" unicode="&#xea;" horiz-adv-x="1277" 
d="M350 1337l-51 90q171 120 348 306q35 -32 91.5 -86.5t89 -85.5t81 -70t95.5 -68l-80 -86q-145 138 -277 324q-137 -180 -297 -324zM748 -41q-128 0 -245 46t-206 128.5t-142 207t-53 271.5q0 266 157 436.5t413 170.5q116 0 213 -30.5t159.5 -81.5t97 -115t34.5 -132
q0 -72 -38 -137t-112 -118.5t-198.5 -85.5t-282.5 -32q-162 0 -316 60q102 -10 183 -10q162 0 288.5 28.5t200.5 76t111 104t37 118.5q0 106 -100 183t-263 77q-65 0 -129 -18.5t-124.5 -59t-106 -99t-73.5 -145t-28 -190.5q0 -124 44 -229t118 -174.5t171 -108.5t204 -39
q218 0 409 154l29 -100q-210 -156 -452 -156z" />
    <glyph glyph-name="edieresis" unicode="&#xeb;" horiz-adv-x="1277" 
d="M520 1376q-42 0 -71 29t-29 70q0 43 28.5 70.5t71.5 27.5q40 0 68 -28t28 -70q0 -41 -28 -70t-68 -29zM784 1376q-42 0 -70 28.5t-28 70.5q0 43 27.5 70.5t70.5 27.5q41 0 70 -28t29 -70q0 -41 -29.5 -70t-69.5 -29zM748 -41q-128 0 -245 46t-206 128.5t-142 207
t-53 271.5q0 266 157 436.5t413 170.5q116 0 213 -30.5t159.5 -81.5t97 -115t34.5 -132q0 -72 -38 -137t-112 -118.5t-198.5 -85.5t-282.5 -32q-162 0 -316 60q102 -10 183 -10q162 0 288.5 28.5t200.5 76t111 104t37 118.5q0 106 -100 183t-263 77q-65 0 -129 -18.5
t-124.5 -59t-106 -99t-73.5 -145t-28 -190.5q0 -124 44 -229t118 -174.5t171 -108.5t204 -39q218 0 409 154l29 -100q-210 -156 -452 -156z" />
    <glyph glyph-name="igrave" unicode="&#xec;" horiz-adv-x="458" 
d="M373 1413q-104 0 -207.5 48t-165.5 124l72 82q46 -58 128.5 -106.5t176.5 -75.5q93 -27 162 -27q-71 -45 -166 -45zM336 0h-213q21 38 31.5 78t12 67t1.5 82v791q0 64 -9.5 96t-35.5 60q59 0 104 21t64 50v-1018q0 -55 1.5 -82t12 -67t31.5 -78z" />
    <glyph glyph-name="iacute" unicode="&#xed;" horiz-adv-x="458" 
d="M117 1415q-95 0 -166 45q69 0 162 27q94 27 176.5 75.5t128.5 106.5l71 -82q-62 -76 -165.5 -124t-206.5 -48zM336 0h-213q21 38 31.5 78t12 67t1.5 82v791q0 64 -9.5 96t-35.5 60q59 0 104 21t64 50v-1018q0 -55 1.5 -82t12 -67t31.5 -78z" />
    <glyph glyph-name="icircumflex" unicode="&#xee;" horiz-adv-x="458" 
d="M-70 1337l-51 90q171 120 348 306q35 -32 91.5 -86.5t89 -85.5t81 -70t95.5 -68l-80 -86q-145 138 -277 324q-137 -180 -297 -324zM336 0h-213q21 38 31.5 78t12 67t1.5 82v791q0 64 -9.5 96t-35.5 60q59 0 104 21t64 50v-1018q0 -55 1.5 -82t12 -67t31.5 -78z" />
    <glyph glyph-name="idieresis" unicode="&#xef;" horiz-adv-x="456" 
d="M96 1376q-42 0 -71 29t-29 70q0 43 28.5 70.5t71.5 27.5q40 0 68.5 -28t28.5 -70q0 -41 -28.5 -70t-68.5 -29zM360 1376q-42 0 -70 28.5t-28 70.5q0 43 27.5 70.5t70.5 27.5q41 0 70 -28t29 -70q0 -41 -29.5 -70t-69.5 -29zM332 0h-213q21 38 31.5 78t12 67t1.5 82v791
q0 64 -9.5 96t-35.5 60q59 0 104 21t64 50v-1018q0 -55 1.5 -82t12 -67t31.5 -78z" />
    <glyph glyph-name="eth" unicode="&#xf0;" horiz-adv-x="1284" 
d="M842 1669l-144 -129q83 -47 153.5 -106.5t132.5 -137.5t105 -167t68 -199t25 -230q0 -143 -32.5 -263.5t-87.5 -204t-128 -142t-154.5 -86t-167.5 -27.5q-98 0 -188.5 38t-163 108.5t-115.5 182t-43 247.5q0 91 20.5 172.5t57.5 145.5t87 118.5t109 92.5t124.5 64.5
t132.5 39t133 12.5t127 -14v-56q-61 9 -125.5 8t-130 -23t-125.5 -53.5t-112.5 -83t-91 -112.5t-61 -141.5t-22.5 -169.5q0 -113 32 -204.5t86 -149t122 -88.5t143 -31q67 0 132 24t123.5 75t103 123.5t70.5 177t26 227.5q0 258 -114 450t-322 318l-230 -207l-35 53l203 188
q-121 64 -252 103l43 57q147 -28 279 -94l141 131z" />
    <glyph glyph-name="ntilde" unicode="&#xf1;" horiz-adv-x="1302" 
d="M795 1343q-44 0 -82.5 15.5t-66 41t-52.5 56t-49 60.5t-49.5 55.5t-59 41t-71.5 15.5q-179 0 -179 -254h-51q-10 46 -12 92t13.5 88.5t42.5 75.5t75 52.5t111 19.5q45 0 82 -15.5t62 -39.5t47.5 -53.5t43.5 -59.5t44.5 -54t56.5 -39.5t73 -15.5q33 0 64.5 14t57 43.5
t32.5 75.5t-8 111h71q32 -91 10 -163.5t-80.5 -117.5t-125.5 -45zM352 0h-213q21 38 31.5 78t12 67t1.5 82v764q0 64 -9.5 96t-35.5 60q59 0 104 21.5t64 50.5v-347h8q53 170 176.5 259.5t266.5 89.5q75 0 142.5 -25t120 -71t83.5 -118t31 -161v-619q0 -55 1.5 -82t12 -67
t31.5 -78h-213q21 38 31.5 78t12 67t1.5 82v629q0 135 -78 212t-193 77q-140 0 -264.5 -109.5t-169.5 -312.5v-496q0 -55 1.5 -82t12 -67t31.5 -78z" />
    <glyph glyph-name="ograve" unicode="&#xf2;" horiz-adv-x="1247" 
d="M840 1413q-104 0 -207.5 48t-165.5 124l72 82q46 -58 128.5 -106.5t176.5 -75.5q93 -27 162 -27q-71 -45 -166 -45zM625 -27q-69 0 -139 20.5t-140 68.5t-123.5 118t-87 178t-33.5 240q0 131 33.5 238.5t87 176.5t123.5 116.5t139.5 67.5t139.5 20q69 0 138.5 -20
t139 -67.5t122.5 -116.5t86.5 -176.5t33.5 -238.5q0 -132 -33.5 -240t-86.5 -178t-122.5 -118t-139 -68.5t-138.5 -20.5zM625 55q41 0 84.5 12.5t88.5 38.5t85 70.5t71 102t49.5 140t18.5 179.5q0 117 -26.5 211.5t-67.5 153.5t-95 99t-106 56.5t-102 16.5q-42 0 -85.5 -12
t-89 -36.5t-85.5 -68t-71.5 -100.5t-50 -139.5t-18.5 -180.5q0 -115 26.5 -210t68 -155t95.5 -101.5t106.5 -59t103.5 -17.5z" />
    <glyph glyph-name="oacute" unicode="&#xf3;" horiz-adv-x="1247" 
d="M500 1415q-95 0 -166 45q69 0 162 27q94 27 176.5 75.5t128.5 106.5l71 -82q-62 -76 -165.5 -124t-206.5 -48zM625 -27q-69 0 -139 20.5t-140 68.5t-123.5 118t-87 178t-33.5 240q0 131 33.5 238.5t87 176.5t123.5 116.5t139.5 67.5t139.5 20q69 0 138.5 -20t139 -67.5
t122.5 -116.5t86.5 -176.5t33.5 -238.5q0 -132 -33.5 -240t-86.5 -178t-122.5 -118t-139 -68.5t-138.5 -20.5zM625 55q41 0 84.5 12.5t88.5 38.5t85 70.5t71 102t49.5 140t18.5 179.5q0 117 -26.5 211.5t-67.5 153.5t-95 99t-106 56.5t-102 16.5q-42 0 -85.5 -12t-89 -36.5
t-85.5 -68t-71.5 -100.5t-50 -139.5t-18.5 -180.5q0 -115 26.5 -210t68 -155t95.5 -101.5t106.5 -59t103.5 -17.5z" />
    <glyph glyph-name="ocircumflex" unicode="&#xf4;" horiz-adv-x="1247" 
d="M326 1337l-52 90q174 122 349 306q35 -33 91 -87t89 -85.5t81 -70t95 -67.5l-80 -86q-141 135 -276 324q-137 -180 -297 -324zM625 -27q-69 0 -139 20.5t-140 68.5t-123.5 118t-87 178t-33.5 240q0 131 33.5 238.5t87 176.5t123.5 116.5t139.5 67.5t139.5 20
q69 0 138.5 -20t139 -67.5t122.5 -116.5t86.5 -176.5t33.5 -238.5q0 -132 -33.5 -240t-86.5 -178t-122.5 -118t-139 -68.5t-138.5 -20.5zM625 55q41 0 84.5 12.5t88.5 38.5t85 70.5t71 102t49.5 140t18.5 179.5q0 117 -26.5 211.5t-67.5 153.5t-95 99t-106 56.5t-102 16.5
q-42 0 -85.5 -12t-89 -36.5t-85.5 -68t-71.5 -100.5t-50 -139.5t-18.5 -180.5q0 -115 26.5 -210t68 -155t95.5 -101.5t106.5 -59t103.5 -17.5z" />
    <glyph glyph-name="otilde" unicode="&#xf5;" horiz-adv-x="1247" 
d="M821 1343q-44 0 -82.5 15.5t-66 41t-52.5 56t-49 60.5t-49.5 55.5t-59 41t-71.5 15.5q-179 0 -178 -249v-5h-51q-10 46 -12 92t13.5 88.5t42 75.5t74.5 52.5t111 19.5q52 0 94 -20.5t67.5 -51.5t52.5 -66.5t50.5 -66.5t61.5 -51.5t84 -20.5t85 25t61 79.5t-1 139.5h72
q32 -91 9.5 -163.5t-81 -117.5t-125.5 -45zM625 -27q-69 0 -139 20.5t-140 68.5t-123.5 118t-87 178t-33.5 240q0 131 33.5 238.5t87 176.5t123.5 116.5t139.5 67.5t139.5 20q69 0 138.5 -20t139 -67.5t122.5 -116.5t86.5 -176.5t33.5 -238.5q0 -132 -33.5 -240t-86.5 -178
t-122.5 -118t-139 -68.5t-138.5 -20.5zM625 55q41 0 84.5 12.5t88.5 38.5t85 70.5t71 102t49.5 140t18.5 179.5q0 117 -26.5 211.5t-67.5 153.5t-95 99t-106 56.5t-102 16.5q-42 0 -85.5 -12t-89 -36.5t-85.5 -68t-71.5 -100.5t-50 -139.5t-18.5 -180.5q0 -115 26.5 -210
t68 -155t95.5 -101.5t106.5 -59t103.5 -17.5z" />
    <glyph glyph-name="odieresis" unicode="&#xf6;" horiz-adv-x="1247" 
d="M496 1376q-43 0 -72 29t-29 70q0 42 29 70t72 28q40 0 68 -28t28 -70q0 -41 -28 -70t-68 -29zM760 1376q-42 0 -70 28.5t-28 70.5q0 43 27.5 70.5t70.5 27.5q40 0 69 -28t29 -70q0 -41 -29 -70t-69 -29zM625 -27q-69 0 -139 20.5t-140 68.5t-123.5 118t-87 178t-33.5 240
q0 131 33.5 238.5t87 176.5t123.5 116.5t139.5 67.5t139.5 20q69 0 138.5 -20t139 -67.5t122.5 -116.5t86.5 -176.5t33.5 -238.5q0 -132 -33.5 -240t-86.5 -178t-122.5 -118t-139 -68.5t-138.5 -20.5zM625 55q41 0 84.5 12.5t88.5 38.5t85 70.5t71 102t49.5 140t18.5 179.5
q0 117 -26.5 211.5t-67.5 153.5t-95 99t-106 56.5t-102 16.5q-42 0 -85.5 -12t-89 -36.5t-85.5 -68t-71.5 -100.5t-50 -139.5t-18.5 -180.5q0 -115 26.5 -210t68 -155t95.5 -101.5t106.5 -59t103.5 -17.5z" />
    <glyph glyph-name="divide" unicode="&#xf7;" horiz-adv-x="894" 
d="M428 872q-29 0 -48.5 20.5t-19.5 49.5q0 27 19.5 47.5t48.5 20.5q27 0 47.5 -20.5t20.5 -47.5q0 -29 -20 -49.5t-48 -20.5zM772 590h-649v82h649v-82zM428 233q-29 0 -48.5 20.5t-19.5 49.5q0 27 19.5 47.5t48.5 20.5q27 0 47.5 -20.5t20.5 -47.5q0 -29 -20 -49.5
t-48 -20.5z" />
    <glyph glyph-name="oslash" unicode="&#xf8;" horiz-adv-x="1247" 
d="M932 1524l-101 -355q65 -30 119 -77.5t99 -116t70.5 -165.5t25.5 -212q0 -132 -33.5 -240t-86.5 -178t-122.5 -118t-139 -68.5t-138.5 -20.5q-58 0 -129 19l-95 -332h-75l100 356q-66 29 -122 77t-102.5 118t-73 169.5t-26.5 217.5q0 131 33.5 238.5t87 176.5
t123.5 116.5t139.5 67.5t139.5 20q67 0 137 -21l94 328h76zM225 598q0 -188 64 -310.5t164 -183.5l286 1010q-61 21 -114 21q-42 0 -85.5 -12t-89 -36.5t-85.5 -68t-71.5 -100.5t-50 -139.5t-18.5 -180.5zM625 55q41 0 84.5 12.5t88.5 38.5t85 70.5t71 102t49.5 140
t18.5 179.5q0 184 -60.5 303.5t-156.5 179.5l-285 -1007q55 -19 105 -19z" />
    <glyph glyph-name="ugrave" unicode="&#xf9;" horiz-adv-x="1302" 
d="M848 1413q-104 0 -207.5 48t-165.5 124l72 82q46 -58 128.5 -106.5t176.5 -75.5q93 -27 162 -27q-71 -45 -166 -45zM555 -35q-106 0 -192.5 42t-140.5 128.5t-54 204.5v651q0 64 -9.5 96t-35.5 60q59 0 104 21.5t64 50.5v-889q0 -147 73.5 -221t204.5 -74q69 0 136.5 30
t126.5 85t103 142.5t60 194.5v504q0 64 -9.5 96t-35.5 60q59 0 104 21.5t64 50.5v-1069q0 -62 16 -92.5t66 -57.5h-98q-52 0 -79.5 34t-27.5 91v242h-8q-35 -182 -152.5 -292t-279.5 -110z" />
    <glyph glyph-name="uacute" unicode="&#xfa;" horiz-adv-x="1302" 
d="M508 1415q-95 0 -166 45q69 0 162 27q94 27 176.5 75.5t128.5 106.5l72 -82q-62 -76 -165.5 -124t-207.5 -48zM555 -35q-106 0 -192.5 42t-140.5 128.5t-54 204.5v651q0 64 -9.5 96t-35.5 60q59 0 104 21.5t64 50.5v-889q0 -147 73.5 -221t204.5 -74q69 0 136.5 30
t126.5 85t103 142.5t60 194.5v504q0 64 -9.5 96t-35.5 60q59 0 104 21.5t64 50.5v-1069q0 -62 16 -92.5t66 -57.5h-98q-52 0 -79.5 34t-27.5 91v242h-8q-35 -182 -152.5 -292t-279.5 -110z" />
    <glyph glyph-name="ucircumflex" unicode="&#xfb;" horiz-adv-x="1302" 
d="M334 1337l-51 90q171 120 348 306q35 -33 91 -87t89 -85.5t81 -70t95 -67.5l-80 -86q-141 135 -276 324q-137 -180 -297 -324zM555 -35q-106 0 -192.5 42t-140.5 128.5t-54 204.5v651q0 64 -9.5 96t-35.5 60q59 0 104 21.5t64 50.5v-889q0 -147 73.5 -221t204.5 -74
q69 0 136.5 30t126.5 85t103 142.5t60 194.5v504q0 64 -9.5 96t-35.5 60q59 0 104 21.5t64 50.5v-1069q0 -62 16 -92.5t66 -57.5h-98q-52 0 -79.5 34t-27.5 91v242h-8q-35 -182 -152.5 -292t-279.5 -110z" />
    <glyph glyph-name="udieresis" unicode="&#xfc;" horiz-adv-x="1302" 
d="M504 1376q-43 0 -72 29t-29 70q0 42 29 70t72 28q40 0 68 -28t28 -70q0 -41 -28 -70t-68 -29zM768 1376q-42 0 -70 28.5t-28 70.5q0 43 27.5 70.5t70.5 27.5q40 0 69 -28t29 -70q0 -41 -29 -70t-69 -29zM555 -35q-106 0 -192.5 42t-140.5 128.5t-54 204.5v651
q0 64 -9.5 96t-35.5 60q59 0 104 21.5t64 50.5v-889q0 -147 73.5 -221t204.5 -74q69 0 136.5 30t126.5 85t103 142.5t60 194.5v504q0 64 -9.5 96t-35.5 60q59 0 104 21.5t64 50.5v-1069q0 -62 16 -92.5t66 -57.5h-98q-52 0 -79.5 34t-27.5 91v242h-8q-35 -182 -152.5 -292
t-279.5 -110z" />
    <glyph glyph-name="yacute" unicode="&#xfd;" horiz-adv-x="1144" 
d="M449 1415q-95 0 -166 45q68 0 161 27q94 27 177 75.5t129 106.5l71 -82q-62 -76 -165.5 -124t-206.5 -48zM53 -346l-12 123q123 -29 210.5 -35.5t145 5t96 48.5t59.5 83.5t38 121.5l14 61h-117l-333 943q-41 120 -82 180h182q-9 -87 16 -154l340 -946l230 946
q21 88 10 154h180q-36 -52 -67 -180l-250 -1004q-23 -92 -58 -159t-89 -116t-126 -71.5t-169 -24.5t-218 25z" />
    <glyph glyph-name="thorn" unicode="&#xfe;" horiz-adv-x="1214" 
d="M336 -338h-213q21 38 31.5 78t12 67t1.5 82v1295q0 55 -1.5 82t-12 67t-31.5 78h213q-21 -38 -31.5 -78t-12 -67t-1.5 -82v-291h10q56 78 149.5 117t174.5 39q95 0 176.5 -29.5t138 -80t96.5 -117.5t59 -141.5t19 -152.5q0 -127 -42 -234.5t-111.5 -178.5t-159 -110.5
t-185.5 -39.5q-176 0 -317 123h-8v-199q0 -55 1.5 -82t12 -67t31.5 -78zM602 35q78 0 148 33.5t124 95t85.5 156t31.5 208.5q0 106 -32.5 194t-87.5 144.5t-124.5 87.5t-144.5 31q-88 0 -169 -42t-142 -126v-643q145 -139 311 -139z" />
    <glyph glyph-name="ydieresis" unicode="&#xff;" horiz-adv-x="1144" 
d="M444 1376q-42 0 -71 29t-29 70q0 43 28.5 70.5t71.5 27.5q40 0 68.5 -28t28.5 -70q0 -41 -28.5 -70t-68.5 -29zM709 1376q-42 0 -70.5 28.5t-28.5 70.5q0 43 28 70.5t71 27.5q40 0 69 -28t29 -70q0 -41 -29 -70t-69 -29zM53 -346l-12 123q123 -29 210.5 -35.5t145 5
t96 48.5t59.5 83.5t38 121.5l14 61h-117l-333 943q-41 120 -82 180h182q-9 -87 16 -154l340 -946l230 946q21 88 10 154h180q-36 -52 -67 -180l-250 -1004q-23 -92 -58 -159t-89 -116t-126 -71.5t-169 -24.5t-218 25z" />
    <glyph glyph-name="Amacron" unicode="&#x100;" horiz-adv-x="1486" 
d="M1081 1966h-659v62h659v-62zM330 0h-228q21 33 37 65.5t23 50.5t20 56.5t19 54.5l467 1295q14 37 14 68.5t-14 78.5h168q-22 -86 0 -147l467 -1295q5 -15 17 -50t19.5 -56t24 -55t37.5 -66h-227q24 63 26 111.5t-20 115.5l-131 375h-594l-131 -375q-22 -67 -20 -115.5
t26 -111.5zM752 1442l-271 -766h541z" />
    <glyph glyph-name="amacron" unicode="&#x101;" horiz-adv-x="1214" 
d="M975 1481h-660v61h660v-61zM481 -31q-146 0 -252 96t-106 254q0 91 39 165.5t104.5 121t146 71.5t167.5 25q104 0 198.5 -36t159.5 -103q-125 88 -303 88q-76 0 -143.5 -19.5t-123.5 -58.5t-89 -104.5t-33 -149.5q0 -126 72 -197t180 -71q137 0 264.5 132.5t175.5 351.5
v331q0 119 -87 195t-220 76q-167 0 -346 -131l-29 92q180 123 389 123q114 0 206.5 -40.5t151 -127t58.5 -205.5v-731q0 -84 61 -117h-100q-41 0 -62.5 23.5t-21.5 62.5v301h-4q-25 -105 -73.5 -187.5t-110 -131.5t-130 -74t-139.5 -25z" />
    <glyph glyph-name="Abreve" unicode="&#x102;" horiz-adv-x="1486" 
d="M754 1827q-92 0 -172.5 37t-138 116t-68.5 187h92q8 -83 51.5 -143.5t104 -88.5t129.5 -28q109 0 191.5 68t92.5 192h92q-10 -108 -66.5 -187t-136 -116t-171.5 -37zM330 0h-228q21 33 37 65.5t23 50.5t20 56.5t19 54.5l467 1295q14 37 14 68.5t-14 78.5h168
q-22 -86 0 -147l467 -1295q5 -15 17 -50t19.5 -56t24 -55t37.5 -66h-227q24 63 26 111.5t-20 115.5l-131 375h-594l-131 -375q-22 -67 -20 -115.5t26 -111.5zM752 1442l-271 -766h541z" />
    <glyph glyph-name="abreve" unicode="&#x103;" horiz-adv-x="1214" 
d="M647 1341q-92 0 -172.5 37t-138 116t-68.5 187h92q8 -83 51.5 -143.5t104 -88.5t129.5 -28q109 0 192 68t93 192h92q-10 -108 -66.5 -187t-136.5 -116t-172 -37zM481 -31q-146 0 -252 96t-106 254q0 91 39 165.5t104.5 121t146 71.5t167.5 25q104 0 198.5 -36t159.5 -103
q-125 88 -303 88q-76 0 -143.5 -19.5t-123.5 -58.5t-89 -104.5t-33 -149.5q0 -126 72 -197t180 -71q137 0 264.5 132.5t175.5 351.5v331q0 119 -87 195t-220 76q-167 0 -346 -131l-29 92q180 123 389 123q114 0 206.5 -40.5t151 -127t58.5 -205.5v-731q0 -84 61 -117h-100
q-41 0 -62.5 23.5t-21.5 62.5v301h-4q-25 -105 -73.5 -187.5t-110 -131.5t-130 -74t-139.5 -25z" />
    <glyph glyph-name="Aogonek" unicode="&#x104;" horiz-adv-x="1486" 
d="M1401 0h-113q-83 0 -142 -54t-59 -118q0 -48 42 -81.5t126 -37.5l-47 -67q-110 -21 -177.5 35.5t-67.5 142.5q0 75 57 136t164 75q31 101 -4 196l-131 375h-594l-131 -375q-22 -67 -20 -115.5t26 -111.5h-228q21 33 37 65.5t23 50.5t20 56.5t19 54.5l467 1295
q14 37 14 68.5t-14 78.5h168q-22 -86 0 -147l467 -1295q5 -15 17 -50t19.5 -56t24 -55t37.5 -66zM752 1442l-271 -766h541z" />
    <glyph glyph-name="aogonek" unicode="&#x105;" horiz-adv-x="1214" 
d="M1122 0h-41q-83 0 -141.5 -54t-58.5 -118q0 -48 42 -81.5t126 -37.5l-48 -67q-110 -21 -177.5 35.5t-67.5 142.5q0 71 51.5 129.5t148.5 77.5q-18 24 -18 59v301h-4q-25 -105 -73.5 -187.5t-110 -131.5t-130 -74t-139.5 -25q-146 0 -252 96t-106 254q0 91 39 165.5
t104.5 121t146 71.5t167.5 25q104 0 198.5 -36t159.5 -103q-125 88 -303 88q-76 0 -143.5 -19.5t-123.5 -58.5t-89 -104.5t-33 -149.5q0 -126 72 -197t180 -71q137 0 264.5 132.5t175.5 351.5v331q0 119 -87 195t-220 76q-167 0 -346 -131l-29 92q180 123 389 123
q114 0 206.5 -40.5t151 -127t58.5 -205.5v-731q0 -84 61 -117z" />
    <glyph glyph-name="Cacute" unicode="&#x106;" horiz-adv-x="1202" 
d="M514 1901q-95 0 -166 45q73 0 162 26q94 27 176.5 75.5t128.5 106.5l72 -81q-62 -76 -165.5 -124t-207.5 -48zM741 -31q-128 0 -240 58t-196.5 165.5t-133 274t-48.5 371.5q0 178 30.5 323t84 245t128.5 168t162 99t185 31q176 0 360 -96l-16 -123q-172 119 -340 119
q-99 0 -183 -45.5t-149 -136t-102 -240t-37 -344.5q0 -366 137.5 -564t361.5 -198q144 0 308 86l20 -101q-170 -92 -332 -92z" />
    <glyph glyph-name="cacute" unicode="&#x107;" horiz-adv-x="1042" 
d="M438 1415q-95 0 -166 45q69 0 162 27q94 27 176.5 75.5t128.5 106.5l72 -82q-62 -76 -165.5 -124t-207.5 -48zM608 -31q-221 0 -363.5 172t-142.5 467q0 143 40 260.5t108.5 195t160.5 119.5t197 42q201 0 396 -146l-35 -131q-175 172 -363 172q-164 0 -272.5 -137
t-108.5 -375q0 -259 106 -400.5t281 -141.5q203 0 430 184v-121q-220 -160 -434 -160z" />
    <glyph glyph-name="Cdotaccent" unicode="&#x10a;" horiz-adv-x="1202" 
d="M639 1937q-46 0 -77.5 31.5t-31.5 77.5t31.5 77t77.5 31t77.5 -31t31.5 -77t-31.5 -77.5t-77.5 -31.5zM741 -31q-128 0 -240 58t-196.5 165.5t-133 274t-48.5 371.5q0 178 30.5 323t84 245t128.5 168t162 99t185 31q176 0 360 -96l-16 -123q-172 119 -340 119
q-99 0 -183 -45.5t-149 -136t-102 -240t-37 -344.5q0 -366 137.5 -564t361.5 -198q144 0 308 86l20 -101q-170 -92 -332 -92z" />
    <glyph glyph-name="cdotaccent" unicode="&#x10b;" horiz-adv-x="1042" 
d="M563 1452q-46 0 -77 31.5t-31 77.5t31 77t77 31t77.5 -31t31.5 -77t-31.5 -77.5t-77.5 -31.5zM608 -31q-221 0 -363.5 172t-142.5 467q0 143 40 260.5t108.5 195t160.5 119.5t197 42q201 0 396 -146l-35 -131q-175 172 -363 172q-164 0 -272.5 -137t-108.5 -375
q0 -259 106 -400.5t281 -141.5q203 0 430 184v-121q-220 -160 -434 -160z" />
    <glyph glyph-name="Ccaron" unicode="&#x10c;" horiz-adv-x="1202" 
d="M332 2138l51 90q162 -146 297 -323q132 186 276 323l80 -86q-60 -37 -111 -79t-134 -123t-111 -107q-174 183 -348 305zM741 -31q-128 0 -240 58t-196.5 165.5t-133 274t-48.5 371.5q0 178 30.5 323t84 245t128.5 168t162 99t185 31q176 0 360 -96l-16 -123
q-172 119 -340 119q-99 0 -183 -45.5t-149 -136t-102 -240t-37 -344.5q0 -366 137.5 -564t361.5 -198q144 0 308 86l20 -101q-170 -92 -332 -92z" />
    <glyph glyph-name="ccaron" unicode="&#x10d;" horiz-adv-x="1042" 
d="M211 1673l51 90q162 -146 297 -323q130 183 277 323l79 -86q-60 -37 -111 -79t-134 -123t-111 -107q-174 183 -348 305zM608 -31q-221 0 -363.5 172t-142.5 467q0 143 40 260.5t108.5 195t160.5 119.5t197 42q201 0 396 -146l-35 -131q-175 172 -363 172
q-164 0 -272.5 -137t-108.5 -375q0 -259 106 -400.5t281 -141.5q203 0 430 184v-121q-220 -160 -434 -160z" />
    <glyph glyph-name="Dcaron" unicode="&#x10e;" horiz-adv-x="1306" 
d="M297 2159l51 90q160 -144 297 -324q132 186 277 324l79 -86q-60 -37 -111.5 -80t-133 -122.5t-111.5 -107.5q-177 186 -348 306zM543 0h-420q21 38 31.5 78t12 67t1.5 82v1215q0 55 -1.5 82t-12 67t-31.5 78h416q311 0 479 -195t168 -569q0 -439 -167 -672t-476 -233z
M291 1577v-1497q398 -40 585 173t187 665q0 106 -14.5 194t-40 153.5t-64.5 117t-82 86t-98.5 58.5t-109 36t-118.5 17t-121.5 3.5t-123.5 -6.5z" />
    <glyph glyph-name="dcaron" unicode="&#x10f;" horiz-adv-x="1617" 
d="M592 -33q-92 0 -177.5 37.5t-156.5 110.5t-113.5 196t-42.5 279q0 128 29.5 233t78 175t114 118t135 69t143.5 21q115 0 210.5 -50t137.5 -138h11v459q0 63 -9.5 95t-36.5 60q59 0 104 21.5t64 50.5v-1503q0 -68 17.5 -117t64.5 -84h-63q-64 0 -102.5 55.5t-38.5 110.5
h-11q-53 -94 -150 -146.5t-208 -52.5zM1399 1120h-41q13 71 20 164t3 202.5t-23 182.5h137zM610 43q107 0 204 60t147 161v656q-43 83 -145.5 138.5t-215.5 55.5q-74 0 -138.5 -28t-119 -86.5t-86 -163.5t-31.5 -246t32.5 -249.5t88 -171.5t122.5 -94.5t142 -31.5z" />
    <glyph glyph-name="Dcroat" unicode="&#x110;" horiz-adv-x="1472" 
d="M287 1669h415q312 0 480 -195t168 -569q0 -439 -167 -672t-476 -233h-420q21 38 31.5 78t12 67t1.5 82v588h-178v82h178v545q0 55 -1.5 82t-12 67t-31.5 78zM455 815v-735q398 -40 585 173t187 665q0 106 -14.5 194t-40 153.5t-64.5 117t-82 86t-98.5 58.5t-109 36
t-118.5 17t-121.5 3.5t-123.5 -6.5v-680h358v-82h-358z" />
    <glyph glyph-name="dcroat" unicode="&#x111;" horiz-adv-x="1226" 
d="M1235 1319v-82h-152v-1036q0 -68 17.5 -117t64.5 -84h-63q-64 0 -102.5 55.5t-38.5 110.5h-11q-53 -94 -150 -146.5t-208 -52.5q-92 0 -177.5 37.5t-156.5 110.5t-113.5 196t-42.5 279q0 128 29.5 233t78 175t114 118t135 69t143.5 21q115 0 210.5 -50t137.5 -138h11v219
h-187v82h187v158q0 63 -9.5 95t-36.5 60q59 0 104 21.5t64 50.5v-385h152zM961 264v656q-43 83 -145.5 138.5t-215.5 55.5q-74 0 -138.5 -28t-119 -86.5t-86 -163.5t-31.5 -246t32.5 -249.5t88 -171.5t122.5 -94.5t142 -31.5q107 0 204 60t147 161z" />
    <glyph glyph-name="Emacron" unicode="&#x112;" horiz-adv-x="1144" 
d="M895 1966h-659v62h659v-62zM1006 0h-883q21 38 31.5 78t12 67t1.5 82v1215q0 55 -1.5 82t-12 67t-31.5 78h883l16 -164q-219 58 -731 58v-553h530l8 -82h-538v-822q512 0 731 58z" />
    <glyph glyph-name="emacron" unicode="&#x113;" horiz-adv-x="1277" 
d="M979 1481h-660v61h660v-61zM748 -41q-128 0 -245 46t-206 128.5t-142 207t-53 271.5q0 266 157 436.5t413 170.5q116 0 213 -30.5t159.5 -81.5t97 -115t34.5 -132q0 -72 -38 -137t-112 -118.5t-198.5 -85.5t-282.5 -32q-162 0 -316 60q102 -10 183 -10q162 0 288.5 28.5
t200.5 76t111 104t37 118.5q0 106 -100 183t-263 77q-65 0 -129 -18.5t-124.5 -59t-106 -99t-73.5 -145t-28 -190.5q0 -124 44 -229t118 -174.5t171 -108.5t204 -39q218 0 409 154l29 -100q-210 -156 -452 -156z" />
    <glyph glyph-name="Edotaccent" unicode="&#x116;" horiz-adv-x="1144" 
d="M565 1937q-46 0 -77 31.5t-31 77.5t31 77t77 31t77.5 -31t31.5 -77t-31.5 -77.5t-77.5 -31.5zM1006 0h-883q21 38 31.5 78t12 67t1.5 82v1215q0 55 -1.5 82t-12 67t-31.5 78h883l16 -164q-219 58 -731 58v-553h530l8 -82h-538v-822q512 0 731 58z" />
    <glyph glyph-name="edotaccent" unicode="&#x117;" horiz-adv-x="1277" 
d="M649 1452q-46 0 -77 31.5t-31 77.5t31 77t77 31t77.5 -31t31.5 -77t-31.5 -77.5t-77.5 -31.5zM748 -41q-128 0 -245 46t-206 128.5t-142 207t-53 271.5q0 266 157 436.5t413 170.5q116 0 213 -30.5t159.5 -81.5t97 -115t34.5 -132q0 -72 -38 -137t-112 -118.5
t-198.5 -85.5t-282.5 -32q-162 0 -316 60q102 -10 183 -10q162 0 288.5 28.5t200.5 76t111 104t37 118.5q0 106 -100 183t-263 77q-65 0 -129 -18.5t-124.5 -59t-106 -99t-73.5 -145t-28 -190.5q0 -124 44 -229t118 -174.5t171 -108.5t204 -39q218 0 409 154l29 -100
q-210 -156 -452 -156z" />
    <glyph glyph-name="Eogonek" unicode="&#x118;" horiz-adv-x="1144" 
d="M829 928h-538v-822q512 0 731 58l-16 -164q-83 0 -142 -54t-59 -118q0 -48 42 -81.5t126 -37.5l-47 -67q-56 -10 -103.5 1t-78 37.5t-47.5 63t-17 76.5q0 54 30 102.5t89 77.5h-676q21 38 31.5 78t12 67t1.5 82v1215q0 55 -1.5 82t-12 67t-31.5 78h883l16 -164
q-219 58 -731 58v-553h530z" />
    <glyph glyph-name="eogonek" unicode="&#x119;" horiz-adv-x="1277" 
d="M719 -172q0 -48 42 -81.5t126 -37.5l-47 -67q-56 -10 -103.5 1t-78 37.5t-47.5 63t-17 76.5q0 86 68 145q-115 14 -216.5 65.5t-178 133t-121 197.5t-44.5 251q0 266 157 436.5t413 170.5q116 0 213 -30.5t159.5 -81.5t97 -115t34.5 -132q0 -72 -38 -137t-112 -118.5
t-198.5 -85.5t-282.5 -32q-162 0 -316 60q102 -10 183 -10q162 0 288.5 28.5t200.5 76t111 104t37 118.5q0 106 -100 183t-263 77q-65 0 -129 -18.5t-124.5 -59t-106 -99t-73.5 -145t-28 -190.5q0 -124 44 -229t118 -174.5t171 -108.5t204 -39q218 0 409 154l29 -100
q-194 -142 -403 -154q-36 -26 -57 -61.5t-21 -71.5z" />
    <glyph glyph-name="Ecaron" unicode="&#x11a;" horiz-adv-x="1144" 
d="M213 2159l51 90q160 -144 297 -324q132 186 277 324l80 -86q-47 -29 -95.5 -68t-81 -70t-89 -85.5t-91.5 -86.5q-177 186 -348 306zM1006 0h-883q21 38 31.5 78t12 67t1.5 82v1215q0 55 -1.5 82t-12 67t-31.5 78h883l16 -164q-219 58 -731 58v-553h530l8 -82h-538v-822
q512 0 731 58z" />
    <glyph glyph-name="ecaron" unicode="&#x11b;" horiz-adv-x="1277" 
d="M297 1673l51 90q162 -146 297 -323q130 183 277 323l79 -86q-60 -37 -111 -79t-134 -123t-111 -107q-174 183 -348 305zM748 -41q-128 0 -245 46t-206 128.5t-142 207t-53 271.5q0 266 157 436.5t413 170.5q116 0 213 -30.5t159.5 -81.5t97 -115t34.5 -132
q0 -72 -38 -137t-112 -118.5t-198.5 -85.5t-282.5 -32q-162 0 -316 60q102 -10 183 -10q162 0 288.5 28.5t200.5 76t111 104t37 118.5q0 106 -100 183t-263 77q-65 0 -129 -18.5t-124.5 -59t-106 -99t-73.5 -145t-28 -190.5q0 -124 44 -229t118 -174.5t171 -108.5t204 -39
q218 0 409 154l29 -100q-210 -156 -452 -156z" />
    <glyph glyph-name="Gbreve" unicode="&#x11e;" horiz-adv-x="1314" 
d="M748 1827q-92 0 -172.5 37t-138 116t-68.5 187h92q6 -63 32.5 -113.5t66 -82t87 -48t98.5 -16.5q109 0 192 68t93 192h92q-10 -108 -66.5 -187t-136 -116t-171.5 -37zM1192 0h-412q-657 0 -657 803q0 231 47 405.5t133.5 281.5t201 159.5t255.5 52.5q182 0 391 -84
l-18 -133q-193 108 -369 108q-88 0 -165 -28.5t-142.5 -90t-112 -152.5t-72.5 -223.5t-26 -295.5q0 -157 30.5 -284t80.5 -208.5t117 -137t136 -78.5t142 -23h266v434q0 95 -13.5 161.5t-56.5 153.5h244q-31 -64 -41 -129t-10 -166v-317q0 -148 51 -209z" />
    <glyph glyph-name="gbreve" unicode="&#x11f;" horiz-adv-x="1267" 
d="M606 1341q-92 0 -172.5 37t-138 116t-68.5 187h92q8 -83 51.5 -143.5t104 -88.5t129.5 -28q109 0 192 68t93 192h92q-10 -108 -66.5 -187t-136.5 -116t-172 -37zM582 -377q-154 0 -295 34.5t-232 96.5l11 121q94 -72 238 -110.5t298 -38.5q135 0 248.5 29t189 93
t80.5 152q6 106 -68 186.5t-195.5 121t-268.5 40.5q-200 0 -377 -76v93q124 50 278 59q-193 34 -294 138.5t-101 236.5q0 76 34 148t96 129.5t159.5 93t214.5 36.5q170 42 291 89.5t229 119.5l23 -166q-57 -12 -177 -31t-192 -34q166 -42 255 -145.5t89 -227.5
q0 -133 -100.5 -241t-284.5 -142q235 -29 370 -140t122 -294q-7 -94 -63.5 -167t-147.5 -116.5t-200.5 -65.5t-229.5 -22zM606 500q184 0 285.5 92.5t101.5 220.5q0 130 -103 226t-284 96q-95 0 -171.5 -27.5t-124 -73t-72.5 -102t-25 -117.5t25 -116.5t72 -100t124 -71.5
t172 -27z" />
    <glyph glyph-name="Gdotaccent" unicode="&#x120;" horiz-adv-x="1314" 
d="M745 1937q-46 0 -77 31.5t-31 77.5t31 77t77 31t77.5 -31t31.5 -77t-31.5 -77.5t-77.5 -31.5zM1192 0h-412q-657 0 -657 803q0 231 47 405.5t133.5 281.5t201 159.5t255.5 52.5q182 0 391 -84l-18 -133q-193 108 -369 108q-88 0 -165 -28.5t-142.5 -90t-112 -152.5
t-72.5 -223.5t-26 -295.5q0 -157 30.5 -284t80.5 -208.5t117 -137t136 -78.5t142 -23h266v434q0 95 -13.5 161.5t-56.5 153.5h244q-31 -64 -41 -129t-10 -166v-317q0 -148 51 -209z" />
    <glyph glyph-name="gdotaccent" unicode="&#x121;" horiz-adv-x="1267" 
d="M604 1452q-46 0 -77 31.5t-31 77.5t31 77t77 31t77.5 -31t31.5 -77t-31.5 -77.5t-77.5 -31.5zM582 -377q-154 0 -295 34.5t-232 96.5l11 121q94 -72 238 -110.5t298 -38.5q135 0 248.5 29t189 93t80.5 152q6 106 -68 186.5t-195.5 121t-268.5 40.5q-200 0 -377 -76v93
q124 50 278 59q-193 34 -294 138.5t-101 236.5q0 76 34 148t96 129.5t159.5 93t214.5 36.5q170 42 291 89.5t229 119.5l23 -166q-57 -12 -177 -31t-192 -34q166 -42 255 -145.5t89 -227.5q0 -133 -100.5 -241t-284.5 -142q235 -29 370 -140t122 -294q-7 -94 -63.5 -167
t-147.5 -116.5t-200.5 -65.5t-229.5 -22zM606 500q184 0 285.5 92.5t101.5 220.5q0 130 -103 226t-284 96q-95 0 -171.5 -27.5t-124 -73t-72.5 -102t-25 -117.5t25 -116.5t72 -100t124 -71.5t172 -27z" />
    <glyph glyph-name="uni0122" unicode="&#x122;" horiz-adv-x="1314" 
d="M1192 0h-412q-657 0 -657 803q0 231 47 405.5t133.5 281.5t201 159.5t255.5 52.5q182 0 391 -84l-18 -133q-193 108 -369 108q-88 0 -165 -28.5t-142.5 -90t-112 -152.5t-72.5 -223.5t-26 -295.5q0 -157 30.5 -284t80.5 -208.5t117 -137t136 -78.5t142 -23h266v434
q0 95 -13.5 161.5t-56.5 153.5h244q-31 -64 -41 -129t-10 -166v-317q0 -148 51 -209zM584 -541h-43l61 465h139z" />
    <glyph glyph-name="uni0123" unicode="&#x123;" horiz-adv-x="1267" 
d="M627 1368h-140l209 465h56zM582 -377q-154 0 -295 34.5t-232 96.5l11 121q94 -72 238 -110.5t298 -38.5q135 0 248.5 29t189 93t80.5 152q6 106 -68 186.5t-195.5 121t-268.5 40.5q-200 0 -377 -76v93q124 50 278 59q-193 34 -294 138.5t-101 236.5q0 76 34 148t96 129.5
t159.5 93t214.5 36.5q170 42 291 89.5t229 119.5l23 -166q-57 -12 -177 -31t-192 -34q166 -42 255 -145.5t89 -227.5q0 -133 -100.5 -241t-284.5 -142q235 -29 370 -140t122 -294q-7 -94 -63.5 -167t-147.5 -116.5t-200.5 -65.5t-229.5 -22zM606 500q184 0 285.5 92.5
t101.5 220.5q0 130 -103 226t-284 96q-95 0 -171.5 -27.5t-124 -73t-72.5 -102t-25 -117.5t25 -116.5t72 -100t124 -71.5t172 -27z" />
    <glyph glyph-name="Hbar" unicode="&#x126;" horiz-adv-x="1323" 
d="M1155 1442v-1215q0 -55 1.5 -82t12 -67t31.5 -78h-213q21 38 31.5 78t12 67t1.5 82v654h-741v-654q0 -55 1.5 -82t12 -67t31.5 -78h-213q21 38 31.5 78t12 67t1.5 82v1215q0 55 -1.5 82t-12 67t-31.5 78h213q-21 -38 -31.5 -78t-12 -67t-1.5 -82v-170h741v170
q0 55 -1.5 82t-12 67t-31.5 78h213q-21 -38 -31.5 -78t-12 -67t-1.5 -82zM291 1190v-229h741v229h-741z" />
    <glyph glyph-name="hbar" unicode="&#x127;" horiz-adv-x="1368" 
d="M1245 0h-213q21 38 31.5 78t12 67t1.5 82v629q0 135 -78 212t-192 77q-140 0 -264.5 -109.5t-169.5 -312.5v-496q0 -55 1.5 -82t12 -67t31.5 -78h-213q21 38 31.5 78t12 67t1.5 82v1030h-176v82h176v136q0 64 -9.5 95.5t-35.5 59.5q59 0 104 21.5t64 50.5v-363h360v-82
h-360v-385h8q53 170 176 259.5t266 89.5q75 0 142.5 -25t120 -71t83.5 -118t31 -161v-619q0 -55 1.5 -82t12 -67t31.5 -78z" />
    <glyph glyph-name="Imacron" unicode="&#x12a;" horiz-adv-x="458" 
d="M553 1958h-659v61h659v-61zM336 0h-213q21 38 31.5 78t12 67t1.5 82v1215q0 55 -1.5 82t-12 67t-31.5 78h213q-21 -38 -31.5 -78t-12 -67t-1.5 -82v-1215q0 -55 1.5 -82t12 -67t31.5 -78z" />
    <glyph glyph-name="imacron" unicode="&#x12b;" horiz-adv-x="458" 
d="M567 1481h-659v61h659v-61zM336 0h-213q21 38 31.5 78t12 67t1.5 82v791q0 64 -9.5 96t-35.5 60q59 0 104 21t64 50v-1018q0 -55 1.5 -82t12 -67t31.5 -78z" />
    <glyph glyph-name="Iogonek" unicode="&#x12e;" horiz-adv-x="458" 
d="M291 1442v-1215q0 -55 1.5 -82t12 -67t31.5 -78h-21q-83 0 -141.5 -54t-58.5 -118q0 -48 42 -81.5t126 -37.5l-47 -67q-56 -10 -103.5 1t-78 37.5t-47.5 63t-17 76.5q0 59 34.5 109.5t102.5 78.5q19 36 28.5 75t11 65.5t1.5 78.5v1215q0 55 -1.5 82t-12 67t-31.5 78h213
q-21 -38 -31.5 -78t-12 -67t-1.5 -82z" />
    <glyph glyph-name="iogonek" unicode="&#x12f;" horiz-adv-x="458" 
d="M229 1452q-46 0 -77 31.5t-31 77.5t31 77t77 31t77.5 -31t31.5 -77t-31.5 -77.5t-77.5 -31.5zM291 1245v-1018q0 -55 1.5 -82t12 -67t31.5 -78h-21q-83 0 -141.5 -54t-58.5 -118q0 -48 42 -81.5t126 -37.5l-47 -67q-56 -10 -103.5 1t-78 37.5t-47.5 63t-17 76.5
q0 59 34.5 109.5t102.5 78.5q19 36 28.5 75t11 65.5t1.5 78.5v791q0 64 -9.5 96t-35.5 60q59 0 104 21t64 50z" />
    <glyph glyph-name="Idotaccent" unicode="&#x130;" horiz-adv-x="458" 
d="M229 1937q-46 0 -77 31.5t-31 77.5t31 77t77 31t77.5 -31t31.5 -77t-31.5 -77.5t-77.5 -31.5zM336 0h-213q21 38 31.5 78t12 67t1.5 82v1215q0 55 -1.5 82t-12 67t-31.5 78h213q-21 -38 -31.5 -78t-12 -67t-1.5 -82v-1215q0 -55 1.5 -82t12 -67t31.5 -78z" />
    <glyph glyph-name="dotlessi" unicode="&#x131;" horiz-adv-x="458" 
d="M336 0h-213q21 38 31.5 78t12 67t1.5 82v791q0 64 -9.5 96t-35.5 60q59 0 104 21t64 50v-1018q0 -55 1.5 -82t12 -67t31.5 -78z" />
    <glyph glyph-name="uni0136" unicode="&#x136;" horiz-adv-x="1179" 
d="M336 0h-213q21 38 31.5 78t12 67t1.5 82v1215q0 55 -1.5 82t-12 67t-31.5 78h213q-21 -38 -31.5 -78t-12 -67t-1.5 -82v-549q113 0 201.5 49.5t157.5 141t143 243.5q67 138 122 342h123q-61 -198 -127.5 -340.5t-142 -234t-155.5 -142t-177 -71.5v-15q96 0 171 -11.5
t141.5 -39t110 -79.5t61.5 -126l90 -383q24 -104 84 -227h-213q30 69 14 158l-66 377q-10 57 -35 102.5t-55 75.5t-78 53t-86 35t-97 21t-93.5 12t-93.5 6v-613q0 -55 1.5 -82t12 -67t31.5 -78zM528 -541h-43l62 465h139z" />
    <glyph glyph-name="uni0137" unicode="&#x137;" horiz-adv-x="1159" 
d="M336 0h-213q21 38 31.5 78t12 67t1.5 82v1250q0 64 -9.5 95.5t-35.5 59.5q59 0 104 21.5t64 50.5v-1006q81 37 198.5 118t229.5 185.5t149 182.5h158q-68 -83 -144.5 -155.5t-160 -133t-145 -100t-146.5 -88.5v-7q66 16 120 11t104 -35t89.5 -71t78 -96.5t69 -112
t61.5 -117t57 -112t54.5 -97t54.5 -70.5h-178q-130 288 -167 359q-107 205 -208 270q-117 75 -274 6v-408q0 -55 1.5 -82t12 -67t31.5 -78zM432 -541h-43l62 465h139z" />
    <glyph glyph-name="Lacute" unicode="&#x139;" horiz-adv-x="1136" 
d="M74 1901q-95 0 -166 45q73 0 162 26q94 27 176.5 75.5t128.5 106.5l71 -81q-62 -76 -165.5 -124t-206.5 -48zM973 0h-846q15 37 20.5 53t13 63.5t7.5 110.5v1215q0 55 -1.5 82t-12 67t-31.5 78h213q-21 -38 -31.5 -78t-12 -67t-1.5 -82v-1336h172q105 0 170 2t173 15.5
t208 40.5z" />
    <glyph glyph-name="lacute" unicode="&#x13a;" horiz-adv-x="458" 
d="M297 1831q-95 0 -166 45q69 0 162 27q94 27 176.5 75.5t128.5 106.5l72 -82q-62 -76 -165.5 -124t-207.5 -48zM336 0h-213q21 38 31.5 78t12 67t1.5 82v1243q0 64 -9.5 96t-35.5 60q59 0 104 21.5t64 50.5v-1471q0 -55 1.5 -82t12 -67t31.5 -78z" />
    <glyph glyph-name="uni013B" unicode="&#x13b;" horiz-adv-x="1136" 
d="M973 0h-846q15 37 20.5 53t13 63.5t7.5 110.5v1215q0 55 -1.5 82t-12 67t-31.5 78h213q-21 -38 -31.5 -78t-12 -67t-1.5 -82v-1336h172q105 0 170 2t173 15.5t208 40.5zM367 -541h-43l61 465h139z" />
    <glyph glyph-name="uni013C" unicode="&#x13c;" horiz-adv-x="475" 
d="M352 0h-213q21 38 31.5 78t12 67t1.5 82v1243q0 64 -9.5 96t-35.5 60q59 0 104 21.5t64 50.5v-1471q0 -55 1.5 -82t12 -67t31.5 -78zM166 -541h-43l61 465h140z" />
    <glyph glyph-name="Lcaron" unicode="&#x13d;" horiz-adv-x="1337" 
d="M973 0h-846q15 37 20.5 53t13 63.5t7.5 110.5v1215q0 55 -1.5 82t-12 67t-31.5 78h213q-21 -38 -31.5 -78t-12 -67t-1.5 -82v-1336h172q105 0 170 2t173 15.5t208 40.5zM1092 1120h-41q13 71 20 164t3 202.5t-23 182.5h137z" />
    <glyph glyph-name="lcaron" unicode="&#x13e;" horiz-adv-x="737" 
d="M336 0h-213q21 38 31.5 78t12 67t1.5 82v1243q0 64 -9.5 96t-35.5 60q59 0 104 21.5t64 50.5v-1471q0 -55 1.5 -82t12 -67t31.5 -78zM610 1120h-41q13 71 20 164t3 202.5t-23 182.5h138z" />
    <glyph glyph-name="Lslash" unicode="&#x141;" horiz-adv-x="1136" 
d="M291 106h172q105 0 170 2t173 15.5t208 40.5l-41 -164h-846q15 37 20.5 53t13 63.5t7.5 110.5v561l-258 -96v74l258 96v580q0 55 -1.5 82t-12 67t-31.5 78h213q-21 -38 -31.5 -78t-12 -67t-1.5 -82v-535l459 170v-73l-459 -170v-728z" />
    <glyph glyph-name="lslash" unicode="&#x142;" horiz-adv-x="458" 
d="M567 1292v-73l-276 -142v-850q0 -55 1.5 -82t12 -67t31.5 -78h-213q21 38 31.5 78t12 67t1.5 82v789l-211 -109v74l211 109v380q0 64 -9.5 96t-35.5 60q59 0 104 21.5t64 50.5v-547z" />
    <glyph glyph-name="Nacute" unicode="&#x143;" horiz-adv-x="1388" 
d="M559 1901q-95 0 -166 45q73 0 162 26q94 27 176.5 75.5t128.5 106.5l72 -81q-62 -76 -165.5 -124t-207.5 -48zM336 0h-213q21 38 31.5 78t12 67t1.5 82v1166q0 195 -41 276h98q86 0 127.5 -34.5t85.5 -133.5l639 -1413v1354q0 55 -1.5 82t-12 67t-31.5 78h213
q-21 -38 -31.5 -78t-12 -67t-1.5 -82v-1215q0 -55 1.5 -82t12 -67t31.5 -78h-88q-52 0 -87 9.5t-70.5 38t-67 79.5t-68.5 135l-573 1307v-1342q0 -55 1.5 -82t12 -67t31.5 -78z" />
    <glyph glyph-name="nacute" unicode="&#x144;" horiz-adv-x="1286" 
d="M457 1415q-95 0 -166 45q69 0 162 27q94 27 176.5 75.5t128.5 106.5l71 -82q-62 -76 -165.5 -124t-206.5 -48zM336 0h-213q21 38 31.5 78t12 67t1.5 82v764q0 64 -9.5 96t-35.5 60q59 0 104 21.5t64 50.5v-347h8q53 170 176 259.5t266 89.5q75 0 142.5 -25t120 -71
t83.5 -118t31 -161v-619q0 -55 1.5 -82t12 -67t31.5 -78h-213q21 38 31.5 78t12 67t1.5 82v629q0 135 -78 212t-192 77q-140 0 -264.5 -109.5t-169.5 -312.5v-496q0 -55 1.5 -82t12 -67t31.5 -78z" />
    <glyph glyph-name="uni0145" unicode="&#x145;" horiz-adv-x="1388" 
d="M336 0h-213q21 38 31.5 78t12 67t1.5 82v1166q0 195 -41 276h98q86 0 127.5 -34.5t85.5 -133.5l639 -1413v1354q0 55 -1.5 82t-12 67t-31.5 78h213q-21 -38 -31.5 -78t-12 -67t-1.5 -82v-1215q0 -55 1.5 -82t12 -67t31.5 -78h-88q-52 0 -87 9.5t-70.5 38t-67 79.5
t-68.5 135l-573 1307v-1342q0 -55 1.5 -82t12 -67t31.5 -78zM604 -541h-43l62 465h139z" />
    <glyph glyph-name="uni0146" unicode="&#x146;" horiz-adv-x="1286" 
d="M336 0h-213q21 38 31.5 78t12 67t1.5 82v764q0 64 -9.5 96t-35.5 60q59 0 104 21.5t64 50.5v-347h8q53 170 176 259.5t266 89.5q75 0 142.5 -25t120 -71t83.5 -118t31 -161v-619q0 -55 1.5 -82t12 -67t31.5 -78h-213q21 38 31.5 78t12 67t1.5 82v629q0 135 -78 212
t-192 77q-140 0 -264.5 -109.5t-169.5 -312.5v-496q0 -55 1.5 -82t12 -67t31.5 -78zM502 -541h-43l61 465h139z" />
    <glyph glyph-name="Ncaron" unicode="&#x147;" horiz-adv-x="1388" 
d="M332 2159l51 90q160 -144 297 -324q135 189 276 324l80 -86q-60 -37 -111.5 -80t-133 -122.5t-111.5 -107.5q-177 186 -348 306zM336 0h-213q21 38 31.5 78t12 67t1.5 82v1166q0 195 -41 276h98q86 0 127.5 -34.5t85.5 -133.5l639 -1413v1354q0 55 -1.5 82t-12 67
t-31.5 78h213q-21 -38 -31.5 -78t-12 -67t-1.5 -82v-1215q0 -55 1.5 -82t12 -67t31.5 -78h-88q-52 0 -87 9.5t-70.5 38t-67 79.5t-68.5 135l-573 1307v-1342q0 -55 1.5 -82t12 -67t31.5 -78z" />
    <glyph glyph-name="ncaron" unicode="&#x148;" horiz-adv-x="1286" 
d="M229 1673l52 90q162 -146 297 -323q132 186 276 323l80 -86q-60 -37 -111 -79t-134 -123t-111 -107q-172 181 -349 305zM336 0h-213q21 38 31.5 78t12 67t1.5 82v764q0 64 -9.5 96t-35.5 60q59 0 104 21.5t64 50.5v-347h8q53 170 176 259.5t266 89.5q75 0 142.5 -25
t120 -71t83.5 -118t31 -161v-619q0 -55 1.5 -82t12 -67t31.5 -78h-213q21 38 31.5 78t12 67t1.5 82v629q0 135 -78 212t-192 77q-140 0 -264.5 -109.5t-169.5 -312.5v-496q0 -55 1.5 -82t12 -67t31.5 -78z" />
    <glyph glyph-name="Eng" unicode="&#x14a;" horiz-adv-x="1388" 
d="M883 -389l-45 96q118 35 173 113t17 157l-737 1530v-1280q0 -55 1.5 -82t12 -67t31.5 -78h-213q21 38 31.5 78t12 67t1.5 82v1166q0 195 -41 276h98q85 0 125 -33.5t88 -134.5l639 -1351v1292q0 55 -1.5 82t-12 67t-31.5 78h213q-21 -38 -31.5 -78t-12 -67t-1.5 -82
v-1368q0 -372 -317 -463z" />
    <glyph glyph-name="eng" unicode="&#x14b;" horiz-adv-x="1241" 
d="M805 -254v125q31 0 57.5 7.5t45 18.5t33.5 30.5t24 37t15.5 44t9.5 45.5t4.5 48t1.5 45.5t-0.5 43.5t-0.5 36v629q0 135 -78 212t-192 77q-140 0 -264.5 -109.5t-169.5 -312.5v-496q0 -55 1.5 -82t12 -67t31.5 -78h-213q21 38 31.5 78t12 67t1.5 82v764q0 64 -9.5 96
t-35.5 60q59 0 104 21.5t64 50.5v-347h8q53 170 176 259.5t266 89.5q75 0 142.5 -25t120 -71t83.5 -118t31 -161v-619q0 -112 -20.5 -199.5t-52.5 -139t-75 -85t-83 -45.5t-82 -12z" />
    <glyph glyph-name="Omacron" unicode="&#x14c;" horiz-adv-x="1337" 
d="M999 1999h-659v61h659v-61zM670 -35q-135 0 -240.5 66t-172 183t-100.5 273t-34 342q0 426 136.5 649.5t410.5 223.5t410.5 -223.5t136.5 -649.5q0 -186 -34 -342t-100.5 -273t-172 -183t-240.5 -66zM670 88q19 0 36 1t49.5 8.5t60 20.5t63.5 39.5t64.5 62.5t58 93
t48.5 128t31.5 170.5t12.5 217.5q0 147 -14.5 264t-43 198t-65.5 138t-86.5 89.5t-101 46.5t-113.5 14q-74 0 -133.5 -19.5t-115 -71.5t-93 -134.5t-60 -215.5t-22.5 -309q0 -118 11.5 -217.5t30 -170.5t47 -128t56 -93t63 -62.5t62.5 -39.5t61 -20.5t52 -8.5t41 -1z" />
    <glyph glyph-name="omacron" unicode="&#x14d;" horiz-adv-x="1247" 
d="M954 1481h-659v61h659v-61zM625 -27q-69 0 -139 20.5t-140 68.5t-123.5 118t-87 178t-33.5 240q0 131 33.5 238.5t87 176.5t123.5 116.5t139.5 67.5t139.5 20q69 0 138.5 -20t139 -67.5t122.5 -116.5t86.5 -176.5t33.5 -238.5q0 -132 -33.5 -240t-86.5 -178t-122.5 -118
t-139 -68.5t-138.5 -20.5zM625 55q41 0 84.5 12.5t88.5 38.5t85 70.5t71 102t49.5 140t18.5 179.5q0 117 -26.5 211.5t-67.5 153.5t-95 99t-106 56.5t-102 16.5q-42 0 -85.5 -12t-89 -36.5t-85.5 -68t-71.5 -100.5t-50 -139.5t-18.5 -180.5q0 -115 26.5 -210t68 -155
t95.5 -101.5t106.5 -59t103.5 -17.5z" />
    <glyph glyph-name="Ohungarumlaut" unicode="&#x150;" horiz-adv-x="1337" 
d="M365 1847q98 40 159.5 134.5t61.5 242.5h157q0 -111 -55.5 -199t-141.5 -133t-181 -45zM635 1847q42 23 81.5 57.5t77 81t60.5 109t23 129.5h157q0 -96 -54.5 -183t-147 -140.5t-197.5 -53.5zM670 -35q-135 0 -240.5 66t-172 183t-100.5 273t-34 342q0 426 136.5 649.5
t410.5 223.5t410.5 -223.5t136.5 -649.5q0 -186 -34 -342t-100.5 -273t-172 -183t-240.5 -66zM670 88q19 0 36 1t49.5 8.5t60 20.5t63.5 39.5t64.5 62.5t58 93t48.5 128t31.5 170.5t12.5 217.5q0 147 -14.5 264t-43 198t-65.5 138t-86.5 89.5t-101 46.5t-113.5 14
q-74 0 -133.5 -19.5t-115 -71.5t-93 -134.5t-60 -215.5t-22.5 -309q0 -118 11.5 -217.5t30 -170.5t47 -128t56 -93t63 -62.5t62.5 -39.5t61 -20.5t52 -8.5t41 -1z" />
    <glyph glyph-name="ohungarumlaut" unicode="&#x151;" horiz-adv-x="1247" 
d="M381 1362q98 40 159.5 134t61.5 243h158q0 -111 -56 -199t-142 -133t-181 -45zM651 1362q42 23 81.5 57.5t77 81t60.5 109t23 129.5h158q0 -96 -54.5 -183t-147.5 -140.5t-198 -53.5zM625 -27q-69 0 -139 20.5t-140 68.5t-123.5 118t-87 178t-33.5 240q0 131 33.5 238.5
t87 176.5t123.5 116.5t139.5 67.5t139.5 20q69 0 138.5 -20t139 -67.5t122.5 -116.5t86.5 -176.5t33.5 -238.5q0 -132 -33.5 -240t-86.5 -178t-122.5 -118t-139 -68.5t-138.5 -20.5zM625 55q41 0 84.5 12.5t88.5 38.5t85 70.5t71 102t49.5 140t18.5 179.5q0 117 -26.5 211.5
t-67.5 153.5t-95 99t-106 56.5t-102 16.5q-42 0 -85.5 -12t-89 -36.5t-85.5 -68t-71.5 -100.5t-50 -139.5t-18.5 -180.5q0 -115 26.5 -210t68 -155t95.5 -101.5t106.5 -59t103.5 -17.5z" />
    <glyph glyph-name="OE" unicode="&#x152;" horiz-adv-x="2074" 
d="M1759 928h-538v-822q512 0 731 58l-17 -164h-882q21 38 31.5 78t12 67t1.5 82v17q-146 -279 -428 -279q-135 0 -240.5 66t-172 183t-100.5 273t-34 342q0 426 136.5 649.5t410.5 223.5q290 0 428 -254q0 74 -8 121t-37 100h882l17 -164q-219 58 -731 58v-553h530zM670 88
q19 0 36 1t49.5 8.5t60 20.5t63.5 39.5t64.5 62.5t58 93t48.5 128t31.5 170.5t12.5 217.5q0 147 -14.5 264t-43 198t-65.5 138t-86.5 89.5t-101 46.5t-113.5 14q-74 0 -133.5 -19.5t-115 -71.5t-93 -134.5t-60 -215.5t-22.5 -309q0 -118 11.5 -217.5t30 -170.5t47 -128
t56 -93t63 -62.5t62.5 -39.5t61 -20.5t52 -8.5t41 -1z" />
    <glyph glyph-name="oe" unicode="&#x153;" horiz-adv-x="2220" 
d="M2114 215l28 -100q-210 -156 -452 -156q-192 0 -351.5 98.5t-236.5 270.5q-32 -91 -87.5 -162t-121.5 -111.5t-134 -61t-134 -20.5q-69 0 -139 20.5t-140 68.5t-123.5 118t-87 178t-33.5 240q0 131 33.5 238.5t87 176.5t123.5 116.5t139.5 67.5t139.5 20q65 0 131 -19
t130.5 -57t120 -104.5t89.5 -153.5q64 156 199.5 246t318.5 90q116 0 213 -30.5t159.5 -81.5t97 -115t34.5 -132q0 -72 -38 -137t-112 -118.5t-198.5 -85.5t-282.5 -32q-162 0 -316 60q102 -10 183 -10q162 0 288.5 28.5t200.5 76t111 104t37 118.5q0 106 -100 183t-263 77
q-65 0 -129 -18.5t-124.5 -59t-106 -99t-73.5 -145t-28 -190.5q0 -124 44 -229t118 -174.5t171 -108.5t204 -39q219 0 410 154zM625 55q41 0 84.5 12.5t88.5 38.5t85 70.5t71 102t49.5 140t18.5 179.5q0 117 -26.5 211.5t-67.5 153.5t-95 99t-106 56.5t-102 16.5
q-42 0 -85.5 -12t-89 -36.5t-85.5 -68t-71.5 -100.5t-50 -139.5t-18.5 -180.5q0 -115 26.5 -210t68 -155t95.5 -101.5t106.5 -59t103.5 -17.5z" />
    <glyph glyph-name="Racute" unicode="&#x154;" horiz-adv-x="1153" 
d="M463 1901q-95 0 -166 45q73 0 162 26q94 27 176.5 75.5t128.5 106.5l72 -81q-62 -76 -165.5 -124t-207.5 -48zM336 0h-213q21 38 31.5 78t12 67t1.5 82v1215q0 153 -41 227h440q111 0 200 -34t144 -91.5t84 -128.5t29 -149t-31 -152.5t-87 -135t-144.5 -99.5t-194.5 -45
v-7q99 -14 172 -48.5t116.5 -87t71 -112.5t44 -136t28 -145t30 -152t42.5 -146h-199q19 103 -4 375q-36 418 -465 418h-112v-566q0 -55 1.5 -82t12 -67t31.5 -78zM291 1604v-723h84q141 0 248.5 33t169 88.5t92 121.5t30.5 140q0 66 -24.5 126.5t-70.5 108.5t-119 76.5
t-164 28.5h-246z" />
    <glyph glyph-name="racute" unicode="&#x155;" horiz-adv-x="868" 
d="M369 1415q-95 0 -166 45q69 0 162 27q94 27 176.5 75.5t128.5 106.5l71 -82q-62 -76 -165.5 -124t-206.5 -48zM336 0h-213q21 38 31.5 78t12 67t1.5 82v764q0 64 -9.5 96t-35.5 60q59 0 104 21.5t64 50.5v-424h14q70 264 213.5 370t341.5 11l-41 -123q-95 49 -173 43
t-138 -47t-104.5 -116t-72 -164t-40.5 -191v-351q0 -55 1.5 -82t12 -67t31.5 -78z" />
    <glyph glyph-name="uni0156" unicode="&#x156;" horiz-adv-x="1153" 
d="M336 0h-213q21 38 31.5 78t12 67t1.5 82v1215q0 153 -41 227h440q111 0 200 -34t144 -91.5t84 -128.5t29 -149t-31 -152.5t-87 -135t-144.5 -99.5t-194.5 -45v-7q99 -14 172 -48.5t116.5 -87t71 -112.5t44 -136t28 -145t30 -152t42.5 -146h-199q19 103 -4 375
q-36 418 -465 418h-112v-566q0 -55 1.5 -82t12 -67t31.5 -78zM291 1604v-723h84q141 0 248.5 33t169 88.5t92 121.5t30.5 140q0 66 -24.5 126.5t-70.5 108.5t-119 76.5t-164 28.5h-246zM508 -541h-43l61 465h140z" />
    <glyph glyph-name="uni0157" unicode="&#x157;" horiz-adv-x="868" 
d="M336 0h-213q21 38 31.5 78t12 67t1.5 82v764q0 64 -9.5 96t-35.5 60q59 0 104 21.5t64 50.5v-424h14q70 264 213.5 370t341.5 11l-41 -123q-95 49 -173 43t-138 -47t-104.5 -116t-72 -164t-40.5 -191v-351q0 -55 1.5 -82t12 -67t31.5 -78zM141 -541h-43l62 465h139z" />
    <glyph glyph-name="Rcaron" unicode="&#x158;" horiz-adv-x="1153" 
d="M236 2159l51 90q160 -144 297 -324q135 189 276 324l80 -86q-60 -37 -111.5 -80t-133 -122.5t-111.5 -107.5q-177 186 -348 306zM336 0h-213q21 38 31.5 78t12 67t1.5 82v1215q0 153 -41 227h440q111 0 200 -34t144 -91.5t84 -128.5t29 -149t-31 -152.5t-87 -135
t-144.5 -99.5t-194.5 -45v-7q99 -14 172 -48.5t116.5 -87t71 -112.5t44 -136t28 -145t30 -152t42.5 -146h-199q19 103 -4 375q-36 418 -465 418h-112v-566q0 -55 1.5 -82t12 -67t31.5 -78zM291 1604v-723h84q141 0 248.5 33t169 88.5t92 121.5t30.5 140q0 66 -24.5 126.5
t-70.5 108.5t-119 76.5t-164 28.5h-246z" />
    <glyph glyph-name="rcaron" unicode="&#x159;" horiz-adv-x="868" 
d="M141 1673l52 90q159 -143 296 -323q130 183 277 323l80 -86q-47 -29 -95.5 -68t-81 -69t-89.5 -85t-91 -87q-174 183 -348 305zM336 0h-213q21 38 31.5 78t12 67t1.5 82v764q0 64 -9.5 96t-35.5 60q59 0 104 21.5t64 50.5v-424h14q70 264 213.5 370t341.5 11l-41 -123
q-95 49 -173 43t-138 -47t-104.5 -116t-72 -164t-40.5 -191v-351q0 -55 1.5 -82t12 -67t31.5 -78z" />
    <glyph glyph-name="Sacute" unicode="&#x15a;" horiz-adv-x="1228" 
d="M524 1901q-95 0 -166 45q73 0 162 26q94 27 176.5 75.5t128.5 106.5l72 -81q-62 -76 -165.5 -124t-207.5 -48zM608 -27q-150 0 -289.5 63t-236.5 185l41 115q96 -128 225 -192t262 -64q173 0 293.5 99t120.5 263q0 75 -30 140.5t-81.5 115t-117.5 94.5t-139.5 84
t-146.5 78t-139 82t-117.5 89.5t-81.5 107.5t-30 131q0 85 39.5 151t108.5 106t158 60.5t192 20.5q204 0 405 -72l-8 -137q-70 48 -175.5 75t-213.5 27q-104 0 -188 -23.5t-139.5 -77t-55.5 -130.5q0 -53 30 -101t81.5 -87t117.5 -76.5t139.5 -75.5t146.5 -78.5t139 -90.5
t117.5 -106t81.5 -131t30 -161q0 -114 -45 -207t-120.5 -153t-171.5 -92t-202 -32z" />
    <glyph glyph-name="sacute" unicode="&#x15b;" horiz-adv-x="1204" 
d="M422 1415q-95 0 -166 45q69 0 162 27q94 27 176.5 75.5t128.5 106.5l72 -82q-62 -76 -165.5 -124t-207.5 -48zM139 84l25 123q161 -82 314.5 -109.5t265 -3t180 94t69.5 171.5q1 59 -29 100t-81 63t-117.5 35t-140 21.5t-147 18.5t-139.5 29t-117 49t-80.5 84t-28.5 129
q1 89 52 155.5t131 102t181.5 52t203.5 10t197 -29.5t162 -61l-16 -123q-100 57 -236.5 81t-258 12.5t-208 -70t-88.5 -154.5q-1 -59 30 -98.5t83.5 -59.5t121 -32t143.5 -19.5t150 -17t141.5 -31t116.5 -55t76.5 -94t20.5 -144.5q-7 -99 -73 -175.5t-170 -115.5
t-227.5 -49.5t-257.5 18.5t-249 93z" />
    <glyph glyph-name="Scedilla" unicode="&#x15e;" horiz-adv-x="1228" 
d="M1147 457q0 -109 -41 -199t-110.5 -149.5t-159 -94t-189.5 -39.5l-26 -45q110 -4 170.5 -57t60.5 -125q0 -73 -59 -132t-180 -86t-304 15v43q202 -42 328.5 19t126.5 157q0 56 -51.5 96.5t-149.5 47.5l29 65q-146 3 -281.5 66t-228.5 182l41 115q96 -128 225 -192
t262 -64q173 0 293.5 99t120.5 263q0 75 -30 140.5t-81.5 115t-117.5 94.5t-139.5 84t-146.5 78t-139 82t-117.5 89.5t-81.5 107.5t-30 131q0 85 39.5 151t108.5 106t158 60.5t192 20.5q204 0 405 -72l-8 -137q-70 48 -175.5 75t-213.5 27q-104 0 -188 -23.5t-139.5 -77
t-55.5 -130.5q0 -53 30 -101t81.5 -87t117.5 -76.5t139.5 -75.5t146.5 -78.5t139 -90.5t117.5 -106t81.5 -131t30 -161z" />
    <glyph glyph-name="scedilla" unicode="&#x15f;" horiz-adv-x="1204" 
d="M233 864q-1 -59 30 -98.5t83.5 -59.5t121 -32t143.5 -19.5t150 -17t141.5 -31t116.5 -55t76.5 -94t20.5 -144.5q-8 -113 -90.5 -194.5t-208.5 -118t-274 -29.5l-25 -41q110 -4 171 -57t61 -125q0 -73 -59 -132t-180 -86t-304 15v43q202 -42 328.5 19t126.5 157
q0 56 -51.5 96.5t-149.5 47.5l31 67q-192 19 -353 109l25 123q161 -82 314.5 -109.5t265 -3t180 94t69.5 171.5q1 59 -29 100t-81 63t-117.5 35t-140 21.5t-147 18.5t-139.5 29t-117 49t-80.5 84t-28.5 129q1 89 52 155.5t131 102t181.5 52t203.5 10t197 -29.5t162 -61
l-16 -123q-100 57 -236.5 81t-258 12.5t-208 -70t-88.5 -154.5z" />
    <glyph glyph-name="Scaron" unicode="&#x160;" horiz-adv-x="1228" 
d="M297 2159l51 90q160 -144 297 -324q132 186 277 324l79 -86q-60 -37 -111.5 -80t-133 -122.5t-111.5 -107.5q-177 186 -348 306zM608 -27q-150 0 -289.5 63t-236.5 185l41 115q96 -128 225 -192t262 -64q173 0 293.5 99t120.5 263q0 75 -30 140.5t-81.5 115t-117.5 94.5
t-139.5 84t-146.5 78t-139 82t-117.5 89.5t-81.5 107.5t-30 131q0 85 39.5 151t108.5 106t158 60.5t192 20.5q204 0 405 -72l-8 -137q-70 48 -175.5 75t-213.5 27q-104 0 -188 -23.5t-139.5 -77t-55.5 -130.5q0 -53 30 -101t81.5 -87t117.5 -76.5t139.5 -75.5t146.5 -78.5
t139 -90.5t117.5 -106t81.5 -131t30 -161q0 -114 -45 -207t-120.5 -153t-171.5 -92t-202 -32z" />
    <glyph glyph-name="scaron" unicode="&#x161;" horiz-adv-x="1204" 
d="M195 1673l51 90q162 -146 297 -323q132 186 276 323l80 -86q-60 -37 -111 -79t-134 -123t-111 -107q-174 183 -348 305zM139 84l25 123q161 -82 314.5 -109.5t265 -3t180 94t69.5 171.5q1 59 -29 100t-81 63t-117.5 35t-140 21.5t-147 18.5t-139.5 29t-117 49t-80.5 84
t-28.5 129q1 89 52 155.5t131 102t181.5 52t203.5 10t197 -29.5t162 -61l-16 -123q-100 57 -236.5 81t-258 12.5t-208 -70t-88.5 -154.5q-1 -59 30 -98.5t83.5 -59.5t121 -32t143.5 -19.5t150 -17t141.5 -31t116.5 -55t76.5 -94t20.5 -144.5q-7 -99 -73 -175.5t-170 -115.5
t-227.5 -49.5t-257.5 18.5t-249 93z" />
    <glyph glyph-name="uni0162" unicode="&#x162;" horiz-adv-x="1302" 
d="M666 0l-43 -70q110 -4 170.5 -57t60.5 -125q0 -73 -59 -132t-180 -86t-304 15v43q202 -42 328.5 19t126.5 157q0 56 -51.5 96.5t-149.5 47.5l41 92h-61q21 38 31.5 78t12 67t1.5 82v1354q-265 -4 -467 -57l10 145h1036l11 -145q-202 53 -467 57v-1354q0 -55 1.5 -82
t12 -67t31.5 -78h-92z" />
    <glyph glyph-name="uni0163" unicode="&#x163;" horiz-adv-x="839" 
d="M475 -29l-24 -41q110 -4 170.5 -57t60.5 -125q0 -73 -59 -132t-180 -86t-304 15v43q202 -42 328.5 19t126.5 157q0 56 -51.5 96.5t-149.5 47.5l33 76q-93 30 -149 112t-56 217v686q0 148 -139 185q60 20 106 66t71.5 99t41 117t20.5 111.5t5 91.5h18l-2 -485h401v-129
q-72 29 -161.5 41t-239.5 12l2 -778q0 -140 56 -203.5t143 -63.5q64 0 130.5 27.5t114.5 67.5l21 -99q-52 -44 -123 -69t-145 -25q-31 0 -66 6z" />
    <glyph glyph-name="Tcaron" unicode="&#x164;" horiz-adv-x="1302" 
d="M299 2159l51 90q160 -144 297 -324q132 186 277 324l80 -86q-47 -29 -95.5 -68t-81 -70t-89 -85.5t-91.5 -86.5q-177 186 -348 306zM758 0h-213q21 38 31.5 78t12 67t1.5 82v1354q-265 -4 -467 -57l10 145h1036l11 -145q-202 53 -467 57v-1354q0 -55 1.5 -82t12 -67
t31.5 -78z" />
    <glyph glyph-name="tcaron" unicode="&#x165;" horiz-adv-x="1216" 
d="M541 -35q-64 0 -119.5 20t-101.5 60t-72.5 109t-26.5 159v686q0 148 -139 185q60 20 106 66t71.5 99t41 117t20.5 111.5t5 91.5h18l-2 -485h401v-129q-72 29 -161.5 41t-239.5 12l2 -778q0 -140 56 -203.5t143 -63.5q64 0 130.5 27.5t114.5 67.5l21 -99q-52 -44 -123 -69
t-145 -25zM956 1120h-41q13 71 20 164t3 202.5t-23 182.5h138z" />
    <glyph glyph-name="Tbar" unicode="&#x166;" horiz-adv-x="1302" 
d="M713 1581v-684h276v-82h-276v-588q0 -55 1.5 -82t12 -67t31.5 -78h-213q21 38 31.5 78t12 67t1.5 82v588h-260v82h260v684q-265 -4 -467 -57l10 145h1036l11 -145q-202 53 -467 57z" />
    <glyph glyph-name="tbar" unicode="&#x167;" horiz-adv-x="917" 
d="M805 158l20 -99q-52 -44 -123 -69t-145 -25q-64 0 -119.5 20t-101 60t-72 109t-26.5 159v340h-156v82h156v264q0 148 -140 185q60 20 106 66t71.5 99t41 117t20.5 111.5t5 91.5h18l-2 -485h402v-129q-72 29 -161.5 41t-240.5 12v-373h383v-82h-381v-323q0 -140 56 -203.5
t143 -63.5q64 0 131 27.5t115 67.5z" />
    <glyph glyph-name="Umacron" unicode="&#x16a;" horiz-adv-x="1286" 
d="M973 1966h-660v62h660v-62zM641 -35q-131 0 -225 37t-147 105t-77 152t-24 190v993q0 55 -1.5 82t-12 67t-31.5 78h213q-21 -38 -31.5 -78t-12 -67t-1.5 -82v-1059q0 -102 52 -177t131 -110t171 -35q91 0 169.5 35t130.5 110t52 177l-2 1059q0 55 -1.5 82t-12 67
t-31.5 78h213q-21 -38 -31.5 -78t-12 -67t-1.5 -82v-993q0 -83 -15 -153t-49.5 -132t-88.5 -105.5t-136.5 -68.5t-187.5 -25z" />
    <glyph glyph-name="umacron" unicode="&#x16b;" horiz-adv-x="1302" 
d="M963 1481h-660v61h660v-61zM555 -35q-106 0 -192.5 42t-140.5 128.5t-54 204.5v651q0 64 -9.5 96t-35.5 60q59 0 104 21.5t64 50.5v-889q0 -147 73.5 -221t204.5 -74q69 0 136.5 30t126.5 85t103 142.5t60 194.5v504q0 64 -9.5 96t-35.5 60q59 0 104 21.5t64 50.5v-1069
q0 -62 16 -92.5t66 -57.5h-98q-52 0 -79.5 34t-27.5 91v242h-8q-35 -182 -152.5 -292t-279.5 -110z" />
    <glyph glyph-name="Uring" unicode="&#x16e;" horiz-adv-x="1286" 
d="M643 1790q-97 0 -164 67t-67 164t67 164.5t164 67.5t164 -67.5t67 -164.5t-67 -164t-164 -67zM643 1841q23 0 44 7t44 24t37 55.5t14 93.5t-14 93.5t-37 56t-44 24.5t-44 7t-44 -7t-44 -24.5t-37 -56t-14 -93.5t14 -93.5t37 -55.5t44 -24t44 -7zM641 -35q-131 0 -225 37
t-147 105t-77 152t-24 190v993q0 55 -1.5 82t-12 67t-31.5 78h213q-21 -38 -31.5 -78t-12 -67t-1.5 -82v-1059q0 -102 52 -177t131 -110t171 -35q91 0 169.5 35t130.5 110t52 177l-2 1059q0 55 -1.5 82t-12 67t-31.5 78h213q-21 -38 -31.5 -78t-12 -67t-1.5 -82v-993
q0 -83 -15 -153t-49.5 -132t-88.5 -105.5t-136.5 -68.5t-187.5 -25z" />
    <glyph glyph-name="uring" unicode="&#x16f;" horiz-adv-x="1302" 
d="M633 1305q-97 0 -164.5 67t-67.5 164t67.5 164t164.5 67t164 -67t67 -164t-67 -164t-164 -67zM633 1356q23 0 44 7t44 24t37 55.5t14 93.5t-14 93.5t-37 55.5t-44 24t-44 7t-44 -7t-44 -24t-37 -55.5t-14 -93.5t14 -93.5t37 -55.5t44 -24t44 -7zM555 -35
q-106 0 -192.5 42t-140.5 128.5t-54 204.5v651q0 64 -9.5 96t-35.5 60q59 0 104 21.5t64 50.5v-889q0 -147 73.5 -221t204.5 -74q69 0 136.5 30t126.5 85t103 142.5t60 194.5v504q0 64 -9.5 96t-35.5 60q59 0 104 21.5t64 50.5v-1069q0 -62 16 -92.5t66 -57.5h-98
q-52 0 -79.5 34t-27.5 91v242h-8q-35 -182 -152.5 -292t-279.5 -110z" />
    <glyph glyph-name="Uhungarumlaut" unicode="&#x170;" horiz-adv-x="1286" 
d="M399 1847q98 40 160 134.5t62 242.5h157q0 -111 -56 -199t-142 -133t-181 -45zM670 1847q42 23 81.5 57.5t77 81t60 109t22.5 129.5h158q0 -96 -54.5 -183t-147 -140.5t-197.5 -53.5zM641 -35q-131 0 -225 37t-147 105t-77 152t-24 190v993q0 55 -1.5 82t-12 67t-31.5 78
h213q-21 -38 -31.5 -78t-12 -67t-1.5 -82v-1059q0 -102 52 -177t131 -110t171 -35q91 0 169.5 35t130.5 110t52 177l-2 1059q0 55 -1.5 82t-12 67t-31.5 78h213q-21 -38 -31.5 -78t-12 -67t-1.5 -82v-993q0 -83 -15 -153t-49.5 -132t-88.5 -105.5t-136.5 -68.5t-187.5 -25z
" />
    <glyph glyph-name="uhungarumlaut" unicode="&#x171;" horiz-adv-x="1302" 
d="M389 1362q98 40 159.5 134t61.5 243h158q0 -111 -56 -199t-142 -133t-181 -45zM659 1362q42 23 81.5 57.5t77 81t60.5 109t23 129.5h158q0 -96 -54.5 -183t-147.5 -140.5t-198 -53.5zM555 -35q-106 0 -192.5 42t-140.5 128.5t-54 204.5v651q0 64 -9.5 96t-35.5 60
q59 0 104 21.5t64 50.5v-889q0 -147 73.5 -221t204.5 -74q69 0 136.5 30t126.5 85t103 142.5t60 194.5v504q0 64 -9.5 96t-35.5 60q59 0 104 21.5t64 50.5v-1069q0 -62 16 -92.5t66 -57.5h-98q-52 0 -79.5 34t-27.5 91v242h-8q-35 -182 -152.5 -292t-279.5 -110z" />
    <glyph glyph-name="Uogonek" unicode="&#x172;" horiz-adv-x="1286" 
d="M950 1669h213q-21 -38 -31.5 -78t-12 -67t-1.5 -82v-993q0 -274 -157 -394h2v-35q-83 0 -142 -54t-59 -118q0 -48 42 -81t126 -37l-47 -68q-56 -10 -103.5 1t-78 37.5t-47.5 63t-17 76.5q0 69 49 127q-14 -2 -45 -2q-131 0 -225 37t-147 105t-77 152t-24 190v993
q0 55 -1.5 82t-12 67t-31.5 78h213q-21 -38 -31.5 -78t-12 -67t-1.5 -82v-1059q0 -102 52 -177t131 -110t171 -35q91 0 169.5 35t130.5 110t52 177l-2 1059q0 55 -1.5 82t-12 67t-31.5 78z" />
    <glyph glyph-name="uogonek" unicode="&#x173;" horiz-adv-x="1302" 
d="M1200 0h-67q-83 0 -142 -54t-59 -118q0 -48 42 -81.5t126 -37.5l-47 -67q-56 -10 -103.5 1t-78 37.5t-47.5 63t-17 76.5q0 75 56 135t163 76q-31 36 -31 94v242h-8q-35 -182 -152.5 -292t-279.5 -110q-106 0 -192.5 42t-140.5 128.5t-54 204.5v651q0 64 -9.5 96t-35.5 60
q59 0 104 21.5t64 50.5v-889q0 -147 73.5 -221t204.5 -74q69 0 136.5 30t126.5 85t103 142.5t60 194.5v504q0 64 -9.5 96t-35.5 60q59 0 104 21.5t64 50.5v-1069q0 -62 16 -92.5t66 -57.5z" />
    <glyph glyph-name="Wcircumflex" unicode="&#x174;" horiz-adv-x="2156" 
d="M788 1823l-51 90q174 122 348 305q34 -32 91 -87t89.5 -85t81 -69t95.5 -68l-80 -86q-147 140 -277 323q-135 -177 -297 -323zM819 0h-272q6 35 5.5 74t-3.5 69t-13 74.5t-15.5 66.5t-19.5 71l-18 63l-268 979q-41 151 -113 272h203q-3 -35 2 -100t17 -111l372 -1337
l242 1153q3 12 12 54t12.5 59.5t10 55t7.5 60.5t2 54.5t-3.5 58.5t-13.5 53h256q-10 -37 -12 -81.5t5 -100.5t15.5 -99.5t23.5 -113.5l246 -1153l354 1337q11 47 16.5 112.5t2.5 98.5h182q-35 -61 -56 -117t-48 -155l-260 -979q-4 -15 -17.5 -63.5t-18.5 -68.5t-13.5 -63
t-10.5 -72.5t-1.5 -70t7.5 -80.5h-278q2 86 -8.5 206t-30.5 212l-225 1040l-220 -1040q-55 -267 -55 -418z" />
    <glyph glyph-name="wcircumflex" unicode="&#x175;" horiz-adv-x="1757" 
d="M565 1337l-51 90q171 120 348 306q35 -32 91.5 -86.5t89 -85.5t81 -70t95.5 -68l-80 -86q-145 138 -277 324q-137 -180 -297 -324zM618 0h-188q2 7 2 15.5t-1.5 20t-3.5 22t-6 25t-7 25t-8 27t-8 26t-9 26.5t-8 24l-254 793q-2 7 -13.5 51.5t-23 73t-29.5 55.5h160
q-4 -94 15 -154l292 -917l279 858q16 57 15 114.5t-15 98.5h162q-39 -117 -6 -213l278 -826l279 885q18 57 14 154h162q-39 -65 -74 -180l-254 -793q-2 -7 -8 -24t-9 -26.5t-8 -26t-8 -27t-7 -25t-6 -25t-3.5 -22t-1.5 -20t2 -15.5h-162q2 7 2 18.5t-1 22t-5 27t-7 27.5
t-9.5 30.5t-9.5 29t-10 30t-9 26.5l-221 674l-219 -674q-1 -4 -8 -23.5t-9 -26.5t-8 -25.5t-8.5 -27.5t-7 -25t-6 -25.5t-3.5 -21.5t-2 -20.5t2 -15.5z" />
    <glyph glyph-name="Ycircumflex" unicode="&#x176;" horiz-adv-x="1372" 
d="M387 1823l-51 90q174 122 348 305q35 -32 91 -86.5t89 -85.5t81 -69.5t95 -67.5l-79 -86q-147 140 -277 323q-135 -177 -297 -323zM793 0h-213q21 38 31.5 78t12 67t1.5 82v443l-404 776q-60 114 -131 223h176q0 -17 5 -38.5t10.5 -39t16.5 -42.5l16.5 -37.5t17 -35
t12.5 -24.5l342 -666l342 666q2 5 14 28t15 29t12.5 26t13 28.5t9.5 25.5t8 28t3.5 25t0.5 27h178q-56 -80 -131 -223l-403 -776v-443q0 -55 1.5 -82t12 -67t31.5 -78z" />
    <glyph glyph-name="ycircumflex" unicode="&#x177;" horiz-adv-x="1144" 
d="M274 1337l-51 90q171 120 348 306q35 -32 91.5 -86.5t89 -85.5t81 -70t95.5 -68l-80 -86q-145 138 -277 324q-137 -180 -297 -324zM53 -346l-12 123q123 -29 210.5 -35.5t145 5t96 48.5t59.5 83.5t38 121.5l14 61h-117l-333 943q-41 120 -82 180h182q-9 -87 16 -154
l340 -946l230 946q21 88 10 154h180q-36 -52 -67 -180l-250 -1004q-23 -92 -58 -159t-89 -116t-126 -71.5t-169 -24.5t-218 25z" />
    <glyph glyph-name="Ydieresis" unicode="&#x178;" horiz-adv-x="1372" 
d="M557 1862q-43 0 -71.5 28.5t-28.5 69.5q0 43 28.5 70.5t71.5 27.5q40 0 68 -28t28 -70q0 -41 -28 -69.5t-68 -28.5zM821 1862q-42 0 -70 28t-28 70q0 43 27.5 70.5t70.5 27.5q41 0 70 -28t29 -70q0 -41 -29.5 -69.5t-69.5 -28.5zM793 0h-213q21 38 31.5 78t12 67t1.5 82
v443l-404 776q-60 114 -131 223h176q0 -17 5 -38.5t10.5 -39t16.5 -42.5l16.5 -37.5t17 -35t12.5 -24.5l342 -666l342 666q2 5 14 28t15 29t12.5 26t13 28.5t9.5 25.5t8 28t3.5 25t0.5 27h178q-56 -80 -131 -223l-403 -776v-443q0 -55 1.5 -82t12 -67t31.5 -78z" />
    <glyph glyph-name="Zacute" unicode="&#x179;" horiz-adv-x="1271" 
d="M559 1901q-95 0 -166 45q73 0 162 26q94 27 176.5 75.5t128.5 106.5l72 -81q-62 -76 -165.5 -124t-207.5 -48zM1137 0h-1043l901 1585h-403q-300 0 -500 -84l23 168h1044l-899 -1581h412q169 0 278.5 22.5t210.5 88.5z" />
    <glyph glyph-name="zacute" unicode="&#x17a;" horiz-adv-x="1218" 
d="M479 1415q-95 0 -166 45q69 0 162 27q94 27 176.5 75.5t128.5 106.5l72 -82q-62 -76 -165.5 -124t-207.5 -48zM1085 0h-987l797 1112q-634 11 -780 -51l10 123h971l-793 -1118q94 -4 195 -4.5t224.5 3.5t224.5 18.5t149 39.5z" />
    <glyph glyph-name="Zdotaccent" unicode="&#x17b;" horiz-adv-x="1271" 
d="M684 1937q-46 0 -77.5 31.5t-31.5 77.5t31.5 77t77.5 31t77.5 -31t31.5 -77t-31.5 -77.5t-77.5 -31.5zM1137 0h-1043l901 1585h-403q-300 0 -500 -84l23 168h1044l-899 -1581h412q169 0 278.5 22.5t210.5 88.5z" />
    <glyph glyph-name="zdotaccent" unicode="&#x17c;" horiz-adv-x="1218" 
d="M604 1452q-46 0 -77 31.5t-31 77.5t31 77t77 31t77.5 -31t31.5 -77t-31.5 -77.5t-77.5 -31.5zM1085 0h-987l797 1112q-634 11 -780 -51l10 123h971l-793 -1118q94 -4 195 -4.5t224.5 3.5t224.5 18.5t149 39.5z" />
    <glyph glyph-name="Zcaron" unicode="&#x17d;" horiz-adv-x="1271" 
d="M332 2159l51 90q160 -144 297 -324q135 189 276 324l80 -86q-60 -37 -111.5 -80t-133 -122.5t-111.5 -107.5q-177 186 -348 306zM1137 0h-1043l901 1585h-403q-300 0 -500 -84l23 168h1044l-899 -1581h412q169 0 278.5 22.5t210.5 88.5z" />
    <glyph glyph-name="zcaron" unicode="&#x17e;" horiz-adv-x="1218" 
d="M252 1673l51 90q162 -146 297 -323q130 183 277 323l79 -86q-60 -37 -111 -79t-134 -123t-111 -107q-174 183 -348 305zM1085 0h-987l797 1112q-634 11 -780 -51l10 123h971l-793 -1118q94 -4 195 -4.5t224.5 3.5t224.5 18.5t149 39.5z" />
    <glyph glyph-name="uni0218" unicode="&#x218;" horiz-adv-x="1228" 
d="M608 -27q-150 0 -289.5 63t-236.5 185l41 115q96 -128 225 -192t262 -64q173 0 293.5 99t120.5 263q0 75 -30 140.5t-81.5 115t-117.5 94.5t-139.5 84t-146.5 78t-139 82t-117.5 89.5t-81.5 107.5t-30 131q0 85 39.5 151t108.5 106t158 60.5t192 20.5q204 0 405 -72
l-8 -137q-70 48 -175.5 75t-213.5 27q-104 0 -188 -23.5t-139.5 -77t-55.5 -130.5q0 -53 30 -101t81.5 -87t117.5 -76.5t139.5 -75.5t146.5 -78.5t139 -90.5t117.5 -106t81.5 -131t30 -161q0 -114 -45 -207t-120.5 -153t-171.5 -92t-202 -32zM569 -541h-43l62 465h139z" />
    <glyph glyph-name="uni0219" unicode="&#x219;" horiz-adv-x="1204" 
d="M139 84l25 123q161 -82 314.5 -109.5t265 -3t180 94t69.5 171.5q1 59 -29 100t-81 63t-117.5 35t-140 21.5t-147 18.5t-139.5 29t-117 49t-80.5 84t-28.5 129q1 89 52 155.5t131 102t181.5 52t203.5 10t197 -29.5t162 -61l-16 -123q-100 57 -236.5 81t-258 12.5t-208 -70
t-88.5 -154.5q-1 -59 30 -98.5t83.5 -59.5t121 -32t143.5 -19.5t150 -17t141.5 -31t116.5 -55t76.5 -94t20.5 -144.5q-7 -99 -73 -175.5t-170 -115.5t-227.5 -49.5t-257.5 18.5t-249 93zM467 -541h-43l61 465h140z" />
    <glyph glyph-name="uni021A" unicode="&#x21a;" horiz-adv-x="1302" 
d="M758 0h-213q21 38 31.5 78t12 67t1.5 82v1354q-265 -4 -467 -57l10 145h1036l11 -145q-202 53 -467 57v-1354q0 -55 1.5 -82t12 -67t31.5 -78zM571 -541h-43l62 465h139z" />
    <glyph glyph-name="uni021B" unicode="&#x21b;" horiz-adv-x="839" 
d="M541 -35q-64 0 -119.5 20t-101.5 60t-72.5 109t-26.5 159v686q0 148 -139 185q60 20 106 66t71.5 99t41 117t20.5 111.5t5 91.5h18l-2 -485h401v-129q-72 29 -161.5 41t-239.5 12l2 -778q0 -140 56 -203.5t143 -63.5q64 0 130.5 27.5t114.5 67.5l21 -99q-52 -44 -123 -69
t-145 -25zM399 -541h-43l62 465h139z" />
    <glyph glyph-name="gravecomb" unicode="&#x300;" 
d="M-195 1413q-103 0 -206.5 48t-165.5 124l71 82q46 -58 129 -106.5t177 -75.5q93 -27 161 -27q-71 -45 -166 -45z" />
    <glyph glyph-name="acutecomb" unicode="&#x301;" 
d="M-535 1415q-94 0 -165 45q68 0 161 27q94 27 177 75.5t129 106.5l71 -82q-62 -76 -165.5 -124t-207.5 -48z" />
    <glyph glyph-name="uni0302" unicode="&#x302;" 
d="M-776 1337l-51 90q171 120 348 306q35 -33 91 -87t89 -85.5t81 -70t95 -67.5l-80 -86q-141 135 -276 324q-137 -180 -297 -324z" />
    <glyph glyph-name="tildecomb" unicode="&#x303;" 
d="M-360 1343q-44 0 -82.5 15.5t-66 41t-53 56t-49.5 60.5t-49.5 55.5t-59 41t-71.5 15.5q-179 0 -178 -249v-5h-51q-10 46 -12 92t13.5 88.5t42 75.5t74.5 52.5t111 19.5q52 0 94 -20.5t67.5 -51.5t52.5 -66.5t50.5 -66.5t61.5 -51.5t84 -20.5t85 25t61 79.5t-1 139.5h72
q32 -91 10 -163.5t-80.5 -117.5t-125.5 -45z" />
    <glyph glyph-name="uni0304" unicode="&#x304;" 
d="M-123 1481h-659v61h659v-61z" />
    <glyph glyph-name="uni0306" unicode="&#x306;" 
d="M-498 1341q-92 0 -172.5 37t-138 116t-68.5 187h93q6 -63 32.5 -113.5t66 -82t87 -48t98.5 -16.5q109 0 192 68t93 192h92q-10 -108 -66.5 -187t-136.5 -116t-172 -37z" />
    <glyph glyph-name="uni0307" unicode="&#x307;" 
d="M-156 1452q-46 0 -77 31.5t-31 77.5t31 77t77 31t77.5 -31t31.5 -77t-31.5 -77.5t-77.5 -31.5z" />
    <glyph glyph-name="uni0308" unicode="&#x308;" 
d="M-485 1376q-43 0 -72 29t-29 70q0 42 29 70t72 28q40 0 68 -28t28 -70q0 -41 -28 -70t-68 -29zM-221 1376q-42 0 -70 28.5t-28 70.5q0 43 27.5 70.5t70.5 27.5q40 0 69 -28t29 -70q0 -41 -29 -70t-69 -29z" />
    <glyph glyph-name="hookabovecomb" unicode="&#x309;" 
d="M-387 1440h-41v104q84 -26 131 16.5t47 110.5q0 51 -27 87t-75 36q-25 0 -58 -10l-8 41q62 26 125 26q86 0 128 -45t42 -116q0 -90 -59.5 -145.5t-143.5 -55.5q-34 0 -61 8v-57z" />
    <glyph glyph-name="uni030A" unicode="&#x30a;" 
d="M-354 1305q-97 0 -164.5 67t-67.5 164t67.5 164t164.5 67t164 -67t67 -164t-67 -164t-164 -67zM-354 1356q23 0 44 7t44 24t37 55.5t14 93.5t-14 93.5t-37 55.5t-44 24t-44 7t-44 -7t-44.5 -24t-37.5 -55.5t-14 -93.5t14 -93.5t37.5 -55.5t44.5 -24t44 -7z" />
    <glyph glyph-name="uni030B" unicode="&#x30b;" 
d="M-786 1362q98 40 159.5 134t61.5 243h157q0 -111 -55.5 -199t-141.5 -133t-181 -45zM-516 1362q42 23 81.5 57.5t77 81t60.5 109t23 129.5h157q0 -96 -54.5 -183t-147 -140.5t-197.5 -53.5z" />
    <glyph glyph-name="uni030C" unicode="&#x30c;" 
d="M-799 1673l51 90q162 -146 297 -323q130 183 277 323l80 -86q-47 -29 -95.5 -68t-81 -69t-89.5 -85t-91 -87q-174 183 -348 305z" />
    <glyph glyph-name="uni0312" unicode="&#x312;" 
d="M-172 1368h-139l209 465h55z" />
    <glyph glyph-name="uni031B" unicode="&#x31b;" 
d="M-526 1376v41q189 0 294 126t105 362h176q0 -68 -15.5 -135.5t-56.5 -140.5t-103.5 -127.5t-165.5 -90t-234 -35.5z" />
    <glyph glyph-name="dotbelowcomb" unicode="&#x323;" 
d="M-209 -285q-37 0 -61.5 24.5t-24.5 61.5t24.5 61.5t61.5 24.5t61.5 -24.5t24.5 -61.5t-24.5 -61.5t-61.5 -24.5z" />
    <glyph glyph-name="uni0326" unicode="&#x326;" 
d="M-375 -541h-43l62 465h139z" />
    <glyph glyph-name="uni0327" unicode="&#x327;" 
d="M-666 -455v43q202 -42 328.5 19t126.5 157q0 56 -51.5 96.5t-149.5 47.5l41 92h60l-43 -70q110 -4 170.5 -57t60.5 -125q0 -73 -59 -132t-180 -86t-304 15z" />
    <glyph glyph-name="uni0328" unicode="&#x328;" 
d="M-86 -291l-47 -67q-56 -10 -103.5 1t-78 37.5t-47.5 63t-17 76.5q0 43 20 82.5t58 71.5t102.5 49t145.5 12v-35q-83 0 -142 -54t-59 -118q0 -48 42 -81.5t126 -37.5z" />
    <glyph glyph-name="uni0335" unicode="&#x335;" 
d="M-184 662h-660v81h660v-81z" />
    <glyph glyph-name="uni0336" unicode="&#x336;" 
d="M-123 618h-864v82h864v-82z" />
    <glyph glyph-name="uni0337" unicode="&#x337;" 
d="M-123 854l-840 -311v73l840 312v-74z" />
    <glyph glyph-name="uni0338" unicode="&#x338;" 
d="M-625 -289h-75l530 1864h76z" />
    <glyph glyph-name="Wgrave" unicode="&#x1e80;" horiz-adv-x="2156" 
d="M1303 1898q-103 0 -207 48.5t-166 124.5l71 81q46 -58 129 -106.5t177 -75.5q89 -26 161 -26q-73 -46 -165 -46zM819 0h-272q6 35 5.5 74t-3.5 69t-13 74.5t-15.5 66.5t-19.5 71l-18 63l-268 979q-41 151 -113 272h203q-3 -35 2 -100t17 -111l372 -1337l242 1153
q3 12 12 54t12.5 59.5t10 55t7.5 60.5t2 54.5t-3.5 58.5t-13.5 53h256q-10 -37 -12 -81.5t5 -100.5t15.5 -99.5t23.5 -113.5l246 -1153l354 1337q11 47 16.5 112.5t2.5 98.5h182q-35 -61 -56 -117t-48 -155l-260 -979q-4 -15 -17.5 -63.5t-18.5 -68.5t-13.5 -63t-10.5 -72.5
t-1.5 -70t7.5 -80.5h-278q2 86 -8.5 206t-30.5 212l-225 1040l-220 -1040q-55 -267 -55 -418z" />
    <glyph glyph-name="wgrave" unicode="&#x1e81;" horiz-adv-x="1757" 
d="M1079 1413q-103 0 -206.5 48t-165.5 124l71 82q46 -58 128.5 -106.5t176.5 -75.5q93 -27 162 -27q-71 -45 -166 -45zM618 0h-188q2 7 2 15.5t-1.5 20t-3.5 22t-6 25t-7 25t-8 27t-8 26t-9 26.5t-8 24l-254 793q-2 7 -13.5 51.5t-23 73t-29.5 55.5h160q-4 -94 15 -154
l292 -917l279 858q16 57 15 114.5t-15 98.5h162q-39 -117 -6 -213l278 -826l279 885q18 57 14 154h162q-39 -65 -74 -180l-254 -793q-2 -7 -8 -24t-9 -26.5t-8 -26t-8 -27t-7 -25t-6 -25t-3.5 -22t-1.5 -20t2 -15.5h-162q2 7 2 18.5t-1 22t-5 27t-7 27.5t-9.5 30.5t-9.5 29
t-10 30t-9 26.5l-221 674l-219 -674q-1 -4 -8 -23.5t-9 -26.5t-8 -25.5t-8.5 -27.5t-7 -25t-6 -25.5t-3.5 -21.5t-2 -20.5t2 -15.5z" />
    <glyph glyph-name="Wacute" unicode="&#x1e82;" horiz-adv-x="2156" 
d="M963 1901q-95 0 -166 45q72 0 161 26q94 27 177 75.5t129 106.5l71 -81q-62 -76 -165.5 -124t-206.5 -48zM819 0h-272q6 35 5.5 74t-3.5 69t-13 74.5t-15.5 66.5t-19.5 71l-18 63l-268 979q-41 151 -113 272h203q-3 -35 2 -100t17 -111l372 -1337l242 1153q3 12 12 54
t12.5 59.5t10 55t7.5 60.5t2 54.5t-3.5 58.5t-13.5 53h256q-10 -37 -12 -81.5t5 -100.5t15.5 -99.5t23.5 -113.5l246 -1153l354 1337q11 47 16.5 112.5t2.5 98.5h182q-35 -61 -56 -117t-48 -155l-260 -979q-4 -15 -17.5 -63.5t-18.5 -68.5t-13.5 -63t-10.5 -72.5t-1.5 -70
t7.5 -80.5h-278q2 86 -8.5 206t-30.5 212l-225 1040l-220 -1040q-55 -267 -55 -418z" />
    <glyph glyph-name="wacute" unicode="&#x1e83;" horiz-adv-x="1757" 
d="M739 1415q-95 0 -166 45q69 0 162 27q94 27 176.5 75.5t128.5 106.5l72 -82q-62 -76 -165.5 -124t-207.5 -48zM618 0h-188q2 7 2 15.5t-1.5 20t-3.5 22t-6 25t-7 25t-8 27t-8 26t-9 26.5t-8 24l-254 793q-2 7 -13.5 51.5t-23 73t-29.5 55.5h160q-4 -94 15 -154l292 -917
l279 858q16 57 15 114.5t-15 98.5h162q-39 -117 -6 -213l278 -826l279 885q18 57 14 154h162q-39 -65 -74 -180l-254 -793q-2 -7 -8 -24t-9 -26.5t-8 -26t-8 -27t-7 -25t-6 -25t-3.5 -22t-1.5 -20t2 -15.5h-162q2 7 2 18.5t-1 22t-5 27t-7 27.5t-9.5 30.5t-9.5 29t-10 30
t-9 26.5l-221 674l-219 -674q-1 -4 -8 -23.5t-9 -26.5t-8 -25.5t-8.5 -27.5t-7 -25t-6 -25.5t-3.5 -21.5t-2 -20.5t2 -15.5z" />
    <glyph glyph-name="Wdieresis" unicode="&#x1e84;" horiz-adv-x="2156" 
d="M958 1862q-43 0 -71.5 28.5t-28.5 69.5q0 43 28.5 70.5t71.5 27.5q40 0 68.5 -28t28.5 -70q0 -41 -28.5 -69.5t-68.5 -28.5zM1223 1862q-43 0 -71 28t-28 70q0 43 28 70.5t71 27.5q40 0 69 -28t29 -70q0 -41 -29 -69.5t-69 -28.5zM819 0h-272q6 35 5.5 74t-3.5 69
t-13 74.5t-15.5 66.5t-19.5 71l-18 63l-268 979q-41 151 -113 272h203q-3 -35 2 -100t17 -111l372 -1337l242 1153q3 12 12 54t12.5 59.5t10 55t7.5 60.5t2 54.5t-3.5 58.5t-13.5 53h256q-10 -37 -12 -81.5t5 -100.5t15.5 -99.5t23.5 -113.5l246 -1153l354 1337
q11 47 16.5 112.5t2.5 98.5h182q-35 -61 -56 -117t-48 -155l-260 -979q-4 -15 -17.5 -63.5t-18.5 -68.5t-13.5 -63t-10.5 -72.5t-1.5 -70t7.5 -80.5h-278q2 86 -8.5 206t-30.5 212l-225 1040l-220 -1040q-55 -267 -55 -418z" />
    <glyph glyph-name="wdieresis" unicode="&#x1e85;" horiz-adv-x="1757" 
d="M735 1376q-43 0 -71.5 29t-28.5 70q0 43 28.5 70.5t71.5 27.5q40 0 68 -28t28 -70q0 -41 -28 -70t-68 -29zM999 1376q-42 0 -70 28.5t-28 70.5q0 43 27.5 70.5t70.5 27.5q41 0 70 -28t29 -70q0 -41 -29.5 -70t-69.5 -29zM618 0h-188q2 7 2 15.5t-1.5 20t-3.5 22t-6 25
t-7 25t-8 27t-8 26t-9 26.5t-8 24l-254 793q-2 7 -13.5 51.5t-23 73t-29.5 55.5h160q-4 -94 15 -154l292 -917l279 858q16 57 15 114.5t-15 98.5h162q-39 -117 -6 -213l278 -826l279 885q18 57 14 154h162q-39 -65 -74 -180l-254 -793q-2 -7 -8 -24t-9 -26.5t-8 -26t-8 -27
t-7 -25t-6 -25t-3.5 -22t-1.5 -20t2 -15.5h-162q2 7 2 18.5t-1 22t-5 27t-7 27.5t-9.5 30.5t-9.5 29t-10 30t-9 26.5l-221 674l-219 -674q-1 -4 -8 -23.5t-9 -26.5t-8 -25.5t-8.5 -27.5t-7 -25t-6 -25.5t-3.5 -21.5t-2 -20.5t2 -15.5z" />
    <glyph glyph-name="uni1E9E" unicode="&#x1e9e;" horiz-adv-x="1425" 
d="M922 -35q-144 0 -246.5 101.5t-102.5 285.5h21q32 -130 119 -199t192 -69q121 0 208 88t87 244q0 98 -34 181t-102.5 148.5t-182.5 102.5t-263 37v51q67 19 118.5 52t85.5 72t57 92t34.5 103.5t15.5 113.5t2.5 116t-7.5 117q-69 0 -125 -3.5t-124.5 -15.5t-120.5 -32.5
t-104.5 -57.5t-86.5 -87.5t-55 -125.5t-21 -168v-942q0 -42 -4.5 -71t-17 -54t-37.5 -37t-64 -12h-62q38 51 50 94t12 107v815q0 128 23.5 230t63 173.5t102.5 124t131 83.5t159.5 49t177.5 24t195 6q18 -132 19.5 -239.5t-11.5 -184t-40.5 -138t-61 -102t-78.5 -75.5v-11
q69 -5 138 -31.5t130.5 -74.5t108.5 -111t74.5 -146t27.5 -173q0 -107 -35 -195t-92.5 -142.5t-128 -84t-145.5 -29.5z" />
    <glyph glyph-name="Ygrave" unicode="&#x1ef2;" horiz-adv-x="1372" 
d="M901 1898q-103 0 -207 48.5t-166 124.5l72 81q46 -58 128.5 -106.5t176.5 -75.5q89 -26 162 -26q-73 -46 -166 -46zM793 0h-213q21 38 31.5 78t12 67t1.5 82v443l-404 776q-60 114 -131 223h176q0 -17 5 -38.5t10.5 -39t16.5 -42.5l16.5 -37.5t17 -35t12.5 -24.5
l342 -666l342 666q2 5 14 28t15 29t12.5 26t13 28.5t9.5 25.5t8 28t3.5 25t0.5 27h178q-56 -80 -131 -223l-403 -776v-443q0 -55 1.5 -82t12 -67t31.5 -78z" />
    <glyph glyph-name="ygrave" unicode="&#x1ef3;" horiz-adv-x="1144" 
d="M788 1413q-103 0 -206.5 48t-165.5 124l71 82q46 -58 129 -106.5t177 -75.5q93 -27 161 -27q-71 -45 -166 -45zM53 -346l-12 123q123 -29 210.5 -35.5t145 5t96 48.5t59.5 83.5t38 121.5l14 61h-117l-333 943q-41 120 -82 180h182q-9 -87 16 -154l340 -946l230 946
q21 88 10 154h180q-36 -52 -67 -180l-250 -1004q-23 -92 -58 -159t-89 -116t-126 -71.5t-169 -24.5t-218 25z" />
    <glyph glyph-name="endash" unicode="&#x2013;" horiz-adv-x="1024" 
d="M901 600h-778v82h778v-82z" />
    <glyph glyph-name="emdash" unicode="&#x2014;" horiz-adv-x="1175" 
d="M1053 600h-930v82h930v-82z" />
    <glyph glyph-name="quoteleft" unicode="&#x2018;" horiz-adv-x="368" 
d="M225 1911h21v-549h-123z" />
    <glyph glyph-name="quoteright" unicode="&#x2019;" horiz-adv-x="352" 
d="M160 1372h-37v549h106z" />
    <glyph glyph-name="quotesinglbase" unicode="&#x201a;" horiz-adv-x="368" 
d="M143 -381h-20v549h123z" />
    <glyph glyph-name="quotedblleft" unicode="&#x201c;" horiz-adv-x="600" 
d="M225 1913h21v-549h-123zM457 1913h20v-549h-123z" />
    <glyph glyph-name="quotedblright" unicode="&#x201d;" horiz-adv-x="600" 
d="M225 1913h21v-549h-123zM457 1913h20v-549h-123z" />
    <glyph glyph-name="quotedblbase" unicode="&#x201e;" horiz-adv-x="577" 
d="M143 -381h-20v549h123zM352 -381h-20v549h123z" />
    <glyph glyph-name="dagger" unicode="&#x2020;" horiz-adv-x="1069" 
d="M553 137h-41q0 119 -13.5 264.5t-27 237t-41.5 264.5q77 162 72 254q-36 -2 -71 -19t-59 -36t-59.5 -35t-72.5 -16q-55 0 -86 39t-31 94q0 54 31 93.5t86 39.5q31 0 59 -13.5t50.5 -32.5t44.5 -38.5t50 -33.5t58 -15q-1 56 -13 101.5t-28.5 75t-33 56.5t-27.5 60.5
t-11 72.5q0 67 42 103.5t101 36.5t101.5 -37t42.5 -103q0 -39 -11 -72.5t-27.5 -60.5t-33 -56.5t-28.5 -75t-13 -101.5q38 0 73.5 21t59.5 45.5t59.5 45.5t73.5 21q55 0 86 -39.5t31 -93.5q0 -55 -31 -94t-86 -39q-38 0 -73.5 16.5t-59.5 36.5t-59.5 36.5t-73.5 16.5
q-5 -92 72 -254q-28 -173 -41.5 -264.5t-27 -237t-13.5 -264.5z" />
    <glyph glyph-name="daggerdbl" unicode="&#x2021;" horiz-adv-x="1069" 
d="M553 137h-41q0 107 -32 218t-89 202q7 20 25.5 64.5t23.5 61.5t11 52.5t6 77.5q-19 -5 -90.5 -41.5t-126.5 -36.5t-86 39t-31 94q0 54 31 93.5t86 39.5q40 0 76 -18.5t73.5 -46t61.5 -37.5q51 97 51 258q-36 -2 -71 -19t-59 -36t-59.5 -35t-72.5 -16q-55 0 -86 39t-31 94
q0 54 31 93.5t86 39.5q31 0 59 -13.5t50.5 -32.5t44.5 -38.5t50 -33.5t58 -15q-1 56 -13 101.5t-28.5 75t-33 56.5t-27.5 60.5t-11 72.5q0 68 42.5 106t100.5 38q59 0 101.5 -38t42.5 -106q0 -39 -11 -72.5t-27.5 -60.5t-33 -56.5t-28.5 -75t-13 -101.5q38 0 73.5 21
t59.5 45.5t59.5 45.5t73.5 21q55 0 86 -39.5t31 -93.5q0 -55 -31 -94t-86 -39q-38 0 -73.5 16.5t-59.5 36.5t-59.5 36.5t-73.5 16.5q0 -161 51 -260q27 10 63.5 37.5t73.5 47t78 19.5q55 0 86 -39.5t31 -93.5q0 -55 -31 -94t-86 -39t-125 38t-96 44q0 -73 14 -121t54 -139
q-123 -162 -123 -420z" />
    <glyph glyph-name="bullet" unicode="&#x2022;" horiz-adv-x="444" 
d="M221 309q-41 0 -69.5 30t-28.5 73q0 39 28.5 68.5t69.5 29.5t71 -29.5t30 -68.5q0 -43 -30 -73t-71 -30z" />
    <glyph glyph-name="ellipsis" unicode="&#x2026;" horiz-adv-x="1236" 
d="M190 -14q-29 0 -48 20t-19 49q0 27 19.5 47.5t47.5 20.5q27 0 47.5 -20.5t20.5 -47.5q0 -29 -20 -49t-48 -20zM633 -14q-29 0 -48.5 20t-19.5 49q0 27 19.5 47.5t48.5 20.5q27 0 47 -20.5t20 -47.5q0 -29 -19.5 -49t-47.5 -20zM1047 -14q-29 0 -48.5 20t-19.5 49
q0 27 19.5 47.5t48.5 20.5q27 0 47 -20.5t20 -47.5q0 -29 -19.5 -49t-47.5 -20z" />
    <glyph glyph-name="perthousand" unicode="&#x2030;" horiz-adv-x="2775" 
d="M578 -35h-123l788 1583q-176 -23 -407 19q79 -110 79 -301q0 -125 -43 -221t-134 -153.5t-220 -57.5q-192 0 -293.5 119.5t-101.5 312.5q0 213 99 324.5t296 111.5q69 0 186.5 -17.5t218 -33.5t239 -14.5t263.5 32.5zM514 956q30 0 62.5 7t72.5 28t71 53.5t52 89.5
t21 130q0 155 -67.5 229.5t-207.5 85.5q-132 0 -202 -81.5t-70 -233.5q0 -308 268 -308zM1399 -37q-192 0 -293.5 119.5t-101.5 312.5q0 213 99 324.5t296 111.5q198 0 297.5 -111.5t99.5 -324.5q0 -125 -43 -221t-134 -153.5t-220 -57.5zM2255 -37q-192 0 -293.5 119.5
t-101.5 312.5q0 213 99 324.5t296 111.5q198 0 297.5 -111.5t99.5 -324.5q0 -125 -43 -221t-134 -153.5t-220 -57.5zM1395 86q30 0 62.5 7t72 28t70.5 53t52 89t21 130q0 89 -23.5 153.5t-65 98.5t-88 49t-101.5 15q-52 0 -96.5 -15t-85 -49t-64 -98.5t-23.5 -153.5
q0 -307 269 -307zM2251 86q30 0 62.5 7t72 28t70.5 53t52 89t21 130q0 89 -23.5 153.5t-65 98.5t-88 49t-101.5 15q-52 0 -96.5 -15t-85 -49t-64 -98.5t-23.5 -153.5q0 -307 269 -307z" />
    <glyph glyph-name="guilsinglleft" unicode="&#x2039;" horiz-adv-x="921" 
d="M799 328v-82l-676 409v9l676 401v-82l-545 -324v-2z" />
    <glyph glyph-name="guilsinglright" unicode="&#x203a;" horiz-adv-x="921" 
d="M799 655l-676 -409v82l545 329v2l-545 324v82l676 -401v-9z" />
    <glyph glyph-name="fraction" unicode="&#x2044;" horiz-adv-x="1353" 
d="M246 0h-62l985 1669h62z" />
    <glyph glyph-name="Euro" unicode="&#x20ac;" horiz-adv-x="1310" 
d="M856 -31q-118 0 -222.5 49t-186 141t-135.5 233t-68 317h-121v82h115v47q0 50 2 75h-117v82h121q16 181 67.5 319t130.5 222t176 126t209 42q177 0 361 -96l-17 -123q-172 119 -340 119q-183 0 -309.5 -153t-154.5 -456h622v-82h-627l-2 -122h629v-82h-624
q26 -306 159.5 -469.5t335.5 -163.5q143 0 307 86l21 -101q-170 -92 -332 -92z" />
    <glyph glyph-name="trademark" unicode="&#x2122;" horiz-adv-x="1118" 
d="M346 1083h-76q17 31 17 80v475q-104 -5 -164 -20l4 51h362l5 -51q-60 15 -164 20v-475q0 -51 16 -80zM604 1083h-74q17 31 17 80v426q0 54 -17 80h43q20 0 28.5 -7t16.5 -26l144 -323l149 321q14 35 47 35h37q-16 -27 -16 -80v-426q0 -51 16 -80h-75q16 29 16 80v453
l-168 -367h-14l-164 367v-453q0 -51 14 -80z" />
    <glyph glyph-name="minus" unicode="&#x2212;" horiz-adv-x="997" 
d="M874 594h-751v82h751v-82z" />
    <glyph glyph-name="approxequal" unicode="&#x2248;" horiz-adv-x="1306" 
d="M954 561q-64 0 -130.5 40.5t-121 97.5t-106.5 114.5t-105.5 98t-99.5 40.5q-44 0 -74.5 -11.5t-56 -41.5t-37.5 -89t-12 -148l-88 -3q0 66 7 118.5t26 101.5t49.5 81.5t80.5 52t117 19.5q53 0 118 -40.5t124.5 -98t117 -114.5t111.5 -97.5t91 -40.5q49 0 85.5 87.5
t36.5 240.5l97 -19q0 -71 -11.5 -136t-37 -124t-72 -94t-109.5 -35zM954 141q-64 0 -130.5 40.5t-121 97.5t-106.5 114.5t-105.5 98t-99.5 40.5q-44 0 -74.5 -11.5t-56 -41.5t-37.5 -89t-12 -148l-88 -2q0 66 7 118.5t26 101.5t49.5 81t80.5 51.5t117 19.5q53 0 118 -40.5
t124.5 -98t117 -114.5t111.5 -97.5t91 -40.5q49 0 85.5 87.5t36.5 240.5l97 -19q0 -71 -11.5 -136t-37 -124t-72 -94t-109.5 -35z" />
    <glyph glyph-name="notequal" unicode="&#x2260;" horiz-adv-x="997" 
d="M330 299h-82l94 147h-219v82h272l131 207h-403v82h457l131 207h82l-131 -207h212v-82h-266l-131 -207h397v-82h-450z" />
    <glyph glyph-name="lessequal" unicode="&#x2264;" horiz-adv-x="923" 
d="M801 328v-82l-676 409v9l676 401v-82l-545 -324v-2zM801 92h-678v82h678v-82z" />
    <glyph glyph-name="greaterequal" unicode="&#x2265;" horiz-adv-x="923" 
d="M799 655l-676 -409v82l545 329v2l-545 324v82l676 -401v-9zM801 92h-678v82h678v-82z" />
    <glyph glyph-name="lozenge" unicode="&#x25ca;" horiz-adv-x="1282" 
d="M653 0h-20l-510 721l510 717h20l506 -717zM250 721l391 -551l391 551l-389 551z" />
    <glyph glyph-name="A.ss01" unicode="&#xe000;" horiz-adv-x="1673" 
d="M516 0h-227q21 32 37 64.5t23 51.5t19.5 56t18.5 55l391 1090q32 93 20 165.5t-56 123t-105.5 76.5t-128.5 26q-105 0 -177.5 -64t-72.5 -184q0 -82 52.5 -130t123.5 -48q62 0 108.5 41.5t55.5 120.5q29 -90 1 -153t-89.5 -97.5t-136.5 -34.5q-52 0 -99 17t-86 50.5
t-62.5 90.5t-23.5 129q0 58 22.5 111t64.5 96.5t111.5 69.5t156.5 26q95 0 182.5 -21.5t163 -43t143.5 -21.5q35 0 76 6q-22 -86 0 -147l467 -1295q5 -15 17 -50t19.5 -56t24 -55t37.5 -66h-227q24 63 26 111.5t-20 115.5l-131 375h-594l-131 -375q-22 -67 -20 -115.5
t26 -111.5zM938 1442l-270 -766h540z" />
    <glyph glyph-name="B.ss01" unicode="&#xe001;" horiz-adv-x="1888" 
d="M1241 0h-442q21 38 31.5 78t12 67t1.5 82v1270q0 101 -95 163t-219 62q-79 0 -143.5 -26t-107.5 -85.5t-43 -144.5q0 -65 38.5 -117.5t102.5 -52.5q42 0 73 28.5t31 72.5q53 -14 82 -53.5t29 -88.5q0 -80 -57 -125t-138 -45q-50 0 -97.5 19t-87.5 55.5t-64.5 97.5
t-24.5 138q0 110 59 194.5t144 125t176 40.5q83 0 158.5 -15t122.5 -33t108.5 -33t120.5 -15q32 0 100 8t115 8q203 0 317.5 -99t114.5 -265q0 -154 -94 -263.5t-265 -129.5v-11q217 0 341 -117.5t124 -291.5q0 -94 -32 -180.5t-94 -158.5t-165 -115.5t-233 -43.5zM967 1589
v-647q284 -30 431.5 69.5t147.5 270.5q0 151 -96.5 244.5t-271.5 93.5q-90 0 -211 -31zM967 860v-778q83 -12 165.5 -8.5t157.5 15t139.5 43.5t111.5 77.5t74 116.5t27 161q0 67 -18.5 123t-53 94.5t-77.5 68t-97.5 46.5t-107.5 28t-113 14t-108.5 2.5t-99.5 -3.5z" />
    <glyph glyph-name="C.ss01" unicode="&#xe002;" horiz-adv-x="1202" 
d="M1397 -342v-100q-116 -7 -239.5 13.5t-248 71.5t-239.5 126t-214.5 183.5t-173.5 238.5t-116.5 296.5t-42.5 350.5q0 186 36 336.5t100.5 252t152.5 167t194 89t224 11t243 -61.5l-16 -123q-110 54 -213 72.5t-193 2.5t-164.5 -72t-128 -146t-83 -224.5t-29.5 -303.5
q0 -174 39.5 -327.5t107.5 -269.5t161 -212.5t196.5 -162t217 -112t220.5 -69.5t209 -27z" />
    <glyph glyph-name="D.ss01" unicode="&#xe003;" horiz-adv-x="1982" 
d="M1219 0h-420q21 38 31.5 78t12 67t1.5 82v1217q0 85 -54.5 152.5t-134.5 101t-166 33.5q-108 0 -180.5 -58.5t-72.5 -173.5q0 -65 38.5 -117.5t102.5 -52.5q42 0 73 28.5t31 72.5q53 -14 82 -53.5t29 -88.5q0 -80 -57 -125t-138 -45q-50 0 -97.5 19t-87.5 55t-64.5 97
t-24.5 138q0 167 107 261t270 94q52 0 117.5 -19.5t120 -43t134.5 -43t158 -19.5q57 0 156.5 18.5t159.5 18.5q249 0 382.5 -201.5t133.5 -587.5q0 -439 -167 -672t-476 -233zM967 1550v-1470q398 -40 585 173t187 665q0 345 -120.5 520.5t-346.5 175.5q-129 0 -305 -64z
" />
    <glyph glyph-name="E.ss01" unicode="&#xe004;" horiz-adv-x="1820" 
d="M1681 0h-882q21 38 31.5 78t12 67t1.5 82v1270q0 76 -48.5 134.5t-121.5 87t-154 28.5q-118 0 -201 -64t-83 -184q0 -65 38.5 -117.5t102.5 -52.5q42 0 73 28.5t31 72.5q53 -14 82 -53.5t29 -88.5q0 -80 -57 -125t-138 -45q-50 0 -97.5 19t-87.5 55t-64.5 97t-24.5 138
q0 67 22.5 125.5t60.5 99.5t87 71t102.5 44.5t106.5 14.5q78 0 147 -15t126.5 -37t121 -44t159 -37t212.5 -15q175 0 413 35l17 -164q-219 58 -731 58v-553h530l8 -82h-538v-822q512 0 731 58z" />
    <glyph glyph-name="F.ss01" unicode="&#xe005;" horiz-adv-x="1820" 
d="M1012 0h-213q21 38 31.5 78t12 67t1.5 82v1270q0 77 -48.5 135.5t-121 86.5t-154.5 28q-118 0 -201 -64t-83 -184q0 -65 38.5 -117.5t102.5 -52.5q42 0 73 28.5t31 72.5q53 -14 82 -53.5t29 -88.5q0 -80 -57 -125t-138 -45q-50 0 -97.5 19t-87.5 55t-64.5 97t-24.5 138
q0 67 22.5 125.5t60.5 99.5t87 71t102.5 44.5t106.5 14.5q78 0 147 -15t126.5 -37t121 -44t159 -37t212.5 -15q175 0 413 35l17 -164q-219 58 -731 58v-564h530l8 -81h-538v-691q0 -55 1.5 -82t12 -67t31.5 -78z" />
    <glyph glyph-name="H.ss01" unicode="&#xe006;" horiz-adv-x="1998" 
d="M1012 0h-213q21 38 31.5 78t12 67t1.5 82v1254q0 81 -50 143.5t-124 92.5t-156 30q-116 0 -197 -64t-81 -184q0 -65 38.5 -117.5t102.5 -52.5q42 0 73 28.5t31 72.5q53 -14 82 -53.5t29 -88.5q0 -80 -57 -125t-138 -45q-50 0 -97.5 19t-87.5 55t-64.5 97t-24.5 138
q0 67 22.5 125.5t60.5 99.5t87 71t102.5 44.5t106.5 14.5q69 0 136.5 -16.5t111.5 -38t94 -41t84.5 -25.5t83.5 8q-21 -38 -31.5 -78t-12 -67t-1.5 -82v-481h741v481q0 55 -1.5 82t-12 67t-31.5 78h213q-21 -38 -31.5 -78t-12 -67t-1.5 -82v-1215q0 -55 1.5 -82t12 -67
t31.5 -78h-213q21 38 31.5 78t12 67t1.5 82v654h-741v-654q0 -55 1.5 -82t12 -67t31.5 -78z" />
    <glyph glyph-name="I.ss01" unicode="&#xe007;" horiz-adv-x="1134" 
d="M1012 0h-213q21 38 31.5 78t12 67t1.5 82v1254q0 81 -50 143.5t-124 92.5t-156 30q-116 0 -197 -64t-81 -184q0 -65 38.5 -117.5t102.5 -52.5q42 0 73 28.5t31 72.5q53 -14 82 -53.5t29 -88.5q0 -80 -57 -125t-138 -45q-50 0 -97.5 19t-87.5 55t-64.5 97t-24.5 138
q0 67 22.5 125.5t60.5 99.5t87 71t102.5 44.5t106.5 14.5q69 0 136.5 -16.5t111.5 -38t94 -41t84.5 -25.5t83.5 8q-21 -38 -31.5 -78t-12 -67t-1.5 -82v-1215q0 -55 1.5 -82t12 -67t31.5 -78z" />
    <glyph glyph-name="J.ss01" unicode="&#xe008;" horiz-adv-x="1050" 
d="M489 -39q-180 0 -401 105l35 114q84 -56 180 -88.5t184 -32.5q122 0 197.5 69.5t75.5 217.5v1135q0 81 -50 143.5t-124 92.5t-156 30q-116 0 -197 -64t-81 -184q0 -65 38.5 -117.5t102.5 -52.5q42 0 73 28.5t31 72.5q53 -14 82 -53.5t29 -88.5q0 -80 -57 -125t-138 -45
q-50 0 -97.5 19t-87.5 55t-64.5 97t-24.5 138q0 67 22.5 125.5t60.5 99.5t87 71t102.5 44.5t106.5 14.5q69 0 136.5 -16.5t111.5 -38t94 -41t84.5 -25.5t83.5 8q-21 -38 -31.5 -78t-12 -67t-1.5 -82v-1053q0 -213 -106.5 -320.5t-287.5 -107.5z" />
    <glyph glyph-name="K.ss01" unicode="&#xe009;" horiz-adv-x="2101" 
d="M1012 0h-213q21 38 31.5 78t12 67t1.5 82v1254q0 81 -50 143.5t-124 92.5t-156 30q-116 0 -197 -64t-81 -184q0 -65 38.5 -117.5t102.5 -52.5q42 0 73 28.5t31 72.5q53 -14 82 -53.5t29 -88.5q0 -80 -57 -125t-138 -45q-50 0 -97.5 19t-87.5 55t-64.5 97t-24.5 138
q0 67 22.5 125.5t60.5 99.5t87 71t102.5 44.5t106.5 14.5q69 0 136.5 -16.5t111.5 -38t94 -41t84.5 -25.5t83.5 8q-21 -38 -31.5 -78t-12 -67t-1.5 -82v-549q165 0 277.5 102.5t223.5 331.5q70 142 123 342h123q-61 -198 -127.5 -340.5t-142 -234t-155.5 -142t-177 -71.5
v-15q96 0 171 -11.5t141 -39t109.5 -79t61.5 -126.5l91 -383q25 -108 83 -227h-213q31 70 15 158l-66 377q-10 57 -35 102.5t-55 75.5t-78 53t-86 35t-97 21t-93.5 12t-93.5 6v-613q0 -55 1.5 -82t12 -67t31.5 -78z" />
    <glyph glyph-name="L.ss01" unicode="&#xe00a;" horiz-adv-x="1812" 
d="M1649 0h-846q15 37 20.5 53t13 63.5t7.5 110.5v1254q0 81 -50 143.5t-124 92.5t-156 30q-116 0 -197 -64t-81 -184q0 -65 38.5 -117.5t102.5 -52.5q42 0 73 28.5t31 72.5q53 -14 82 -53.5t29 -88.5q0 -80 -57 -125t-138 -45q-50 0 -97.5 19t-87.5 55t-64.5 97t-24.5 138
q0 67 22.5 125.5t60.5 99.5t87 71t102.5 44.5t106.5 14.5q69 0 136.5 -16.5t111.5 -38t94 -41t84.5 -25.5t83.5 8q-21 -38 -31.5 -78t-12 -67t-1.5 -82v-1336h172q105 0 170 2t173 15.5t208 40.5z" />
    <glyph glyph-name="M.ss01" unicode="&#xe00b;" horiz-adv-x="2177" 
d="M940 0h-213q21 38 31.5 78t12 67t1.5 82l2 1256q0 79 -24 141.5t-65 99.5t-90 56.5t-103 19.5q-104 0 -180 -65.5t-76 -178.5q0 -65 38.5 -117.5t102.5 -52.5q42 0 73 28.5t31 72.5q54 -14 82.5 -53t28.5 -88q0 -80 -57 -125t-138 -45q-50 0 -97.5 19t-87.5 55t-64.5 97
t-24.5 138q0 84 33 152.5t88.5 111.5t127 66.5t150.5 23.5q146 0 276.5 -78t196.5 -227l391 -881l426 920q20 45 56 70.5t80 25.5h106q-7 -11 -13 -23t-10.5 -22t-8 -24t-5.5 -21.5t-3.5 -23.5t-2.5 -21.5t-1.5 -24t-0.5 -21.5v-23.5v-22.5l-2 -1215q0 -55 1.5 -82t12 -67
t31.5 -78h-213q21 38 31.5 78t12 67t1.5 82v1291l-477 -1043h-41l-471 1043v-1291q0 -55 1.5 -82t12 -67t31.5 -78z" />
    <glyph glyph-name="N.ss01" unicode="&#xe00c;" horiz-adv-x="2043" 
d="M1012 0h-213q21 38 31.5 78t12 67t1.5 82v1289q0 100 -94 160.5t-218 60.5q-78 0 -143.5 -24.5t-109 -80t-43.5 -133.5q0 -65 38.5 -117.5t102.5 -52.5q42 0 73 28.5t31 72.5q53 -14 82 -53.5t29 -88.5q0 -80 -57 -125t-138 -45q-50 0 -97.5 19t-87.5 55t-64.5 97
t-24.5 138q0 86 39 155.5t105 112.5t149.5 66t175.5 23q169 0 314.5 -74t207.5 -209l639 -1413v1354q0 55 -1.5 82t-12 67t-31.5 78h213q-21 -38 -31.5 -78t-12 -67t-1.5 -82v-1215q0 -55 1.5 -82t12 -67t31.5 -78h-88q-52 0 -87 9.5t-70.5 38t-67 79.5t-68.5 135l-573 1294
v-1329q0 -55 1.5 -82t12 -67t31.5 -78z" />
    <glyph glyph-name="P.ss01" unicode="&#xe00d;" horiz-adv-x="1888" 
d="M1012 0h-213q21 38 31.5 78t12 67t1.5 82v1168q0 87 -28.5 156.5t-75.5 111.5t-104 64t-118 22q-116 0 -199 -71t-83 -195q0 -70 37.5 -112t103.5 -42q42 0 73 28.5t31 72.5q53 -14 82 -53.5t29 -88.5q0 -80 -57 -125t-138 -45q-50 0 -97.5 19t-87.5 55t-64.5 97
t-24.5 138q0 67 22.5 125.5t60.5 99.5t87 71t102.5 44.5t106.5 14.5q74 0 143 -18t115 -39.5t118.5 -39.5t151.5 -18q54 0 159 13.5t150 13.5q102 0 181 -29.5t128.5 -79.5t81.5 -121t45 -146.5t13 -164.5q0 -135 -41.5 -242.5t-111 -173t-153.5 -99.5t-175 -34
q-97 0 -185 39t-147 111h-8v-527q0 -55 1.5 -82t12 -67t31.5 -78zM1280 678q75 0 142.5 30t122.5 87t87.5 152t32.5 214q0 471 -428 471q-121 0 -270 -35v-757q57 -78 140 -120t173 -42z" />
    <glyph glyph-name="R.ss01" unicode="&#xe00e;" horiz-adv-x="1869" 
d="M1012 0h-213q21 38 31.5 78t12 67t1.5 82v1215q0 98 -51.5 172t-127 109.5t-159.5 35.5q-113 0 -191.5 -67t-78.5 -193q0 -65 38.5 -117.5t102.5 -52.5q42 0 73 28.5t31 72.5q53 -14 82 -53.5t29 -88.5q0 -80 -57 -125t-138 -45q-50 0 -97.5 19t-87.5 55t-64.5 97
t-24.5 138q0 67 22.5 125.5t60.5 99.5t87 71t102.5 44.5t106.5 14.5q57 0 121.5 -17.5t114.5 -39t123.5 -39t146.5 -17.5q44 0 123.5 11.5t130.5 11.5q90 0 166.5 -24t138.5 -72.5t97.5 -133t35.5 -196.5q0 -78 -31 -152.5t-87 -135t-144.5 -99.5t-194.5 -45v-7
q99 -14 172 -48.5t116.5 -87t71 -112.5t44 -136t28 -145t30 -152t42.5 -146h-199q19 103 -4 375q-8 98 -38.5 172t-75 120.5t-108 75t-131 39.5t-151.5 11h-73v-566q0 -55 1.5 -82t12 -67t31.5 -78zM967 1618v-748h53q571 33 571 394q0 431 -620 354h-4z" />
    <glyph glyph-name="T.ss01" unicode="&#xe00f;" horiz-adv-x="1548" 
d="M1012 0h-213q21 38 31.5 78t12 67t1.5 82v1221q0 112 -100.5 180t-251.5 68q-104 0 -180 -65.5t-76 -178.5q0 -65 38.5 -117.5t102.5 -52.5q42 0 73 28t31 72q54 -14 82.5 -53t28.5 -88q0 -80 -57 -125t-138 -45q-50 0 -97.5 19t-87.5 55t-64.5 97t-24.5 138
q0 111 57 193.5t146 122t196 39.5q70 0 170 -19.5t187 -38t233.5 -26t310.5 17.5l11 -145q-202 53 -467 57v-1354q0 -55 1.5 -82t12 -67t31.5 -78z" />
    <glyph glyph-name="U.ss01" unicode="&#xe010;" horiz-adv-x="1961" 
d="M1317 -35q-131 0 -225 37t-147 105t-77 152t-24 190v1032q0 81 -50 143.5t-124 92.5t-156 30q-116 0 -197 -64t-81 -184q0 -65 38.5 -117.5t102.5 -52.5q42 0 73 28.5t31 72.5q53 -14 82 -53.5t29 -88.5q0 -80 -57 -125t-138 -45q-50 0 -97.5 19t-87.5 55t-64.5 97
t-24.5 138q0 67 22.5 125.5t60.5 99.5t87 71t102.5 44.5t106.5 14.5q69 0 136.5 -16.5t111.5 -38t94 -41t84.5 -25.5t83.5 8q-21 -38 -31.5 -78t-12 -67t-1.5 -82v-1059q0 -102 52 -177t131 -110t171 -35q91 0 169.5 35t130.5 110t52 177l-2 1059q0 55 -1.5 82t-12 67
t-31.5 78h213q-21 -38 -31.5 -78t-12 -67t-1.5 -82v-993q0 -83 -15 -153t-49.5 -132t-88.5 -105.5t-136.5 -68.5t-187.5 -25z" />
    <glyph glyph-name="V.ss01" unicode="&#xe011;" horiz-adv-x="2045" 
d="M1497 0h-252q10 63 7 114t-27 140l-293 1096q-50 184 -187.5 291.5t-281.5 107.5q-108 0 -178 -64.5t-70 -185.5q0 -65 38.5 -117.5t102.5 -52.5q42 0 73.5 28.5t31.5 72.5q53 -14 81.5 -53t28.5 -89q0 -80 -56.5 -125t-137.5 -45q-50 0 -97.5 19t-88 55t-65 97
t-24.5 138q0 83 34 152.5t87.5 112.5t115.5 66.5t122 23.5q75 0 146.5 -17.5t119.5 -39t118 -39t142 -17.5l389 -1532l402 1532h166q-58 -94 -80 -148.5t-54 -174.5l-290 -1092q-18 -67 -25 -102t-7.5 -73.5t9.5 -78.5z" />
    <glyph glyph-name="W.ss01" unicode="&#xe012;" horiz-adv-x="2875" 
d="M1522 0h-293q26 166 -43 418l-268 979q-42 156 -165.5 244t-258.5 88q-111 0 -184.5 -60t-73.5 -170q0 -65 38.5 -117.5t102.5 -52.5q42 0 73 28.5t31 72.5q53 -14 82 -53.5t29 -88.5q0 -80 -57 -125t-138 -45q-50 0 -97.5 19t-87.5 55t-64.5 97t-24.5 138
q0 67 22.5 125.5t60.5 99.5t87 71t102.5 44.5t106.5 14.5q57 0 121.5 -17.5t114.5 -39t123.5 -39t146.5 -17.5q-3 -36 1.5 -101t16.5 -110l373 -1337l241 1153q3 12 12 54t12.5 59.5t10 55t7.5 60.5t2 54.5t-3.5 58.5t-13.5 53h277q-16 -50 -22.5 -92.5t-1.5 -96t10 -81.5
t21 -101q1 -5 1.5 -8t1.5 -7.5t2 -8.5l246 -1153l354 1337q11 47 16 112t2 99h199q-34 -59 -54.5 -113.5t-49.5 -158.5l-277 -979q-21 -74 -31 -130.5t-13.5 -135.5t11.5 -152h-299q2 86 -8.5 206t-30.5 212l-225 1040l-219 -1040q-55 -267 -55 -418z" />
    <glyph glyph-name="X.ss01" unicode="&#xe013;" horiz-adv-x="2125" 
d="M981 0h-219q125 134 215 274l371 572l-385 596q-89 136 -225 214.5t-261 78.5q-107 0 -174 -60.5t-67 -175.5q0 -65 38.5 -117.5t102.5 -52.5q42 0 73 28.5t31 72.5q53 -14 82 -53.5t29 -88.5q0 -80 -57 -125t-138 -45q-50 0 -97.5 19.5t-87.5 57.5t-64.5 103t-24.5 148
q0 155 103 245.5t255 90.5q81 0 169 -25.5t181 -54.5t177 -35q0 -32 31.5 -100.5t63.5 -124t97 -164.5l213 -352l236 366q71 110 123.5 221.5t46.5 155.5h215q-24 -17 -59.5 -60t-57.5 -77l-438 -688l438 -682q5 -8 21.5 -33t27 -40.5t29.5 -40.5t39 -48h-215
q-8 65 -42.5 142.5t-131.5 242.5l-232 395l-248 -395q-73 -117 -120.5 -224.5t-63.5 -160.5z" />
    <glyph glyph-name="Y.ss01" unicode="&#xe014;" horiz-adv-x="2080" 
d="M1501 0h-213q21 38 31.5 78t12 67t1.5 82v443l-440 850q-53 100 -174 162.5t-246 62.5q-118 0 -194 -61.5t-76 -184.5q0 -65 38.5 -117.5t102.5 -52.5q42 0 73.5 28.5t31.5 72.5q53 -14 81.5 -53t28.5 -89q0 -80 -56.5 -125t-137.5 -45q-50 0 -97.5 19t-88 55t-65 97
t-24.5 138q0 83 31 152t82.5 112.5t115 67t130.5 23.5q78 0 153 -15t125 -34t118 -38.5t130 -25.5q0 -17 5 -38.5t10.5 -39t16.5 -42.5l16.5 -37.5t17 -35t12.5 -24.5l342 -666l342 666q2 4 11.5 22t12 23t10.5 21.5t10.5 23t9 21t8.5 22t6 20.5t5 22t2 20.5t0 21.5h179
q-56 -80 -131 -223l-404 -776v-443q0 -55 1.5 -82t12 -67t31.5 -78z" />
    <glyph glyph-name="Z.ss01" unicode="&#xe015;" horiz-adv-x="1394" 
d="M1260 0h-1043l916 1606q-56 -7 -253.5 12.5t-287.5 19.5q-268 0 -268 -135q0 -43 20.5 -67.5t52.5 -24.5q21 0 45 12q0 -38 -24 -65q-45 -51 -131 -51q-79 0 -137 46.5t-58 135.5q0 76 49 126t127.5 70.5t186.5 20.5q65 0 185 -14t219 -26t224 -15t199 18l-899 -1581h412
q169 0 278.5 22.5t210.5 88.5z" />
    <glyph glyph-name="A.ss02" unicode="&#xe016;" horiz-adv-x="1673" 
d="M1935 -584q-54 0 -108 20t-108 61t-102 113t-83 167l-299 825h-594l-131 -375q-22 -67 -20 -115.5t26 -111.5h-227q21 32 37 64.5t23 51.5t19.5 56t18.5 55l391 1090q32 93 20 165.5t-56 123t-105.5 76.5t-128.5 26q-105 0 -177.5 -64t-72.5 -184q0 -82 52.5 -130
t123.5 -48q62 0 108.5 41.5t55.5 120.5q14 -41 14 -82q0 -92 -71.5 -147.5t-167.5 -55.5q-52 0 -99 17t-86 50.5t-62.5 90.5t-23.5 129q0 58 22.5 111t64.5 96.5t111.5 69.5t156.5 26q95 0 182.5 -21.5t163 -43t143.5 -21.5q35 0 76 6q-22 -86 0 -147l649 -1792
q34 -94 79 -137.5t89 -43.5q37 0 63.5 26.5t26.5 59.5q0 47 -49 72q7 50 42.5 77.5t82.5 27.5q69 0 122.5 -49.5t53.5 -133.5q0 -91 -72 -152t-174 -61zM938 1442l-270 -766h540z" />
    <glyph glyph-name="H.ss02" unicode="&#xe017;" horiz-adv-x="1998" 
d="M2089 -713q-67 0 -132 26t-122 78t-92 141.5t-35 203.5v1157h-741v-666q0 -55 1.5 -82t12 -67t31.5 -78h-213q21 38 31.5 78t12 67t1.5 82v1254q0 81 -50 143.5t-124 92.5t-156 30q-116 0 -197 -64t-81 -184q0 -65 38.5 -117.5t102.5 -52.5q42 0 73 28.5t31 72.5
q53 -14 82 -53.5t29 -88.5q0 -80 -57 -125t-138 -45q-50 0 -97.5 19t-87.5 55t-64.5 97t-24.5 138q0 67 22.5 125.5t60.5 99.5t87 71t102.5 44.5t106.5 14.5q69 0 136.5 -16.5t111.5 -38t94 -41t84.5 -25.5t83.5 8q-21 -38 -31.5 -78t-12 -67t-1.5 -82v-467h741l2 467
q0 55 -1.5 82t-12 67t-31.5 78h213q-21 -38 -31.5 -78.5t-12.5 -66t-3 -82.5v-1737q0 -103 24 -180.5t64.5 -120.5t87 -63.5t98.5 -20.5q43 0 66.5 19t23.5 45q0 32 -29.5 45.5t-66.5 3.5q-14 62 16.5 98.5t79.5 36.5q42 0 74.5 -32t32.5 -91q0 -72 -61.5 -115t-151.5 -43z
" />
    <glyph glyph-name="J.ss02" unicode="&#xe018;" horiz-adv-x="1503" 
d="M291 -211q-69 0 -118.5 47.5t-49.5 134.5q0 85 70.5 143t181.5 58q86 0 167.5 -27t144 -65t122 -76t127 -65t133.5 -27q79 0 111 41.5t32 122.5v1405q0 81 -49.5 143.5t-123.5 92.5t-156 30q-116 0 -197.5 -64t-81.5 -184q0 -65 38.5 -117.5t102.5 -52.5q42 0 73.5 28.5
t31.5 72.5q53 -14 82 -53.5t29 -88.5q0 -80 -57 -125t-138 -45q-50 0 -97.5 19t-87.5 55t-64.5 97t-24.5 138q0 67 22.5 125.5t60 99.5t86.5 71t102.5 44.5t106.5 14.5q69 0 136.5 -16.5t111.5 -38t94 -41t84.5 -25.5t83.5 8q-21 -38 -31.5 -78t-12 -67t-1.5 -82v-1352
q0 -139 -61.5 -205.5t-186.5 -66.5q-80 0 -158.5 29t-142 70t-123.5 82t-126 70t-127 29q-52 0 -77.5 -23t-25.5 -57q0 -28 18 -47.5t44 -19.5q33 0 69 33q20 -88 -27.5 -141.5t-119.5 -53.5z" />
    <glyph glyph-name="K.ss02" unicode="&#xe019;" horiz-adv-x="1855" 
d="M2249 -829q-113 0 -205.5 32.5t-158.5 91t-111 141t-66.5 182t-21.5 214.5v39q0 131 -0.5 194.5t-4.5 171t-11.5 160t-22.5 132.5t-37 118.5t-55.5 88t-77.5 71t-103.5 37.5t-132.5 16q-117 0 -274 -37v-596q0 -55 1.5 -82t12 -67t31.5 -78h-213q21 38 31.5 78t12 67
t1.5 82v1254q0 81 -50 143.5t-124 92.5t-156 30q-116 0 -197 -64t-81 -184q0 -65 38.5 -117.5t102.5 -52.5q42 0 73 28.5t31 72.5q53 -14 82 -53.5t29 -88.5q0 -80 -57 -125t-138 -45q-50 0 -97.5 19t-87.5 55t-64.5 97t-24.5 138q0 67 22.5 125.5t60.5 99.5t87 71
t102.5 44.5t106.5 14.5q74 0 146 -19t118 -42.5t97.5 -42.5t90.5 -19q28 0 58 10q-21 -38 -31.5 -78t-12 -67t-1.5 -82v-535q115 24 197 50.5t154 68t120.5 95.5t87.5 133t63 179t41 236h178q-30 -42 -62 -112t-57 -136.5t-64.5 -143.5t-82.5 -140t-111.5 -120t-152.5 -89
v-8q240 0 352.5 -136.5t132.5 -459.5q16 -266 23 -337q75 -737 391 -737q76 0 114 34t38 81q0 34 -19 54t-51 20q-22 0 -41 -8q-8 24 -8 53q0 71 57.5 113.5t134.5 42.5q82 0 141.5 -48t59.5 -137q0 -51 -21 -100t-62 -91t-111.5 -67.5t-159.5 -25.5z" />
    <glyph glyph-name="T.ss02" unicode="&#xe01a;" horiz-adv-x="1556" 
d="M1012 0h-213q21 38 31.5 78t12 67t1.5 82v1221q0 112 -100.5 180t-251.5 68q-104 0 -180 -65.5t-76 -178.5q0 -65 38.5 -117.5t102.5 -52.5q42 0 73 28t31 72q54 -14 82.5 -53t28.5 -88q0 -80 -57 -125t-138 -45q-50 0 -97.5 19t-87.5 55t-64.5 97t-24.5 138
q0 111 57 193.5t146 122t196 39.5q84 0 204.5 -26.5t226.5 -60t239 -67.5t233 -45q83 -10 154 2t119 39.5t82.5 65.5t50.5 80t16 85q0 73 -47.5 123.5t-134.5 50.5q-42 0 -73 -28t-31 -72q-54 14 -82.5 53t-28.5 88q0 80 57 125t138 45q133 0 215 -97.5t82 -229.5
q0 -71 -27 -136t-80 -120t-144 -88t-208 -33q-93 0 -272.5 44.5t-243.5 51.5v-1358q0 -55 1.5 -82t12 -67t31.5 -78z" />
    <glyph glyph-name="a.ss01" unicode="&#xe01b;" horiz-adv-x="1214" 
d="M1319 -713q-67 0 -132 26t-122 78t-92 141.5t-35 203.5v651h-12q-25 -106 -72 -187.5t-107.5 -131t-127.5 -74.5t-138 -25q-146 0 -252 96t-106 254q0 91 39 165.5t104.5 121t146 71.5t167.5 25q104 0 198.5 -36t159.5 -103q-125 88 -303 88q-76 0 -143.5 -19.5
t-123.5 -58.5t-89 -104.5t-33 -149.5q0 -126 72 -197t180 -71q137 0 264.5 132.5t175.5 351.5v331q0 119 -87 195t-220 76q-180 0 -359 -131l-16 92q180 123 389 123q114 0 206.5 -40.5t151 -127t58.5 -205.5v-1143q0 -103 24 -180.5t64.5 -120.5t87 -63.5t98.5 -20.5
q43 0 66.5 19t23.5 45q0 32 -29.5 45.5t-66.5 3.5q-14 62 16.5 98.5t79.5 36.5q42 0 74.5 -32t32.5 -91q0 -72 -61.5 -115t-151.5 -43z" />
    <glyph glyph-name="b.ss01" unicode="&#xe01c;" horiz-adv-x="1241" 
d="M655 -35q-109 0 -201.5 67t-142.5 191h-4q0 -36 -1.5 -62.5t-8 -60t-18.5 -54.5t-34 -35.5t-52 -14.5h-70q38 51 49.5 93.5t11.5 107.5v1472q0 65 -29.5 99t-72.5 34t-67.5 -28t-24.5 -66q0 -34 18.5 -62t50.5 -34q-35 -49 -100 -49q-63 0 -111.5 43t-48.5 114
q0 78 54.5 133.5t162.5 55.5q53 0 104 -19t93.5 -54.5t68 -93.5t25.5 -130v-641q67 122 167 185t210 63q87 0 168 -39.5t145.5 -112t103 -187t38.5 -253.5q0 -156 -43 -285.5t-113 -209.5t-155 -123.5t-173 -43.5zM647 68q71 0 138.5 40t119.5 110.5t83.5 177.5t31.5 231
q0 235 -106.5 375.5t-254.5 140.5q-98 0 -190.5 -66t-161.5 -198v-514q62 -149 151.5 -223t188.5 -74z" />
    <glyph glyph-name="c.ss01" unicode="&#xe01d;" horiz-adv-x="1892" 
d="M1696 -68q-83 0 -122 53.5t-34 118.5q100 -34 158.5 6.5t58.5 114.5q0 59 -42 100.5t-128 41.5q-89 0 -185.5 -41t-184 -99.5t-179.5 -117t-204.5 -99.5t-225.5 -41q-221 0 -363.5 172t-142.5 467q0 143 40 260.5t108.5 195t160.5 119.5t197 42q201 0 396 -146l-35 -131
q-175 172 -363 172q-164 0 -272.5 -137t-108.5 -375q0 -259 106 -400.5t281 -141.5q105 0 216.5 37.5t207 91.5t187 108t188.5 91.5t180 37.5q134 0 217.5 -79t83.5 -181q0 -94 -56 -167t-140 -73z" />
    <glyph glyph-name="d.ss01" unicode="&#xe01e;" horiz-adv-x="1226" 
d="M1341 -713q-67 0 -131.5 26t-121.5 78t-92 141.5t-35 203.5v430h-11q-53 -94 -150 -146.5t-208 -52.5q-92 0 -177.5 37.5t-156.5 110.5t-113.5 196t-42.5 279q0 128 29.5 233t78 175t114 118t135 69t143.5 21q115 0 210.5 -50t137.5 -138h11v459q0 63 -9.5 95t-36.5 60
q59 0 104 21.5t64 50.5v-1999q0 -103 24 -180.5t65 -120.5t87.5 -63.5t98.5 -20.5q43 0 66.5 19t23.5 45q0 32 -29.5 45.5t-66.5 3.5q-14 62 16.5 98.5t79.5 36.5q42 0 74 -32t32 -91q0 -72 -61.5 -115t-151.5 -43zM610 43q107 0 204 60t147 161v656q-43 83 -145.5 138.5
t-215.5 55.5q-74 0 -138.5 -28t-119 -86.5t-86 -163.5t-31.5 -246t32.5 -249.5t88 -171.5t122.5 -94.5t142 -31.5z" />
    <glyph glyph-name="e.ss01" unicode="&#xe01f;" horiz-adv-x="2222" 
d="M1905 -39q-64 0 -114 27t-62 71q83 0 134.5 57t51.5 126q0 63 -48.5 97.5t-140.5 14.5q-53 -12 -121 -47t-131 -77t-148.5 -89t-172 -85.5t-202.5 -63.5t-238 -25q-121 0 -231 44.5t-195 125t-135 204t-50 271.5q0 266 157 436.5t413 170.5q105 0 188.5 -27t134 -73
t77 -102.5t26.5 -119.5q0 -127 -74.5 -225t-195 -148.5t-265.5 -50.5q-169 0 -334 74q94 -30 199.5 -31.5t201.5 24.5t174 73t124.5 120t46.5 160q0 106 -84 168.5t-205 62.5q-65 0 -129 -18.5t-124.5 -59t-106 -99t-73.5 -145t-28 -190.5q0 -128 39 -236t105 -180.5
t154 -112.5t186 -40q138 -1 266 33t226.5 84.5t188 102.5t187 95t186.5 54t159.5 -5t112.5 -52.5t63.5 -82t21.5 -96.5q0 -87 -58.5 -151t-156.5 -64z" />
    <glyph glyph-name="f.ss01" unicode="&#xe020;" horiz-adv-x="710" 
d="M449 0h-213q21 38 31.5 78t12 67t1.5 82v678q0 65 -47.5 140.5t-133.5 113.5v25q101 -41 256 -41q59 0 129 8v8q-63 8 -139 35q-148 59 -246 186.5t-98 282.5q0 87 28 161.5t76 126.5t111 88.5t132.5 54t142.5 17.5q83 0 157.5 -23t134 -66.5t94.5 -113t35 -155.5
q0 -90 -41 -170.5t-121.5 -133t-181.5 -52.5q-139 0 -219.5 81t-56.5 191q26 -97 94.5 -148t151.5 -51q102 0 177 72t75 195q0 125 -89.5 195.5t-216.5 70.5q-67 0 -130 -21.5t-115 -62.5t-83.5 -107.5t-31.5 -148.5q0 -94 29.5 -177.5t87.5 -152t155 -109t221 -40.5v-25
q-94 0 -153 -79.5t-59 -174.5l-3 -678q0 -53 2 -81.5t12.5 -68t31.5 -77.5z" />
    <glyph glyph-name="h.ss01" unicode="&#xe021;" horiz-adv-x="1286" 
d="M1376 -713q-67 0 -132 26t-122 78t-92 141.5t-35 203.5v1120q0 135 -78 212t-192 77q-140 0 -264.5 -109.5t-169.5 -312.5v-496q0 -55 1.5 -82t12 -67t31.5 -78h-213q21 38 31.5 78t12 67t1.5 82v1248q0 64 -9.5 95.5t-35.5 59.5q59 0 104 21.5t64 50.5v-830h8
q53 170 176 259.5t266 89.5q75 0 142.5 -25t120 -71t83.5 -118t31 -161v-1141q0 -103 24 -180.5t65 -120.5t87.5 -63.5t98.5 -20.5q43 0 66.5 19t23.5 45q0 32 -30 45.5t-67 3.5q-14 62 17 98.5t80 36.5q42 0 74 -32t32 -91q0 -72 -61.5 -115t-151.5 -43z" />
    <glyph glyph-name="i.ss01" unicode="&#xe022;" horiz-adv-x="1134" 
d="M225 1415q-38 0 -66 28t-28 66q0 37 28 65t66 28q37 0 64.5 -28t27.5 -65q0 -38 -27.5 -66t-64.5 -28zM633 -113q-69 0 -136.5 16.5t-111.5 38t-94 41t-84.5 25.5t-83.5 -8q21 38 31.5 78t12 67t1.5 82v791q0 64 -9.5 96t-35.5 60q59 0 104 21t64 50v-1057
q0 -81 50 -143.5t124 -92.5t156 -30q116 0 197 64t81 184q0 65 -38.5 117.5t-102.5 52.5q-42 0 -73.5 -28t-31.5 -72q-53 14 -81.5 53t-28.5 88q0 80 56.5 125t137.5 45q50 0 97.5 -19t88 -55t65 -97t24.5 -138q0 -67 -22.5 -125.5t-60.5 -99.5t-87 -71t-102.5 -44.5
t-106.5 -14.5z" />
    <glyph glyph-name="k.ss01" unicode="&#xe023;" horiz-adv-x="1159" 
d="M1397 -713q-50 0 -93 19.5t-77.5 52t-71 93t-66.5 123t-73 161.5l-242 559q-28 64 -49 105t-51 85t-63.5 70t-79.5 48.5t-105 32t-135 9.5v-418q0 -55 1.5 -82t12 -67t31.5 -78h-213q21 38 31.5 78t12 67t1.5 82v1250q0 64 -9.5 95.5t-35.5 59.5q59 0 104 21.5t64 50.5
v-1006q207 0 352 113.5t287 372.5h123q-50 -119 -132.5 -232.5t-185 -194t-192.5 -87.5v-2q58 -8 105.5 -32.5t80 -54.5t65.5 -84.5t53.5 -98.5t53.5 -122l238 -571q13 -30 31.5 -75.5t28 -68.5t24.5 -57.5t24 -51t22 -40.5t23.5 -35t24.5 -24.5t28 -19t31 -9.5t37 -4
q43 0 66.5 19t23.5 45q0 32 -29.5 45.5t-66.5 3.5q-14 62 16.5 98.5t79.5 36.5q42 0 74.5 -32t32.5 -91q0 -72 -61.5 -115t-151.5 -43z" />
    <glyph glyph-name="l.ss01" unicode="&#xe024;" horiz-adv-x="458" 
d="M549 -713q-67 0 -132 26t-122 78t-92 141.5t-35 203.5v1734q0 64 -9.5 96t-35.5 60q59 0 104 21.5t64 50.5v-1993q0 -103 24 -180.5t64.5 -120.5t87 -63.5t98.5 -20.5q43 0 66.5 19t23.5 45q0 32 -29.5 45.5t-66.5 3.5q-14 62 16.5 98.5t79.5 36.5q42 0 74.5 -32
t32.5 -91q0 -72 -61.5 -115t-151.5 -43z" />
    <glyph glyph-name="m.ss01" unicode="&#xe025;" horiz-adv-x="2113" 
d="M2204 -713q-67 0 -132 26t-122 78t-92 141.5t-35 203.5v1110q0 135 -82 211t-201 76q-76 0 -149.5 -33.5t-135 -96.5t-99.5 -168t-38 -235v-373q0 -55 1.5 -82t12 -67t31.5 -78h-213q21 38 31.5 78t12 67t1.5 82v662q0 118 -77.5 185t-190.5 67q-61 0 -121.5 -20
t-117.5 -63.5t-100.5 -105.5t-70 -153t-26.5 -199v-373q0 -55 1.5 -82t12 -67t31.5 -78h-213q21 38 31.5 78t12 67t1.5 82v764q0 64 -9.5 96t-35.5 60q59 0 104 21.5t64 50.5v-347h8q30 157 155.5 252t288.5 95q80 0 147 -23t118.5 -68t80.5 -117t29 -165v26h8
q30 157 156 252t289 95q80 0 147 -23t118.5 -68t80.5 -117t29 -165v-1141q0 -103 24 -180.5t64.5 -120.5t87 -63.5t98.5 -20.5q43 0 66.5 19t23.5 45q0 32 -29.5 45.5t-66.5 3.5q-14 62 16.5 98.5t79.5 36.5q42 0 74.5 -32t32.5 -91q0 -72 -61.5 -115t-151.5 -43z" />
    <glyph glyph-name="n.ss01" unicode="&#xe026;" horiz-adv-x="1286" 
d="M1376 -713q-67 0 -132 26t-122 78t-92 141.5t-35 203.5v1120q0 135 -78 212t-192 77q-140 0 -264.5 -109.5t-169.5 -312.5v-496q0 -55 1.5 -82t12 -67t31.5 -78h-213q21 38 31.5 78t12 67t1.5 82v764q0 64 -9.5 96t-35.5 60q59 0 104 21.5t64 50.5v-347h8
q53 170 176 259.5t266 89.5q75 0 142.5 -25t120 -71t83.5 -118t31 -161v-1141q0 -103 24 -180.5t65 -120.5t87.5 -63.5t98.5 -20.5q43 0 66.5 19t23.5 45q0 32 -30 45.5t-67 3.5q-14 62 17 98.5t80 36.5q42 0 74 -32t32 -91q0 -72 -61.5 -115t-151.5 -43z" />
    <glyph glyph-name="o.ss01" unicode="&#xe027;" horiz-adv-x="1329" 
d="M678 -25q-95 0 -179.5 25.5t-157.5 80.5t-126 136t-83 199.5t-30 263.5q0 110 44 214t116.5 181t170 123.5t198.5 46.5q78 0 160 -31q-113 1 -206.5 -31t-156.5 -88t-106.5 -132.5t-63.5 -161t-20 -176.5q0 -113 30.5 -220t84 -192t135.5 -136.5t178 -51.5q85 0 156 31.5
t120 84t83 123t49.5 147.5t15.5 158q0 88 -22.5 168t-61.5 138.5t-92.5 95.5t-116 37.5t-131.5 -33.5q65 100 192 100q65 0 129 -32t118.5 -92.5t88 -162.5t33.5 -229q0 -108 -35 -204t-92 -164t-129 -118t-147.5 -74t-145.5 -24z" />
    <glyph glyph-name="p.ss01" unicode="&#xe028;" horiz-adv-x="1253" 
d="M336 -449h-213q21 38 31.5 78t12 67.5t1.5 82.5v1212q0 64 -9.5 96t-35.5 60q59 0 104 21.5t64 50.5v-293q65 148 158.5 216t201.5 68q99 0 181.5 -34.5t140.5 -94.5t99 -140.5t60 -172t19 -190.5q0 -91 -19 -178.5t-58.5 -166.5t-95 -138.5t-133 -94.5t-167.5 -35
q-89 0 -158.5 31.5t-111 85t-63 118.5t-21.5 136q0 82 27.5 158t78.5 127q-49 -106 -49 -218q0 -147 81 -245.5t197 -98.5q90 0 162.5 43.5t117.5 116t69 162.5t24 188q0 101 -25 194.5t-73 169.5t-125.5 121.5t-173.5 45.5q-81 0 -147.5 -32.5t-111.5 -88t-78 -129.5
t-49 -156t-21 -168t1.5 -166t22.5 -149.5t39 -118.5v-313q0 -55 1.5 -82.5t12 -67.5t31.5 -78z" />
    <glyph glyph-name="q.ss01" unicode="&#xe029;" horiz-adv-x="1234" 
d="M1325 -713q-67 0 -132 26t-122 78t-92 141.5t-35 203.5v577h-10q-24 -157 -125.5 -243t-235.5 -86q-69 0 -135.5 23t-127.5 72.5t-107 118.5t-73.5 168.5t-27.5 215.5q0 157 45.5 281t123.5 200.5t175.5 116t206.5 39.5q57 0 128.5 -21.5t111.5 -21.5q67 0 176 45
l-2 -994v-522q0 -103 24 -180.5t64.5 -120.5t87 -63.5t98.5 -20.5q43 0 67 19.5t24 44.5q0 32 -30 45.5t-67 3.5q-14 62 17 98.5t80 36.5q42 0 74 -32t32 -91q0 -72 -61.5 -115t-151.5 -43zM596 80q105 0 199 80t151 239v676q-135 60 -260 60q-205 0 -333 -151.5
t-128 -399.5q0 -113 31 -209.5t83 -160t119 -99t138 -35.5z" />
    <glyph glyph-name="r.ss01" unicode="&#xe02a;" horiz-adv-x="694" 
d="M367 0h-213q21 38 31.5 78t12 67t1.5 82v764q0 132 -76 193q112 64 167 142.5t152 289.5q83 180 232 293.5t287 113.5q147 0 247.5 -85.5t100.5 -231.5q0 -75 -33 -135t-85.5 -90t-111 -38t-116.5 17t-95 78q62 -22 121 -22q70 0 118.5 37t68.5 90.5t20 117.5
q0 83 -56.5 128.5t-148.5 45.5q-56 0 -118 -17.5t-127.5 -55.5t-126.5 -92t-115 -132.5t-94.5 -172.5t-64 -216t-23.5 -258v-764q0 -55 1.5 -82t12 -67t31.5 -78z" />
    <glyph glyph-name="s.ss01" unicode="&#xe02b;" horiz-adv-x="1148" 
d="M590 -633q-136 0 -253.5 54.5t-193 164t-75.5 252.5q0 81 32 145t82.5 99.5t110.5 52t120.5 7.5t106.5 -40q-74 16 -135.5 -0.5t-100.5 -56t-60 -93.5t-21 -114q0 -68 24 -131.5t70.5 -116t124.5 -84.5t176 -32q85 0 165 27.5t145 78.5t104 131t39 176q0 54 -15.5 106.5
t-36.5 93.5t-62.5 88t-73.5 77.5t-90.5 74.5t-92 67t-98.5 67q-58 39 -85 58t-77 56t-74.5 60t-58.5 58.5t-50 64.5t-28 65.5t-12 73.5q0 156 116.5 236.5t327.5 80.5q170 0 264 -68.5t94 -166.5q0 -70 -47.5 -136t-136.5 -110q64 98 64 191q0 107 -78 178.5t-191 71.5
q-80 0 -147.5 -28t-112.5 -89.5t-45 -145.5q0 -42 12.5 -83t30.5 -74t53 -70.5t62.5 -63.5t77.5 -63t81 -58t89 -59q52 -35 76 -51t72 -50.5t73 -55t64 -55.5t60 -61.5t47 -64t39 -72t22.5 -75.5t9.5 -84q0 -148 -80 -264.5t-212.5 -178t-291.5 -61.5z" />
    <glyph glyph-name="t.ss01" unicode="&#xe02c;" horiz-adv-x="901" 
d="M541 -35q-64 0 -119.5 20t-101.5 60t-72.5 109t-26.5 159v686q0 143 -129 185q113 0 216.5 45.5t171 133.5t67.5 198q0 108 -62 163.5t-149 55.5q-91 0 -141 -52.5t-50 -123.5q0 -72 49.5 -119.5t135.5 -34.5q-40 -55 -115 -55q-84 0 -133 55t-49 133q0 98 77.5 171
t223.5 73q85 0 160 -30.5t125.5 -96.5t50.5 -156q0 -80 -38 -149.5t-93 -111t-107 -66t-90 -27.5v-6h401v-129q-72 29 -161.5 41t-239.5 12l2 -778q0 -140 56 -203.5t143 -63.5q64 0 130.5 27.5t114.5 67.5l21 -99q-52 -44 -123 -69t-145 -25z" />
    <glyph glyph-name="u.ss01" unicode="&#xe02d;" horiz-adv-x="1302" 
d="M1372 -713q-67 0 -132 26t-122 78t-92 141.5t-35 203.5v610h-4q-53 -170 -176 -259t-266 -89q-75 0 -142.5 25t-120 71t-83.5 118t-31 161v618q0 64 -9.5 96t-35.5 60q59 0 104 21.5t64 50.5v-857q0 -135 77.5 -211.5t192.5 -76.5q87 0 170.5 42t155 136t104.5 225v514
q0 64 -9.5 96t-35.5 60q59 0 104 21.5t64 50.5v-1514q0 -103 24 -180.5t65 -120.5t87.5 -63.5t98.5 -20.5q43 0 66.5 19t23.5 45q0 32 -30 45.5t-67 3.5q-14 62 17 98.5t80 36.5q42 0 74 -32t32 -91q0 -72 -61.5 -115t-151.5 -43z" />
    <glyph glyph-name="v.ss01" unicode="&#xe02e;" horiz-adv-x="1714" 
d="M657 0h-233q5 27 -4 84.5t-21 97.5l-256 822q-28 94 -82 180h166q-9 -57 21 -154l295 -975l309 975q29 92 29 154q40 -16 105 -4.5t118.5 32t126.5 40.5t129 20q121 0 186.5 -75.5t65.5 -180.5q0 -106 -66 -186t-180 -80q-70 0 -108.5 40.5t-38.5 92.5q0 53 32 78
q36 -39 99 -39q59 0 101 39.5t42 117.5q0 74 -49 116t-125 42q-56 0 -116.5 -23.5t-119 -69.5t-109.5 -123t-81 -175l-199 -635q-19 -58 -31 -120t-6 -91z" />
    <glyph glyph-name="w.ss01" unicode="&#xe02f;" horiz-adv-x="2373" 
d="M631 0h-189q2 7 2 15.5t-1.5 20t-3.5 22t-6 25t-7 25t-8 27t-8 26t-9 26.5t-8 24l-254 793q-37 124 -78 180h183q-12 -21 -10 -68t14 -86l293 -917l278 858q16 57 15 114.5t-15 98.5h162q-39 -117 -6 -213l278 -826l279 885q28 91 16 154q40 -16 106.5 -2.5t121.5 36.5
t129.5 44.5t130.5 21.5q134 0 205 -75.5t71 -182.5q0 -110 -71 -193t-189 -83q-70 0 -108.5 40.5t-38.5 92.5q0 53 32 78q36 -39 99 -39q59 0 101 39.5t42 117.5q0 82 -46.5 127t-121.5 45q-56 0 -117 -26.5t-120.5 -76.5t-112 -133t-84.5 -186l-197 -618q-2 -7 -8 -24
t-9 -26.5t-8 -26t-8 -27t-7 -25t-6 -25t-3.5 -22t-1.5 -20t2 -15.5h-162q2 7 2 18.5t-1 22t-5 27t-7 27.5t-9.5 30.5t-9.5 29t-10 30t-9 26.5l-221 674l-219 -674q-52 -153 -51 -197q1 -8 2 -14z" />
    <glyph glyph-name="x.ss01" unicode="&#xe030;" horiz-adv-x="1769" 
d="M279 0h-187q45 34 77 65.5t47.5 51.5t39.5 57l276 416l-276 411q-28 41 -45.5 65t-52 60.5t-66.5 57.5h187l325 -506l279 426q12 17 12 50.5t-16 59.5q30 -12 67 -12q64 0 213.5 54.5t216.5 54.5q141 0 216 -82t75 -195q0 -110 -67 -191t-181 -81q-68 0 -117 38t-49 99
q0 45 25 88q33 -74 102 -74q55 0 97.5 47t42.5 125q0 81 -53.5 124.5t-137.5 43.5q-100 0 -205 -58t-176 -167l-291 -438l312 -416q2 -3 12.5 -17t14.5 -19t14 -18t15 -19t15.5 -18t17 -19t17 -17t19 -17t19 -15t20.5 -15h-197l-332 502z" />
    <glyph glyph-name="y.ss01" unicode="&#xe031;" horiz-adv-x="2062" 
d="M565 -582q-249 0 -473 90l2 107q239 -90 479 -90q184 0 300 56.5t116 160.5q0 94 -98 151t-295 72q-202 15 -309 118.5t-107 268.5v586q0 60 -3.5 92t-22.5 74t-58 80h107q100 0 100 -150v-684q0 -75 27 -132.5t73.5 -91t102.5 -50.5t119 -17q133 0 238.5 65t105.5 161
v749q0 78 -54 150q90 -22 151.5 -19t133 24t127 44.5t133.5 43t152 19.5q165 0 256.5 -73t91.5 -189q0 -100 -58 -152.5t-139 -52.5q-84 0 -145.5 53.5t-52.5 139.5q40 -31 91.5 -34.5t88 26.5t31.5 86q-6 68 -71.5 104.5t-162.5 36.5q-77 0 -154.5 -23.5t-144.5 -67
t-109 -115t-42 -158.5v-539q0 -78 -31 -141.5t-79 -101t-100 -57.5t-100 -20q75 -10 131 -30.5t89.5 -47t54.5 -61t28 -67.5t7 -72q0 -80 -42 -142.5t-115 -101t-167 -58.5t-203 -20z" />
    <glyph glyph-name="z.ss01" unicode="&#xe032;" horiz-adv-x="1902" 
d="M973 -37q-308 39 -478 53t-246.5 9t-150.5 -25l797 1112q-634 11 -780 -51l10 123h971l-777 -1108q44 3 92 3.5t100.5 -2.5t99.5 -6t108.5 -9.5t107.5 -11.5t115.5 -12.5t114.5 -12.5q108 -11 197.5 1t148.5 41t99.5 70t58.5 85t18 89q0 58 -31 101.5t-73.5 60t-90.5 5.5
t-79 -52q0 91 67.5 145t159.5 54q49 0 93.5 -17t81.5 -50.5t56.5 -92t14.5 -133.5q-6 -92 -59.5 -168.5t-154.5 -131.5t-249 -74t-342 5z" />
    <glyph glyph-name="a.ss02" unicode="&#xe033;" horiz-adv-x="1865" 
d="M1350 -236q-73 0 -144 23.5t-132 68t-98.5 118.5t-37.5 165v248h-12q-25 -106 -72 -187.5t-107.5 -131t-127.5 -74.5t-138 -25q-146 0 -252 96t-106 254q0 91 39 165.5t104.5 121t146 71.5t167.5 25q104 0 198.5 -36t159.5 -103q-78 55 -173.5 77.5t-185.5 9t-165.5 -53
t-121.5 -112.5t-46 -165q0 -126 72 -197t180 -71q137 0 264.5 132.5t175.5 351.5v331q0 119 -87 195t-220 76q-180 0 -359 -131l-16 92q180 123 389 123q114 0 206.5 -40.5t151 -127t58.5 -205.5v-731q0 -75 24 -135t64.5 -96.5t89 -56t100.5 -19.5q127 0 192.5 65t65.5 152
q0 71 -40 123.5t-105 52.5q-41 0 -98 -31q0 93 62 148t145 55q91 0 157 -64t66 -184q0 -66 -25.5 -128.5t-75.5 -116t-136.5 -86t-196.5 -32.5z" />
    <glyph glyph-name="d.ss02" unicode="&#xe034;" horiz-adv-x="1906" 
d="M1425 -221q-56 0 -111 11.5t-112.5 40t-104 71.5t-83.5 111t-53 153h-11q-53 -94 -150 -146.5t-208 -52.5q-92 0 -177.5 37.5t-156.5 110.5t-113.5 196t-42.5 279q0 128 29.5 233t78 175t114 118t135 69t143.5 21q115 0 210.5 -50t137.5 -138h11v459q0 63 -9.5 95
t-36.5 60q59 0 104 21.5t64 50.5v-1473q0 -90 22 -162t56 -117t79 -74.5t88.5 -41.5t86.5 -12q130 0 196 62t66 147q0 72 -43.5 126t-111.5 54q-55 0 -80 -49q-4 32 -4 47q0 92 60 141t142 49q91 0 158.5 -59.5t67.5 -167.5q0 -74 -25 -138.5t-68 -110.5t-99 -79.5
t-119.5 -50t-129.5 -16.5zM610 43q107 0 204 60t147 161v656q-43 83 -145.5 138.5t-215.5 55.5q-74 0 -138.5 -28t-119 -86.5t-86 -163.5t-31.5 -246t32.5 -249.5t88 -171.5t122.5 -94.5t142 -31.5z" />
    <glyph glyph-name="h.ss02" unicode="&#xe035;" horiz-adv-x="1961" 
d="M1460 -113q-69 0 -136.5 16.5t-111.5 38t-94 41t-84.5 25.5t-83.5 -8q34 60 39.5 88.5t5.5 138.5v629q0 135 -78 212t-192 77q-140 0 -264.5 -109.5t-169.5 -312.5v-496q0 -55 1.5 -82t12 -67t31.5 -78h-213q21 38 31.5 78t12 67t1.5 82v1248q0 64 -9.5 95.5t-35.5 59.5
q59 0 104 21.5t64 50.5v-830h8q53 170 176 259.5t266 89.5q75 0 142.5 -25t120 -71t83.5 -118t31 -161v-658q0 -81 50 -143.5t124 -92.5t156 -30q116 0 197 64t81 184q0 65 -38.5 117.5t-102.5 52.5q-42 0 -73 -28t-31 -72q-54 14 -82.5 53t-28.5 88q0 80 57 125t138 45
q50 0 97.5 -19t87.5 -55t64.5 -97t24.5 -138q0 -67 -22.5 -125.5t-60.5 -99.5t-87 -71t-102.5 -44.5t-106.5 -14.5z" />
    <glyph glyph-name="i.ss02" unicode="&#xe036;" horiz-adv-x="423" 
d="M336 0h-213q21 38 31.5 78t12 67t1.5 82v789q0 70 -8 105t-37 65q71 0 140 32.5t89 63.5q-33 -78 -47 -139t-14 -152v-764q0 -55 1.5 -82t12 -67t31.5 -78z" />
    <glyph glyph-name="l.ss02" unicode="&#xe037;" horiz-adv-x="1134" 
d="M633 -113q-69 0 -136.5 16.5t-111.5 38t-94 41t-84.5 25.5t-83.5 -8q21 38 31.5 78t12 67t1.5 82v1248q0 64 -9.5 95.5t-35.5 59.5q59 0 104 21.5t64 50.5v-1514q0 -81 50 -143.5t124 -92.5t156 -30q116 0 197 64t81 184q0 65 -38.5 117.5t-102.5 52.5q-42 0 -73.5 -28
t-31.5 -72q-53 14 -81.5 53t-28.5 88q0 80 56.5 125t137.5 45q50 0 97.5 -19t88 -55t65 -97t24.5 -138q0 -67 -22.5 -125.5t-60.5 -99.5t-87 -71t-102.5 -44.5t-106.5 -14.5z" />
    <glyph glyph-name="m.ss02" unicode="&#xe038;" horiz-adv-x="2850" 
d="M2322 -72q-100 0 -254.5 39t-220.5 39q-31 0 -69 -6q21 38 31.5 78t12 67t1.5 82v619q0 135 -82 211t-201 76q-76 0 -149.5 -33.5t-135 -96.5t-99.5 -168t-38 -235v-373q0 -55 1.5 -82t12 -67t31.5 -78h-213q21 38 31.5 78t12 67t1.5 82v662q0 118 -77.5 185t-190.5 67
q-61 0 -121.5 -20t-117.5 -63.5t-100.5 -105.5t-70 -153t-26.5 -199v-373q0 -55 1.5 -82t12 -67t31.5 -78h-213q21 38 31.5 78t12 67t1.5 82v764q0 64 -9.5 96t-35.5 60q59 0 104 21.5t64 50.5v-347h8q30 157 155.5 252t288.5 95q80 0 147 -23t118.5 -68t80.5 -117t29 -165
v26h8q30 157 156 252t289 95q80 0 147 -23t118.5 -68t80.5 -117t29 -165v-656q0 -63 47.5 -113.5t121 -77t156.5 -26.5q65 0 123 18t106 54.5t76.5 98t28.5 141.5q0 98 -54 149t-130 51q-81 0 -140 -54t-53 -146q-28 57 -28 114q0 93 74.5 150t176.5 57q53 0 101 -18
t88 -53.5t64 -96t24 -137.5q0 -170 -112 -271.5t-294 -101.5z" />
    <glyph glyph-name="n.ss02" unicode="&#xe039;" horiz-adv-x="1961" 
d="M1460 -113q-69 0 -136.5 16.5t-111.5 38t-94 41t-84.5 25.5t-83.5 -8q21 38 31.5 78t12 67t1.5 82v629q0 135 -78 212t-192 77q-140 0 -264.5 -109.5t-169.5 -312.5v-496q0 -55 1.5 -82t12 -67t31.5 -78h-213q21 38 31.5 78t12 67t1.5 82v764q0 64 -9.5 96t-35.5 60
q59 0 104 21.5t64 50.5v-347h8q53 170 176 259.5t266 89.5q75 0 142.5 -25t120 -71t83.5 -118t31 -161v-658q0 -81 50 -143.5t124 -92.5t156 -30q116 0 197 64t81 184q0 65 -38.5 117.5t-102.5 52.5q-42 0 -73 -28t-31 -72q-54 14 -82.5 53t-28.5 88q0 80 57 125t138 45
q50 0 97.5 -19t87.5 -55t64.5 -97t24.5 -138q0 -67 -22.5 -125.5t-60.5 -99.5t-87 -71t-102.5 -44.5t-106.5 -14.5z" />
    <glyph glyph-name="o.ss02" unicode="&#xe03a;" horiz-adv-x="1370" 
d="M672 -25q-70 0 -145.5 24t-147.5 74t-129 118t-92 164t-35 204q0 127 33.5 229t88 162.5t118.5 92.5t129 32q127 0 192 -100q-69 34 -131.5 33.5t-116 -37.5t-92.5 -95.5t-61.5 -138.5t-22.5 -168q0 -81 15.5 -158t49.5 -147.5t83 -123t120 -84t156 -31.5q96 0 178 51.5
t135.5 136.5t84 192t30.5 220q0 92 -20 176.5t-63.5 161t-106.5 132.5t-156.5 88t-206.5 31q82 31 160 31q101 0 198.5 -46.5t169.5 -123.5t116 -181t44 -214q0 -145 -30 -263.5t-82.5 -199.5t-125.5 -136t-157.5 -80.5t-179.5 -25.5z" />
    <glyph glyph-name="t.ss02" unicode="&#xe03b;" horiz-adv-x="901" 
d="M840 -702q-88 0 -174 27t-167 86.5t-142.5 144t-98.5 209.5t-37 274v960q0 148 -139 185q64 38 114.5 106t80 145t44.5 131t23 103l-2 -485h401v-129q-72 29 -161.5 41t-239.5 12l2 -1151q0 -122 27.5 -223.5t73 -170t105.5 -116t124 -69t129 -21.5q124 0 209.5 74.5
t85.5 201.5q0 105 -74 164q77 37 146 -3.5t69 -147.5t-56 -187.5t-145.5 -120.5t-197.5 -40z" />
    <glyph glyph-name="u.ss02" unicode="&#xe03c;" horiz-adv-x="1966" 
d="M1440 -158q-86 0 -164.5 31t-143 90t-103 156.5t-38.5 220.5v6h-4q-53 -170 -176 -259t-266 -89q-75 0 -142.5 25t-120 71t-83.5 118t-31 161v618q0 64 -9.5 96t-35.5 60q59 0 104 21.5t64 50.5v-857q0 -135 77.5 -211.5t192.5 -76.5q64 0 127.5 25t122 73t106.5 127
t74 178v514q0 64 -9.5 96t-35.5 60q59 0 104 21.5t64 50.5v-961q0 -89 29 -160.5t78 -115t108 -66t123 -22.5q79 0 146.5 32t111 99.5t43.5 158.5q0 70 -37 109t-88 39q-39 0 -72 -23t-51 -67q-30 80 -12 135t63 83.5t103 28.5q83 0 144 -58.5t61 -168.5q0 -99 -36 -180
t-96 -132.5t-135.5 -79.5t-156.5 -28z" />
    <glyph glyph-name="x.ss02" unicode="&#xe03d;" horiz-adv-x="1144" 
d="M1167 -774q-100 0 -196.5 93t-177.5 262.5t-143 425t-93 564.5h-10l-402 -583h-165q74 48 163 182l293 436q13 197 -20 366t-97 285t-149.5 199t-177 121.5t-180.5 38.5q-123 0 -207 -72q-15 47 -15 72q0 77 60.5 129.5t165.5 52.5q100 -1 198.5 -48.5t187 -144
t156.5 -229t108 -315t40 -389.5h10l363 510l96 -17l-352 -493q10 -189 44 -378.5t90 -357.5t126 -297.5t159 -205.5t183 -76q149 0 291 186q-63 -129 -144 -213q-98 -104 -205 -104z" />
    <glyph glyph-name="a.ss03" unicode="&#xe03e;" horiz-adv-x="1243" 
d="M541 -31q-82 0 -157 26t-133.5 73.5t-93 120.5t-34.5 161q0 97 34.5 176t92 127t127 73.5t143.5 25.5q143 0 223 -68.5t80 -167.5q0 -88 -63 -166q23 124 -43 201.5t-180 77.5q-122 0 -206.5 -72.5t-84.5 -206.5q0 -115 87.5 -192.5t207.5 -77.5q67 0 125.5 16
t115.5 57.5t97 106t65 169.5t25 241q0 204 -98 322t-257 118q-146 0 -319 -111l-45 107q184 111 368 111q131 0 237 -55t170.5 -165.5t64.5 -259.5v-536q0 -65 12 -108.5t49 -92.5h-45q-36 0 -62 30t-38 67.5t-18.5 93t-7.5 82t-1 59.5q-39 -172 -160.5 -267.5t-277.5 -95.5
z" />
    <glyph glyph-name="d.ss03" unicode="&#xe03f;" horiz-adv-x="1267" 
d="M592 -33q-92 0 -177.5 37.5t-156.5 110.5t-113.5 196t-42.5 279q0 128 29.5 233t78 175t114 118t135 69t143.5 21q115 0 210.5 -50t137.5 -138h8v430q0 92 23.5 168.5t61.5 127.5t88.5 86t102.5 50.5t105 15.5q91 0 152 -43t61 -114q0 -59 -32 -91t-74 -32
q-55 0 -81.5 39t-14.5 96q37 -10 66.5 3.5t29.5 45.5q0 26 -23.5 45t-66.5 19q-41 0 -79 -12.5t-74 -43t-62.5 -76.5t-42.5 -119t-15 -165v-1247q0 -68 17.5 -117t64.5 -84h-63q-64 0 -102.5 55.5t-38.5 110.5h-11q-53 -94 -150 -146.5t-208 -52.5zM610 43q107 0 204 60
t147 161l-3 660q-45 83 -146 137.5t-212 54.5q-74 0 -138.5 -28t-119 -87.5t-86 -164.5t-31.5 -246t32.5 -249.5t88 -171.5t122.5 -94.5t142 -31.5z" />
    <glyph glyph-name="h.ss03" unicode="&#xe040;" horiz-adv-x="1286" 
d="M1376 -713q-67 0 -132 26t-122 78t-92 141.5t-35 203.5v1120q0 135 -78 212t-192 77q-140 0 -264.5 -109.5t-169.5 -312.5v-496q0 -55 1.5 -82t12 -67t31.5 -78h-213q21 38 31.5 78t12 67t1.5 82v1039q0 64 -9.5 95.5t-35.5 59.5q48 0 95.5 16t72.5 52v-617h8
q53 170 176 259.5t266 89.5q75 0 142.5 -25t120 -71t83.5 -118t31 -161v-1141q0 -103 24 -180.5t65 -120.5t87.5 -63.5t98.5 -20.5q43 0 66.5 19t23.5 45q0 32 -30 45.5t-67 3.5q-14 62 17 98.5t80 36.5q42 0 74 -32t32 -91q0 -72 -61.5 -115t-151.5 -43z" />
    <glyph glyph-name="l.ss03" unicode="&#xe041;" horiz-adv-x="458" 
d="M336 0h-213q21 38 31.5 78t12 67t1.5 82v1233q0 103 -24 180.5t-64.5 120.5t-87 63.5t-98.5 20.5q-43 0 -67 -19t-24 -44q0 -32 30 -45.5t67 -3.5q14 -62 -17 -99t-80 -37q-42 0 -74 32t-32 91q0 72 61.5 115t151.5 43q53 0 105 -15.5t102.5 -50.5t88.5 -86t61.5 -127.5
t23.5 -168.5v-1203q0 -55 1.5 -82t12 -67t31.5 -78z" />
    <glyph glyph-name="t.ss03" unicode="&#xe042;" horiz-adv-x="1755" 
d="M1393 -96q-64 0 -117.5 25t-77.5 71q16 -2 45 -2q106 0 163.5 54t57.5 126q0 56 -38 95.5t-105 39.5q-70 0 -144.5 -36t-142.5 -87t-140 -102t-164.5 -87t-188.5 -36q-64 0 -119.5 20t-101.5 60t-72.5 109t-26.5 159v686q0 148 -139 185q64 38 114.5 106t80 145t44.5 131
t23 103l-2 -485h401v-129q-72 29 -161.5 41t-239.5 12l2 -778q0 -143 57.5 -218t141.5 -75q95 0 187.5 35.5t167.5 86t148.5 101t159.5 86t172 35.5q122 0 198.5 -66.5t76.5 -175.5q0 -112 -78 -173.5t-182 -61.5z" />
    <glyph glyph-name="u.ss03" unicode="&#xe043;" horiz-adv-x="1302" 
d="M545 -2q-75 0 -142.5 25t-120 71t-83.5 118t-31 161v618q0 64 -9.5 96t-35.5 60q59 0 104 21.5t64 50.5v-857q0 -135 77.5 -211.5t192.5 -76.5q87 0 170.5 42t155 136t104.5 225v862q0 114 35 203.5t92 141.5t122 78t132 26q90 0 151.5 -43t61.5 -115q0 -59 -32 -91
t-74 -32q-49 0 -80 36.5t-17 98.5q37 -10 67 4t30 46q0 25 -23.5 44t-66.5 19q-52 0 -98.5 -20.5t-87.5 -63.5t-65 -120.5t-24 -180.5v-1169q0 -68 17.5 -117t64.5 -84h-113q-50 0 -71 39.5t-21 124.5v182h-4q-53 -170 -176 -259t-266 -89z" />
    <glyph glyph-name="a.ss04" unicode="&#xe044;" horiz-adv-x="1228" 
d="M481 -31q-146 0 -252 96t-106 254q0 91 39 165.5t104.5 121t146 71.5t167.5 25q81 0 186 -30t172 -82v276q0 119 -87 195t-220 76q-180 0 -359 -131l-16 92q180 123 389 123q114 0 206.5 -40.5t151 -127t58.5 -205.5v-731q0 -84 61 -117h-100q-41 0 -62.5 23.5
t-21.5 62.5v301h-8q-25 -105 -72.5 -187t-109 -131.5t-129 -74.5t-138.5 -25zM498 51q138 0 263 125.5t177 347.5q-71 52 -161 80.5t-179 28.5q-150 0 -251 -80t-101 -234q0 -126 72 -197t180 -71z" />
    <glyph glyph-name="d.ss04" unicode="&#xe045;" horiz-adv-x="1273" 
d="M592 -33q-92 0 -177.5 37.5t-156.5 110.5t-113.5 196t-42.5 279q0 128 29.5 233t78 175t114 118t135 69t143.5 21q115 0 210.5 -50t137.5 -138h11v461q0 103 -24 180.5t-65 120.5t-87.5 63.5t-98.5 20.5q-43 0 -66.5 -19t-23.5 -45q0 -32 29.5 -45.5t66.5 -3.5
q14 -62 -16.5 -98.5t-79.5 -36.5q-42 0 -74.5 32t-32.5 91q0 71 61 114t152 43q53 0 105 -15.5t102.5 -50.5t88.5 -86t61.5 -127.5t23.5 -168.5v-1247q0 -68 17.5 -117t64.5 -84h-63q-64 0 -102.5 55.5t-38.5 110.5h-11q-53 -94 -150 -146.5t-208 -52.5zM610 43
q107 0 204 60t147 161v656q-43 83 -145.5 138.5t-215.5 55.5q-74 0 -138.5 -28t-119 -86.5t-86 -163.5t-31.5 -246t32.5 -249.5t88 -171.5t122.5 -94.5t142 -31.5z" />
    <glyph glyph-name="i.loclTRK" horiz-adv-x="458" 
d="M229 1452q-46 0 -77 31.5t-31 77.5t31 77t77 31t77.5 -31t31.5 -77t-31.5 -77.5t-77.5 -31.5zM336 0h-213q21 38 31.5 78t12 67t1.5 82v791q0 64 -9.5 96t-35.5 60q59 0 104 21t64 50v-1018q0 -55 1.5 -82t12 -67t31.5 -78z" />
    </font>
</defs>
</svg>
